<svg width="122" height="156" viewBox="0 0 122 156" fill="none" xmlns="http://www.w3.org/2000/svg">
<rect x="96.855" y="53.4656" width="19.6438" height="72.0271" fill="white"/>
<rect x="84.9144" y="58.3723" width="29.9749" height="9.82188" transform="rotate(44.7475 84.9144 58.3723)" fill="white"/>
<rect x="91.9441" y="24" width="29.4656" height="24.5547" rx="12.2773" fill="white"/>
<path d="M40.064 125.536C32.896 125.536 26.0267 124.597 19.456 122.72C12.8853 120.757 7.59467 118.24 3.584 115.168L10.624 99.552C14.464 102.283 18.9867 104.544 24.192 106.336C29.4827 108.043 34.816 108.896 40.192 108.896C44.288 108.896 47.5733 108.512 50.048 107.744C52.608 106.891 54.4853 105.739 55.68 104.288C56.8747 102.837 57.472 101.173 57.472 99.296C57.472 96.9067 56.5333 95.0293 54.656 93.664C52.7787 92.2133 50.304 91.0613 47.232 90.208C44.16 89.2693 40.7467 88.416 36.992 87.648C33.3227 86.7947 29.6107 85.7707 25.856 84.576C22.1867 83.3813 18.816 81.8453 15.744 79.968C12.672 78.0907 10.1547 75.616 8.192 72.544C6.31467 69.472 5.376 65.5467 5.376 60.768C5.376 55.648 6.74133 50.9973 9.472 46.816C12.288 42.5493 16.4693 39.1787 22.016 36.704C27.648 34.144 34.688 32.864 43.136 32.864C48.768 32.864 54.3147 33.5467 59.776 34.912C65.2373 36.192 70.0587 38.1547 74.24 40.8L67.84 56.544C63.6587 54.1547 59.4773 52.4053 55.296 51.296C51.1147 50.1013 47.0187 49.504 43.008 49.504C38.9973 49.504 35.712 49.9733 33.152 50.912C30.592 51.8507 28.7573 53.088 27.648 54.624C26.5387 56.0747 25.984 57.7813 25.984 59.744C25.984 62.048 26.9227 63.9253 28.8 65.376C30.6773 66.7413 33.152 67.8507 36.224 68.704C39.296 69.5573 42.6667 70.4107 46.336 71.264C50.0907 72.1173 53.8027 73.0987 57.472 74.208C61.2267 75.3173 64.64 76.8107 67.712 78.688C70.784 80.5653 73.2587 83.04 75.136 86.112C77.0987 89.184 78.08 93.0667 78.08 97.76C78.08 102.795 76.672 107.403 73.856 111.584C71.04 115.765 66.816 119.136 61.184 121.696C55.6373 124.256 48.5973 125.536 40.064 125.536Z" fill="white"/>
</svg>
