<svg width="766" height="312" viewBox="0 0 766 312" fill="none" xmlns="http://www.w3.org/2000/svg">
<path d="M40.064 125.536C32.896 125.536 26.0267 124.597 19.456 122.72C12.8853 120.757 7.59467 118.24 3.584 115.168L10.624 99.552C14.464 102.283 18.9867 104.544 24.192 106.336C29.4827 108.043 34.816 108.896 40.192 108.896C44.288 108.896 47.5733 108.512 50.048 107.744C52.608 106.891 54.4853 105.739 55.68 104.288C56.8747 102.837 57.472 101.173 57.472 99.296C57.472 96.9067 56.5333 95.0293 54.656 93.664C52.7787 92.2133 50.304 91.0613 47.232 90.208C44.16 89.2693 40.7467 88.416 36.992 87.648C33.3227 86.7947 29.6107 85.7707 25.856 84.576C22.1867 83.3813 18.816 81.8453 15.744 79.968C12.672 78.0907 10.1547 75.616 8.192 72.544C6.31467 69.472 5.376 65.5467 5.376 60.768C5.376 55.648 6.74133 50.9973 9.472 46.816C12.288 42.5493 16.4693 39.1787 22.016 36.704C27.648 34.144 34.688 32.864 43.136 32.864C48.768 32.864 54.3147 33.5467 59.776 34.912C65.2373 36.192 70.0587 38.1547 74.24 40.8L67.84 56.544C63.6587 54.1547 59.4773 52.4053 55.296 51.296C51.1147 50.1013 47.0187 49.504 43.008 49.504C38.9973 49.504 35.712 49.9733 33.152 50.912C30.592 51.8507 28.7573 53.088 27.648 54.624C26.5387 56.0747 25.984 57.7813 25.984 59.744C25.984 62.048 26.9227 63.9253 28.8 65.376C30.6773 66.7413 33.152 67.8507 36.224 68.704C39.296 69.5573 42.6667 70.4107 46.336 71.264C50.0907 72.1173 53.8027 73.0987 57.472 74.208C61.2267 75.3173 64.64 76.8107 67.712 78.688C70.784 80.5653 73.2587 83.04 75.136 86.112C77.0987 89.184 78.08 93.0667 78.08 97.76C78.08 102.795 76.672 107.403 73.856 111.584C71.04 115.765 66.816 119.136 61.184 121.696C55.6373 124.256 48.5973 125.536 40.064 125.536ZM133.081 124V110.56L131.801 107.616V83.552C131.801 79.2853 130.478 75.9573 127.833 73.568C125.273 71.1787 121.305 69.984 115.929 69.984C112.26 69.984 108.633 70.5813 105.049 71.776C101.55 72.8853 98.5637 74.4213 96.089 76.384L88.921 62.432C92.6757 59.7867 97.1983 57.7387 102.489 56.288C107.78 54.8373 113.156 54.112 118.617 54.112C129.113 54.112 137.262 56.5867 143.065 61.536C148.868 66.4853 151.769 74.208 151.769 84.704V124H133.081ZM112.089 125.024C106.713 125.024 102.105 124.128 98.265 122.336C94.425 120.459 91.481 117.941 89.433 114.784C87.385 111.627 86.361 108.085 86.361 104.16C86.361 100.064 87.3423 96.48 89.305 93.408C91.353 90.336 94.553 87.9467 98.905 86.24C103.257 84.448 108.932 83.552 115.929 83.552H134.233V95.2H118.105C113.412 95.2 110.169 95.968 108.377 97.504C106.67 99.04 105.817 100.96 105.817 103.264C105.817 105.824 106.798 107.872 108.761 109.408C110.809 110.859 113.582 111.584 117.081 111.584C120.409 111.584 123.396 110.816 126.041 109.28C128.686 107.659 130.606 105.312 131.801 102.24L134.873 111.456C133.422 115.893 130.777 119.264 126.937 121.568C123.097 123.872 118.148 125.024 112.089 125.024ZM198.897 125.024C193.18 125.024 188.06 123.915 183.537 121.696C179.1 119.477 175.644 116.107 173.169 111.584C170.694 106.976 169.457 101.131 169.457 94.048V55.136H189.425V91.104C189.425 96.8213 190.62 101.045 193.009 103.776C195.484 106.421 198.94 107.744 203.377 107.744C206.449 107.744 209.18 107.104 211.569 105.824C213.958 104.459 215.836 102.411 217.201 99.68C218.566 96.864 219.249 93.3653 219.249 89.184V55.136H239.217V124H220.273V105.056L223.729 110.56C221.425 115.339 218.012 118.965 213.489 121.44C209.052 123.829 204.188 125.024 198.897 125.024ZM192.625 46.304L209.905 27.872H231.409L208.241 46.304H192.625ZM287.284 125.024C280.799 125.024 274.953 123.573 269.748 120.672C264.543 117.685 260.404 113.547 257.332 108.256C254.345 102.965 252.852 96.736 252.852 89.568C252.852 82.3147 254.345 76.0427 257.332 70.752C260.404 65.4613 264.543 61.3653 269.748 58.464C274.953 55.5627 280.799 54.112 287.284 54.112C293.087 54.112 298.164 55.392 302.516 57.952C306.868 60.512 310.239 64.3947 312.628 69.6C315.017 74.8053 316.212 81.4613 316.212 89.568C316.212 97.5893 315.06 104.245 312.756 109.536C310.452 114.741 307.124 118.624 302.772 121.184C298.505 123.744 293.343 125.024 287.284 125.024ZM290.74 108.64C293.983 108.64 296.927 107.872 299.572 106.336C302.217 104.8 304.308 102.624 305.844 99.808C307.465 96.9067 308.276 93.4933 308.276 89.568C308.276 85.5573 307.465 82.144 305.844 79.328C304.308 76.512 302.217 74.336 299.572 72.8C296.927 71.264 293.983 70.496 290.74 70.496C287.412 70.496 284.425 71.264 281.78 72.8C279.135 74.336 277.001 76.512 275.38 79.328C273.844 82.144 273.076 85.5573 273.076 89.568C273.076 93.4933 273.844 96.9067 275.38 99.808C277.001 102.624 279.135 104.8 281.78 106.336C284.425 107.872 287.412 108.64 290.74 108.64ZM308.788 124V109.92L309.172 89.44L307.892 69.088V29.024H327.86V124H308.788ZM380.517 125.024C372.666 125.024 365.754 123.488 359.781 120.416C353.893 117.344 349.328 113.163 346.085 107.872C342.842 102.496 341.221 96.3947 341.221 89.568C341.221 82.656 342.8 76.5547 345.957 71.264C349.2 65.888 353.594 61.7067 359.141 58.72C364.688 55.648 370.96 54.112 377.957 54.112C384.698 54.112 390.757 55.5627 396.133 58.464C401.594 61.28 405.904 65.376 409.061 70.752C412.218 76.0427 413.797 82.4 413.797 89.824C413.797 90.592 413.754 91.488 413.669 92.512C413.584 93.4507 413.498 94.3467 413.413 95.2H357.477V83.552H402.917L395.237 87.008C395.237 83.424 394.512 80.3093 393.061 77.664C391.61 75.0187 389.605 72.9707 387.045 71.52C384.485 69.984 381.498 69.216 378.085 69.216C374.672 69.216 371.642 69.984 368.997 71.52C366.437 72.9707 364.432 75.0613 362.981 77.792C361.53 80.4373 360.805 83.5947 360.805 87.264V90.336C360.805 94.0907 361.616 97.4187 363.237 100.32C364.944 103.136 367.29 105.312 370.277 106.848C373.349 108.299 376.933 109.024 381.029 109.024C384.698 109.024 387.898 108.469 390.629 107.36C393.445 106.251 396.005 104.587 398.309 102.368L408.933 113.888C405.776 117.472 401.808 120.245 397.029 122.208C392.25 124.085 386.746 125.024 380.517 125.024ZM123.572 210.112C129.033 210.112 133.897 211.221 138.164 213.44C142.516 215.573 145.929 218.901 148.404 223.424C150.879 227.861 152.116 233.579 152.116 240.576V280H132.148V243.648C132.148 238.101 130.911 234.005 128.436 231.36C126.047 228.715 122.633 227.392 118.196 227.392C115.039 227.392 112.18 228.075 109.62 229.44C107.145 230.72 105.183 232.725 103.732 235.456C102.367 238.187 101.684 241.685 101.684 245.952V280H81.716V211.136H100.788V230.208L97.204 224.448C99.6787 219.84 103.22 216.299 107.828 213.824C112.436 211.349 117.684 210.112 123.572 210.112ZM198.376 281.024C190.269 281.024 183.955 278.976 179.432 274.88C174.909 270.699 172.648 264.512 172.648 256.32V195.904H192.616V256.064C192.616 258.965 193.384 261.227 194.92 262.848C196.456 264.384 198.547 265.152 201.192 265.152C204.349 265.152 207.037 264.299 209.256 262.592L214.632 276.672C212.584 278.123 210.109 279.232 207.208 280C204.392 280.683 201.448 281.024 198.376 281.024ZM162.024 228.032V212.672H209.768V228.032H162.024ZM257.892 281.024C250.041 281.024 243.129 279.488 237.156 276.416C231.268 273.344 226.703 269.163 223.46 263.872C220.217 258.496 218.596 252.395 218.596 245.568C218.596 238.656 220.175 232.555 223.332 227.264C226.575 221.888 230.969 217.707 236.516 214.72C242.063 211.648 248.335 210.112 255.332 210.112C262.073 210.112 268.132 211.563 273.508 214.464C278.969 217.28 283.279 221.376 286.436 226.752C289.593 232.043 291.172 238.4 291.172 245.824C291.172 246.592 291.129 247.488 291.044 248.512C290.959 249.451 290.873 250.347 290.788 251.2H234.852V239.552H280.292L272.612 243.008C272.612 239.424 271.887 236.309 270.436 233.664C268.985 231.019 266.98 228.971 264.42 227.52C261.86 225.984 258.873 225.216 255.46 225.216C252.047 225.216 249.017 225.984 246.372 227.52C243.812 228.971 241.807 231.061 240.356 233.792C238.905 236.437 238.18 239.595 238.18 243.264V246.336C238.18 250.091 238.991 253.419 240.612 256.32C242.319 259.136 244.665 261.312 247.652 262.848C250.724 264.299 254.308 265.024 258.404 265.024C262.073 265.024 265.273 264.469 268.004 263.36C270.82 262.251 273.38 260.587 275.684 258.368L286.308 269.888C283.151 273.472 279.183 276.245 274.404 278.208C269.625 280.085 264.121 281.024 257.892 281.024ZM304.466 280V185.024H324.434V280H304.466ZM342.966 280V211.136H362.934V280H342.966ZM352.95 201.536C349.281 201.536 346.294 200.469 343.99 198.336C341.686 196.203 340.534 193.557 340.534 190.4C340.534 187.243 341.686 184.597 343.99 182.464C346.294 180.331 349.281 179.264 352.95 179.264C356.619 179.264 359.606 180.288 361.91 182.336C364.214 184.299 365.366 186.859 365.366 190.016C365.366 193.344 364.214 196.117 361.91 198.336C359.691 200.469 356.705 201.536 352.95 201.536ZM413.85 305.856C407.365 305.856 401.093 305.045 395.034 303.424C389.061 301.888 384.069 299.541 380.058 296.384L387.994 282.048C390.895 284.437 394.565 286.315 399.002 287.68C403.525 289.131 407.962 289.856 412.314 289.856C419.397 289.856 424.517 288.277 427.674 285.12C430.917 281.963 432.538 277.269 432.538 271.04V260.672L433.818 243.392L433.562 225.984V211.136H452.506V268.48C452.506 281.28 449.178 290.709 442.522 296.768C435.866 302.827 426.309 305.856 413.85 305.856ZM410.778 276.672C404.378 276.672 398.575 275.307 393.37 272.576C388.25 269.76 384.111 265.877 380.954 260.928C377.882 255.893 376.346 250.048 376.346 243.392C376.346 236.651 377.882 230.805 380.954 225.856C384.111 220.821 388.25 216.939 393.37 214.208C398.575 211.477 404.378 210.112 410.778 210.112C416.581 210.112 421.701 211.307 426.138 213.696C430.575 216 434.031 219.627 436.506 224.576C438.981 229.44 440.218 235.712 440.218 243.392C440.218 250.987 438.981 257.259 436.506 262.208C434.031 267.072 430.575 270.699 426.138 273.088C421.701 275.477 416.581 276.672 410.778 276.672ZM414.746 260.288C418.245 260.288 421.359 259.605 424.09 258.24C426.821 256.789 428.954 254.784 430.49 252.224C432.026 249.664 432.794 246.72 432.794 243.392C432.794 239.979 432.026 237.035 430.49 234.56C428.954 232 426.821 230.037 424.09 228.672C421.359 227.221 418.245 226.496 414.746 226.496C411.247 226.496 408.133 227.221 405.402 228.672C402.671 230.037 400.495 232 398.874 234.56C397.338 237.035 396.57 239.979 396.57 243.392C396.57 246.72 397.338 249.664 398.874 252.224C400.495 254.784 402.671 256.789 405.402 258.24C408.133 259.605 411.247 260.288 414.746 260.288ZM505.267 281.024C497.416 281.024 490.504 279.488 484.531 276.416C478.643 273.344 474.078 269.163 470.835 263.872C467.592 258.496 465.971 252.395 465.971 245.568C465.971 238.656 467.55 232.555 470.707 227.264C473.95 221.888 478.344 217.707 483.891 214.72C489.438 211.648 495.71 210.112 502.707 210.112C509.448 210.112 515.507 211.563 520.883 214.464C526.344 217.28 530.654 221.376 533.811 226.752C536.968 232.043 538.547 238.4 538.547 245.824C538.547 246.592 538.504 247.488 538.419 248.512C538.334 249.451 538.248 250.347 538.163 251.2H482.227V239.552H527.667L519.987 243.008C519.987 239.424 519.262 236.309 517.811 233.664C516.36 231.019 514.355 228.971 511.795 227.52C509.235 225.984 506.248 225.216 502.835 225.216C499.422 225.216 496.392 225.984 493.747 227.52C491.187 228.971 489.182 231.061 487.731 233.792C486.28 236.437 485.555 239.595 485.555 243.264V246.336C485.555 250.091 486.366 253.419 487.987 256.32C489.694 259.136 492.04 261.312 495.027 262.848C498.099 264.299 501.683 265.024 505.779 265.024C509.448 265.024 512.648 264.469 515.379 263.36C518.195 262.251 520.755 260.587 523.059 258.368L533.683 269.888C530.526 273.472 526.558 276.245 521.779 278.208C517 280.085 511.496 281.024 505.267 281.024ZM593.697 210.112C599.158 210.112 604.022 211.221 608.289 213.44C612.641 215.573 616.054 218.901 618.529 223.424C621.004 227.861 622.241 233.579 622.241 240.576V280H602.273V243.648C602.273 238.101 601.036 234.005 598.561 231.36C596.172 228.715 592.758 227.392 588.321 227.392C585.164 227.392 582.305 228.075 579.745 229.44C577.27 230.72 575.308 232.725 573.857 235.456C572.492 238.187 571.809 241.685 571.809 245.952V280H551.841V211.136H570.913V230.208L567.329 224.448C569.804 219.84 573.345 216.299 577.953 213.824C582.561 211.349 587.809 210.112 593.697 210.112ZM668.501 281.024C660.394 281.024 654.08 278.976 649.557 274.88C645.034 270.699 642.773 264.512 642.773 256.32V195.904H662.741V256.064C662.741 258.965 663.509 261.227 665.045 262.848C666.581 264.384 668.672 265.152 671.317 265.152C674.474 265.152 677.162 264.299 679.381 262.592L684.757 276.672C682.709 278.123 680.234 279.232 677.333 280C674.517 280.683 671.573 281.024 668.501 281.024ZM632.149 228.032V212.672H679.893V228.032H632.149ZM728.017 281.024C720.166 281.024 713.254 279.488 707.281 276.416C701.393 273.344 696.828 269.163 693.585 263.872C690.342 258.496 688.721 252.395 688.721 245.568C688.721 238.656 690.3 232.555 693.457 227.264C696.7 221.888 701.094 217.707 706.641 214.72C712.188 211.648 718.46 210.112 725.457 210.112C732.198 210.112 738.257 211.563 743.633 214.464C749.094 217.28 753.404 221.376 756.561 226.752C759.718 232.043 761.297 238.4 761.297 245.824C761.297 246.592 761.254 247.488 761.169 248.512C761.084 249.451 760.998 250.347 760.913 251.2H704.977V239.552H750.417L742.737 243.008C742.737 239.424 742.012 236.309 740.561 233.664C739.11 231.019 737.105 228.971 734.545 227.52C731.985 225.984 728.998 225.216 725.585 225.216C722.172 225.216 719.142 225.984 716.497 227.52C713.937 228.971 711.932 231.061 710.481 233.792C709.03 236.437 708.305 239.595 708.305 243.264V246.336C708.305 250.091 709.116 253.419 710.737 256.32C712.444 259.136 714.79 261.312 717.777 262.848C720.849 264.299 724.433 265.024 728.529 265.024C732.198 265.024 735.398 264.469 738.129 263.36C740.945 262.251 743.505 260.587 745.809 258.368L756.433 269.888C753.276 273.472 749.308 276.245 744.529 278.208C739.75 280.085 734.246 281.024 728.017 281.024Z" fill="white"/>
<rect x="26.2861" y="180.079" width="27.3857" height="100.414" fill="white"/>
<rect x="9.63953" y="186.919" width="41.7885" height="13.6928" transform="rotate(44.7475 9.63953 186.919)" fill="white"/>
<rect x="19.4397" y="139" width="41.0785" height="34.2321" rx="17.1161" fill="white"/>
</svg>
