<svg width="415" height="478" viewBox="0 0 415 478" fill="none" xmlns="http://www.w3.org/2000/svg">
<rect width="415" height="478" rx="25" fill="#9A46CA"/>
<path d="M46.676 71.298V67.8H52.055C53.155 67.8 54.002 67.525 54.596 66.975C55.212 66.403 55.52 65.622 55.52 64.632C55.52 63.73 55.212 62.982 54.596 62.388C54.002 61.772 53.155 61.464 52.055 61.464H46.676V57.801H52.451C53.947 57.801 55.256 58.098 56.378 58.692C57.522 59.264 58.402 60.056 59.018 61.068C59.656 62.08 59.975 63.246 59.975 64.566C59.975 65.93 59.656 67.118 59.018 68.13C58.402 69.12 57.522 69.901 56.378 70.473C55.234 71.023 53.903 71.298 52.385 71.298H46.676ZM43.376 81V57.801H47.864V81H43.376ZM56.048 81L48.392 70.968L52.517 69.681L61.493 81H56.048ZM70.0831 81.33C68.4111 81.33 66.9261 80.978 65.6281 80.274C64.3301 79.548 63.2961 78.558 62.5261 77.304C61.7781 76.05 61.4041 74.62 61.4041 73.014C61.4041 71.43 61.7671 70.022 62.4931 68.79C63.2411 67.536 64.2531 66.546 65.5291 65.82C66.8051 65.072 68.2241 64.698 69.7861 64.698C71.3261 64.698 72.6791 65.05 73.8451 65.754C75.0331 66.436 75.9571 67.382 76.6171 68.592C77.2991 69.78 77.6401 71.133 77.6401 72.651C77.6401 72.937 77.6181 73.234 77.5741 73.542C77.5521 73.828 77.4971 74.158 77.4091 74.532L64.0111 74.565V71.331L75.3961 71.298L73.6471 72.651C73.6031 71.705 73.4271 70.913 73.1191 70.275C72.8331 69.637 72.4041 69.153 71.8321 68.823C71.2821 68.471 70.6001 68.295 69.7861 68.295C68.9281 68.295 68.1801 68.493 67.5421 68.889C66.9041 69.263 66.4091 69.802 66.0571 70.506C65.7271 71.188 65.5621 72.002 65.5621 72.948C65.5621 73.916 65.7381 74.763 66.0901 75.489C66.4641 76.193 66.9921 76.743 67.6741 77.139C68.3561 77.513 69.1481 77.7 70.0501 77.7C70.8641 77.7 71.6011 77.568 72.2611 77.304C72.9211 77.018 73.4931 76.6 73.9771 76.05L76.5181 78.591C75.7481 79.493 74.8021 80.175 73.6801 80.637C72.5801 81.099 71.3811 81.33 70.0831 81.33ZM85.1316 81.363C84.2296 81.363 83.3386 81.242 82.4586 81C81.6006 80.758 80.8086 80.428 80.0826 80.01C79.3566 79.57 78.7296 79.042 78.2016 78.426L80.7756 75.819C81.3256 76.435 81.9636 76.897 82.6896 77.205C83.4156 77.513 84.2186 77.667 85.0986 77.667C85.8026 77.667 86.3306 77.568 86.6826 77.37C87.0566 77.172 87.2436 76.875 87.2436 76.479C87.2436 76.039 87.0456 75.698 86.6496 75.456C86.2756 75.214 85.7806 75.016 85.1646 74.862C84.5486 74.686 83.8996 74.499 83.2176 74.301C82.5576 74.081 81.9196 73.806 81.3036 73.476C80.6876 73.124 80.1816 72.651 79.7856 72.057C79.4116 71.441 79.2246 70.649 79.2246 69.681C79.2246 68.669 79.4666 67.789 79.9506 67.041C80.4566 66.293 81.1716 65.71 82.0956 65.292C83.0196 64.874 84.1086 64.665 85.3626 64.665C86.6826 64.665 87.8706 64.896 88.9266 65.358C90.0046 65.82 90.8956 66.513 91.5996 67.437L88.9926 70.044C88.5086 69.45 87.9586 69.021 87.3426 68.757C86.7486 68.493 86.0996 68.361 85.3956 68.361C84.7576 68.361 84.2626 68.46 83.9106 68.658C83.5806 68.856 83.4156 69.131 83.4156 69.483C83.4156 69.879 83.6026 70.187 83.9766 70.407C84.3726 70.627 84.8786 70.825 85.4946 71.001C86.1106 71.155 86.7486 71.342 87.4086 71.562C88.0906 71.76 88.7286 72.046 89.3226 72.42C89.9386 72.794 90.4336 73.289 90.8076 73.905C91.2036 74.521 91.4016 75.313 91.4016 76.281C91.4016 77.843 90.8406 79.086 89.7186 80.01C88.5966 80.912 87.0676 81.363 85.1316 81.363ZM100.455 81.33C99.0467 81.33 97.7927 81.033 96.6927 80.439C95.6147 79.845 94.7677 79.02 94.1517 77.964C93.5357 76.908 93.2277 75.687 93.2277 74.301V65.061H97.5837V74.202C97.5837 74.862 97.6937 75.434 97.9137 75.918C98.1337 76.38 98.4637 76.732 98.9037 76.974C99.3437 77.216 99.8607 77.337 100.455 77.337C101.357 77.337 102.061 77.062 102.567 76.512C103.073 75.962 103.326 75.192 103.326 74.202V65.061H107.649V74.301C107.649 75.709 107.341 76.941 106.725 77.997C106.131 79.053 105.284 79.878 104.184 80.472C103.106 81.044 101.863 81.33 100.455 81.33ZM110.431 81V65.061H114.754V81H110.431ZM120.826 81V71.595C120.826 70.671 120.529 69.956 119.935 69.45C119.363 68.922 118.648 68.658 117.79 68.658C117.218 68.658 116.701 68.779 116.239 69.021C115.777 69.241 115.414 69.571 115.15 70.011C114.886 70.451 114.754 70.979 114.754 71.595L113.071 70.77C113.071 69.538 113.335 68.471 113.863 67.569C114.413 66.667 115.15 65.974 116.074 65.49C116.998 64.984 118.043 64.731 119.209 64.731C120.309 64.731 121.31 64.984 122.212 65.49C123.114 65.974 123.829 66.667 124.357 67.569C124.885 68.449 125.149 69.516 125.149 70.77V81H120.826ZM131.221 81V71.595C131.221 70.671 130.924 69.956 130.33 69.45C129.758 68.922 129.043 68.658 128.185 68.658C127.635 68.658 127.118 68.779 126.634 69.021C126.172 69.241 125.809 69.571 125.545 70.011C125.281 70.451 125.149 70.979 125.149 71.595L122.674 71.001C122.762 69.725 123.103 68.625 123.697 67.701C124.291 66.755 125.072 66.029 126.04 65.523C127.008 64.995 128.086 64.731 129.274 64.731C130.462 64.731 131.529 64.984 132.475 65.49C133.421 65.974 134.169 66.678 134.719 67.602C135.269 68.526 135.544 69.626 135.544 70.902V81H131.221ZM145.879 81.33C144.273 81.33 142.821 80.967 141.523 80.241C140.247 79.493 139.224 78.492 138.454 77.238C137.706 75.962 137.332 74.543 137.332 72.981C137.332 71.419 137.706 70.022 138.454 68.79C139.202 67.536 140.225 66.546 141.523 65.82C142.821 65.072 144.262 64.698 145.846 64.698C147.474 64.698 148.926 65.072 150.202 65.82C151.5 66.546 152.523 67.536 153.271 68.79C154.019 70.022 154.393 71.419 154.393 72.981C154.393 74.543 154.019 75.962 153.271 77.238C152.523 78.492 151.5 79.493 150.202 80.241C148.926 80.967 147.485 81.33 145.879 81.33ZM145.846 77.304C146.66 77.304 147.375 77.128 147.991 76.776C148.629 76.402 149.113 75.896 149.443 75.258C149.795 74.598 149.971 73.85 149.971 73.014C149.971 72.178 149.795 71.441 149.443 70.803C149.091 70.165 148.607 69.67 147.991 69.318C147.375 68.944 146.66 68.757 145.846 68.757C145.054 68.757 144.35 68.944 143.734 69.318C143.118 69.67 142.634 70.165 142.282 70.803C141.93 71.441 141.754 72.178 141.754 73.014C141.754 73.85 141.93 74.598 142.282 75.258C142.634 75.896 143.118 76.402 143.734 76.776C144.35 77.128 145.054 77.304 145.846 77.304ZM161.995 81.363C161.093 81.363 160.202 81.242 159.322 81C158.464 80.758 157.672 80.428 156.946 80.01C156.22 79.57 155.593 79.042 155.065 78.426L157.639 75.819C158.189 76.435 158.827 76.897 159.553 77.205C160.279 77.513 161.082 77.667 161.962 77.667C162.666 77.667 163.194 77.568 163.546 77.37C163.92 77.172 164.107 76.875 164.107 76.479C164.107 76.039 163.909 75.698 163.513 75.456C163.139 75.214 162.644 75.016 162.028 74.862C161.412 74.686 160.763 74.499 160.081 74.301C159.421 74.081 158.783 73.806 158.167 73.476C157.551 73.124 157.045 72.651 156.649 72.057C156.275 71.441 156.088 70.649 156.088 69.681C156.088 68.669 156.33 67.789 156.814 67.041C157.32 66.293 158.035 65.71 158.959 65.292C159.883 64.874 160.972 64.665 162.226 64.665C163.546 64.665 164.734 64.896 165.79 65.358C166.868 65.82 167.759 66.513 168.463 67.437L165.856 70.044C165.372 69.45 164.822 69.021 164.206 68.757C163.612 68.493 162.963 68.361 162.259 68.361C161.621 68.361 161.126 68.46 160.774 68.658C160.444 68.856 160.279 69.131 160.279 69.483C160.279 69.879 160.466 70.187 160.84 70.407C161.236 70.627 161.742 70.825 162.358 71.001C162.974 71.155 163.612 71.342 164.272 71.562C164.954 71.76 165.592 72.046 166.186 72.42C166.802 72.794 167.297 73.289 167.671 73.905C168.067 74.521 168.265 75.313 168.265 76.281C168.265 77.843 167.704 79.086 166.582 80.01C165.46 80.912 163.931 81.363 161.995 81.363ZM180.067 81V77.337H186.106C187.184 77.337 188.02 77.007 188.614 76.347C189.23 75.687 189.538 74.906 189.538 74.004C189.538 73.388 189.406 72.827 189.142 72.321C188.878 71.815 188.482 71.419 187.954 71.133C187.448 70.825 186.832 70.671 186.106 70.671H180.067V67.041H185.611C186.535 67.041 187.272 66.81 187.822 66.348C188.394 65.886 188.68 65.193 188.68 64.269C188.68 63.323 188.394 62.619 187.822 62.157C187.272 61.695 186.535 61.464 185.611 61.464H180.067V57.801H186.139C187.679 57.801 188.966 58.087 190 58.659C191.056 59.209 191.848 59.946 192.376 60.87C192.904 61.772 193.168 62.762 193.168 63.84C193.168 65.16 192.761 66.304 191.947 67.272C191.155 68.218 189.989 68.922 188.449 69.384L188.647 67.932C190.363 68.416 191.683 69.219 192.607 70.341C193.553 71.441 194.026 72.772 194.026 74.334C194.026 75.566 193.718 76.688 193.102 77.7C192.508 78.69 191.628 79.493 190.462 80.109C189.318 80.703 187.921 81 186.271 81H180.067ZM176.767 81V57.801H181.222V81H176.767ZM203.129 81.33C201.677 81.33 200.368 80.967 199.202 80.241C198.036 79.515 197.123 78.525 196.463 77.271C195.803 76.017 195.473 74.609 195.473 73.047C195.473 71.463 195.803 70.044 196.463 68.79C197.123 67.536 198.036 66.546 199.202 65.82C200.368 65.094 201.677 64.731 203.129 64.731C204.273 64.731 205.296 64.962 206.198 65.424C207.1 65.886 207.815 66.535 208.343 67.371C208.893 68.185 209.19 69.109 209.234 70.143V75.885C209.19 76.941 208.893 77.876 208.343 78.69C207.815 79.504 207.1 80.153 206.198 80.637C205.296 81.099 204.273 81.33 203.129 81.33ZM203.921 77.337C205.131 77.337 206.11 76.941 206.858 76.149C207.606 75.335 207.98 74.29 207.98 73.014C207.98 72.178 207.804 71.441 207.452 70.803C207.122 70.143 206.649 69.637 206.033 69.285C205.439 68.911 204.735 68.724 203.921 68.724C203.129 68.724 202.425 68.911 201.809 69.285C201.215 69.637 200.742 70.143 200.39 70.803C200.06 71.441 199.895 72.178 199.895 73.014C199.895 73.872 200.06 74.631 200.39 75.291C200.742 75.929 201.215 76.435 201.809 76.809C202.425 77.161 203.129 77.337 203.921 77.337ZM207.749 81V76.71L208.442 72.816L207.749 68.988V65.061H212.039V81H207.749ZM220.682 81.363C219.78 81.363 218.889 81.242 218.009 81C217.151 80.758 216.359 80.428 215.633 80.01C214.907 79.57 214.28 79.042 213.752 78.426L216.326 75.819C216.876 76.435 217.514 76.897 218.24 77.205C218.966 77.513 219.769 77.667 220.649 77.667C221.353 77.667 221.881 77.568 222.233 77.37C222.607 77.172 222.794 76.875 222.794 76.479C222.794 76.039 222.596 75.698 222.2 75.456C221.826 75.214 221.331 75.016 220.715 74.862C220.099 74.686 219.45 74.499 218.768 74.301C218.108 74.081 217.47 73.806 216.854 73.476C216.238 73.124 215.732 72.651 215.336 72.057C214.962 71.441 214.775 70.649 214.775 69.681C214.775 68.669 215.017 67.789 215.501 67.041C216.007 66.293 216.722 65.71 217.646 65.292C218.57 64.874 219.659 64.665 220.913 64.665C222.233 64.665 223.421 64.896 224.477 65.358C225.555 65.82 226.446 66.513 227.15 67.437L224.543 70.044C224.059 69.45 223.509 69.021 222.893 68.757C222.299 68.493 221.65 68.361 220.946 68.361C220.308 68.361 219.813 68.46 219.461 68.658C219.131 68.856 218.966 69.131 218.966 69.483C218.966 69.879 219.153 70.187 219.527 70.407C219.923 70.627 220.429 70.825 221.045 71.001C221.661 71.155 222.299 71.342 222.959 71.562C223.641 71.76 224.279 72.046 224.873 72.42C225.489 72.794 225.984 73.289 226.358 73.905C226.754 74.521 226.952 75.313 226.952 76.281C226.952 77.843 226.391 79.086 225.269 80.01C224.147 80.912 222.618 81.363 220.682 81.363ZM236.83 81.33C235.158 81.33 233.673 80.978 232.375 80.274C231.077 79.548 230.043 78.558 229.273 77.304C228.525 76.05 228.151 74.62 228.151 73.014C228.151 71.43 228.514 70.022 229.24 68.79C229.988 67.536 231 66.546 232.276 65.82C233.552 65.072 234.971 64.698 236.533 64.698C238.073 64.698 239.426 65.05 240.592 65.754C241.78 66.436 242.704 67.382 243.364 68.592C244.046 69.78 244.387 71.133 244.387 72.651C244.387 72.937 244.365 73.234 244.321 73.542C244.299 73.828 244.244 74.158 244.156 74.532L230.758 74.565V71.331L242.143 71.298L240.394 72.651C240.35 71.705 240.174 70.913 239.866 70.275C239.58 69.637 239.151 69.153 238.579 68.823C238.029 68.471 237.347 68.295 236.533 68.295C235.675 68.295 234.927 68.493 234.289 68.889C233.651 69.263 233.156 69.802 232.804 70.506C232.474 71.188 232.309 72.002 232.309 72.948C232.309 73.916 232.485 74.763 232.837 75.489C233.211 76.193 233.739 76.743 234.421 77.139C235.103 77.513 235.895 77.7 236.797 77.7C237.611 77.7 238.348 77.568 239.008 77.304C239.668 77.018 240.24 76.6 240.724 76.05L243.265 78.591C242.495 79.493 241.549 80.175 240.427 80.637C239.327 81.099 238.128 81.33 236.83 81.33ZM253.132 81.33C251.658 81.33 250.338 80.967 249.172 80.241C248.006 79.515 247.082 78.525 246.4 77.271C245.74 76.017 245.41 74.609 245.41 73.047C245.41 71.463 245.74 70.044 246.4 68.79C247.082 67.536 247.995 66.546 249.139 65.82C250.305 65.094 251.636 64.731 253.132 64.731C254.276 64.731 255.299 64.962 256.201 65.424C257.125 65.886 257.862 66.535 258.412 67.371C258.984 68.185 259.292 69.109 259.336 70.143V75.819C259.292 76.853 258.995 77.788 258.445 78.624C257.895 79.46 257.158 80.12 256.234 80.604C255.31 81.088 254.276 81.33 253.132 81.33ZM253.858 77.337C254.672 77.337 255.376 77.161 255.97 76.809C256.586 76.435 257.059 75.929 257.389 75.291C257.741 74.631 257.917 73.872 257.917 73.014C257.917 72.178 257.741 71.441 257.389 70.803C257.059 70.143 256.586 69.637 255.97 69.285C255.376 68.911 254.683 68.724 253.891 68.724C253.077 68.724 252.362 68.911 251.746 69.285C251.152 69.659 250.679 70.165 250.327 70.803C249.997 71.441 249.832 72.178 249.832 73.014C249.832 73.872 249.997 74.631 250.327 75.291C250.679 75.929 251.163 76.435 251.779 76.809C252.395 77.161 253.088 77.337 253.858 77.337ZM261.976 81H257.686V76.71L258.379 72.816L257.653 68.988V57.141H261.976V81ZM272.632 81.33C271.026 81.33 269.574 80.967 268.276 80.241C267 79.493 265.977 78.492 265.207 77.238C264.459 75.962 264.085 74.543 264.085 72.981C264.085 71.419 264.459 70.022 265.207 68.79C265.955 67.536 266.978 66.546 268.276 65.82C269.574 65.072 271.015 64.698 272.599 64.698C274.227 64.698 275.679 65.072 276.955 65.82C278.253 66.546 279.276 67.536 280.024 68.79C280.772 70.022 281.146 71.419 281.146 72.981C281.146 74.543 280.772 75.962 280.024 77.238C279.276 78.492 278.253 79.493 276.955 80.241C275.679 80.967 274.238 81.33 272.632 81.33ZM272.599 77.304C273.413 77.304 274.128 77.128 274.744 76.776C275.382 76.402 275.866 75.896 276.196 75.258C276.548 74.598 276.724 73.85 276.724 73.014C276.724 72.178 276.548 71.441 276.196 70.803C275.844 70.165 275.36 69.67 274.744 69.318C274.128 68.944 273.413 68.757 272.599 68.757C271.807 68.757 271.103 68.944 270.487 69.318C269.871 69.67 269.387 70.165 269.035 70.803C268.683 71.441 268.507 72.178 268.507 73.014C268.507 73.85 268.683 74.598 269.035 75.258C269.387 75.896 269.871 76.402 270.487 76.776C271.103 77.128 271.807 77.304 272.599 77.304ZM288.747 81.363C287.845 81.363 286.954 81.242 286.074 81C285.216 80.758 284.424 80.428 283.698 80.01C282.972 79.57 282.345 79.042 281.817 78.426L284.391 75.819C284.941 76.435 285.579 76.897 286.305 77.205C287.031 77.513 287.834 77.667 288.714 77.667C289.418 77.667 289.946 77.568 290.298 77.37C290.672 77.172 290.859 76.875 290.859 76.479C290.859 76.039 290.661 75.698 290.265 75.456C289.891 75.214 289.396 75.016 288.78 74.862C288.164 74.686 287.515 74.499 286.833 74.301C286.173 74.081 285.535 73.806 284.919 73.476C284.303 73.124 283.797 72.651 283.401 72.057C283.027 71.441 282.84 70.649 282.84 69.681C282.84 68.669 283.082 67.789 283.566 67.041C284.072 66.293 284.787 65.71 285.711 65.292C286.635 64.874 287.724 64.665 288.978 64.665C290.298 64.665 291.486 64.896 292.542 65.358C293.62 65.82 294.511 66.513 295.215 67.437L292.608 70.044C292.124 69.45 291.574 69.021 290.958 68.757C290.364 68.493 289.715 68.361 289.011 68.361C288.373 68.361 287.878 68.46 287.526 68.658C287.196 68.856 287.031 69.131 287.031 69.483C287.031 69.879 287.218 70.187 287.592 70.407C287.988 70.627 288.494 70.825 289.11 71.001C289.726 71.155 290.364 71.342 291.024 71.562C291.706 71.76 292.344 72.046 292.938 72.42C293.554 72.794 294.049 73.289 294.423 73.905C294.819 74.521 295.017 75.313 295.017 76.281C295.017 77.843 294.456 79.086 293.334 80.01C292.212 80.912 290.683 81.363 288.747 81.363ZM43.376 123V99.801H46.511L47.864 104.289V123H43.376ZM59.414 123L45.653 105.18L46.511 99.801L60.272 117.621L59.414 123ZM59.414 123L58.127 118.644V99.801H62.648V123H59.414ZM73.7216 123.33C72.1156 123.33 70.6636 122.967 69.3656 122.241C68.0896 121.493 67.0666 120.492 66.2966 119.238C65.5486 117.962 65.1746 116.543 65.1746 114.981C65.1746 113.419 65.5486 112.022 66.2966 110.79C67.0446 109.536 68.0676 108.546 69.3656 107.82C70.6636 107.072 72.1046 106.698 73.6886 106.698C75.3166 106.698 76.7686 107.072 78.0446 107.82C79.3426 108.546 80.3656 109.536 81.1136 110.79C81.8616 112.022 82.2356 113.419 82.2356 114.981C82.2356 116.543 81.8616 117.962 81.1136 119.238C80.3656 120.492 79.3426 121.493 78.0446 122.241C76.7686 122.967 75.3276 123.33 73.7216 123.33ZM73.6886 119.304C74.5026 119.304 75.2176 119.128 75.8336 118.776C76.4716 118.402 76.9556 117.896 77.2856 117.258C77.6376 116.598 77.8136 115.85 77.8136 115.014C77.8136 114.178 77.6376 113.441 77.2856 112.803C76.9336 112.165 76.4496 111.67 75.8336 111.318C75.2176 110.944 74.5026 110.757 73.6886 110.757C72.8966 110.757 72.1926 110.944 71.5766 111.318C70.9606 111.67 70.4766 112.165 70.1246 112.803C69.7726 113.441 69.5966 114.178 69.5966 115.014C69.5966 115.85 69.7726 116.598 70.1246 117.258C70.4766 117.896 70.9606 118.402 71.5766 118.776C72.1926 119.128 72.8966 119.304 73.6886 119.304ZM89.8366 123.363C88.9346 123.363 88.0436 123.242 87.1636 123C86.3056 122.758 85.5136 122.428 84.7876 122.01C84.0616 121.57 83.4346 121.042 82.9066 120.426L85.4806 117.819C86.0306 118.435 86.6686 118.897 87.3946 119.205C88.1206 119.513 88.9236 119.667 89.8036 119.667C90.5076 119.667 91.0356 119.568 91.3876 119.37C91.7616 119.172 91.9486 118.875 91.9486 118.479C91.9486 118.039 91.7506 117.698 91.3546 117.456C90.9806 117.214 90.4856 117.016 89.8696 116.862C89.2536 116.686 88.6046 116.499 87.9226 116.301C87.2626 116.081 86.6246 115.806 86.0086 115.476C85.3926 115.124 84.8866 114.651 84.4906 114.057C84.1166 113.441 83.9296 112.649 83.9296 111.681C83.9296 110.669 84.1716 109.789 84.6556 109.041C85.1616 108.293 85.8766 107.71 86.8006 107.292C87.7246 106.874 88.8136 106.665 90.0676 106.665C91.3876 106.665 92.5756 106.896 93.6316 107.358C94.7096 107.82 95.6006 108.513 96.3046 109.437L93.6976 112.044C93.2136 111.45 92.6636 111.021 92.0476 110.757C91.4536 110.493 90.8046 110.361 90.1006 110.361C89.4626 110.361 88.9676 110.46 88.6156 110.658C88.2856 110.856 88.1206 111.131 88.1206 111.483C88.1206 111.879 88.3076 112.187 88.6816 112.407C89.0776 112.627 89.5836 112.825 90.1996 113.001C90.8156 113.155 91.4536 113.342 92.1136 113.562C92.7956 113.76 93.4336 114.046 94.0276 114.42C94.6436 114.794 95.1386 115.289 95.5126 115.905C95.9086 116.521 96.1066 117.313 96.1066 118.281C96.1066 119.843 95.5456 121.086 94.4236 122.01C93.3016 122.912 91.7726 123.363 89.8366 123.363ZM111.341 123.33C109.471 123.33 107.865 123.011 106.523 122.373C105.203 121.735 104.004 120.778 102.926 119.502L105.896 116.532C106.578 117.434 107.37 118.138 108.272 118.644C109.174 119.128 110.274 119.37 111.572 119.37C112.738 119.37 113.662 119.139 114.344 118.677C115.048 118.215 115.4 117.577 115.4 116.763C115.4 116.059 115.202 115.487 114.806 115.047C114.41 114.607 113.882 114.233 113.222 113.925C112.584 113.617 111.869 113.342 111.077 113.1C110.307 112.836 109.526 112.539 108.734 112.209C107.964 111.879 107.249 111.472 106.589 110.988C105.951 110.482 105.434 109.844 105.038 109.074C104.642 108.282 104.444 107.292 104.444 106.104C104.444 104.696 104.785 103.497 105.467 102.507C106.149 101.517 107.084 100.758 108.272 100.23C109.46 99.702 110.802 99.438 112.298 99.438C113.882 99.438 115.312 99.735 116.588 100.329C117.864 100.923 118.909 101.693 119.723 102.639L116.753 105.609C116.071 104.861 115.367 104.311 114.641 103.959C113.937 103.607 113.134 103.431 112.232 103.431C111.198 103.431 110.384 103.629 109.79 104.025C109.196 104.421 108.899 104.993 108.899 105.741C108.899 106.379 109.097 106.896 109.493 107.292C109.889 107.688 110.406 108.029 111.044 108.315C111.704 108.601 112.419 108.876 113.189 109.14C113.981 109.404 114.762 109.701 115.532 110.031C116.324 110.361 117.039 110.79 117.677 111.318C118.337 111.846 118.865 112.528 119.261 113.364C119.657 114.178 119.855 115.19 119.855 116.4C119.855 118.556 119.096 120.25 117.578 121.482C116.06 122.714 113.981 123.33 111.341 123.33ZM129.769 123.33C128.097 123.33 126.612 122.978 125.314 122.274C124.016 121.548 122.982 120.558 122.212 119.304C121.464 118.05 121.09 116.62 121.09 115.014C121.09 113.43 121.453 112.022 122.179 110.79C122.927 109.536 123.939 108.546 125.215 107.82C126.491 107.072 127.91 106.698 129.472 106.698C131.012 106.698 132.365 107.05 133.531 107.754C134.719 108.436 135.643 109.382 136.303 110.592C136.985 111.78 137.326 113.133 137.326 114.651C137.326 114.937 137.304 115.234 137.26 115.542C137.238 115.828 137.183 116.158 137.095 116.532L123.697 116.565V113.331L135.082 113.298L133.333 114.651C133.289 113.705 133.113 112.913 132.805 112.275C132.519 111.637 132.09 111.153 131.518 110.823C130.968 110.471 130.286 110.295 129.472 110.295C128.614 110.295 127.866 110.493 127.228 110.889C126.59 111.263 126.095 111.802 125.743 112.506C125.413 113.188 125.248 114.002 125.248 114.948C125.248 115.916 125.424 116.763 125.776 117.489C126.15 118.193 126.678 118.743 127.36 119.139C128.042 119.513 128.834 119.7 129.736 119.7C130.55 119.7 131.287 119.568 131.947 119.304C132.607 119.018 133.179 118.6 133.663 118.05L136.204 120.591C135.434 121.493 134.488 122.175 133.366 122.637C132.266 123.099 131.067 123.33 129.769 123.33ZM146.138 123.33C144.73 123.33 143.476 123.033 142.376 122.439C141.298 121.845 140.451 121.02 139.835 119.964C139.219 118.908 138.911 117.687 138.911 116.301V107.061H143.267V116.202C143.267 116.862 143.377 117.434 143.597 117.918C143.817 118.38 144.147 118.732 144.587 118.974C145.027 119.216 145.544 119.337 146.138 119.337C147.04 119.337 147.744 119.062 148.25 118.512C148.756 117.962 149.009 117.192 149.009 116.202V107.061H153.332V116.301C153.332 117.709 153.024 118.941 152.408 119.997C151.814 121.053 150.967 121.878 149.867 122.472C148.789 123.044 147.546 123.33 146.138 123.33ZM161.592 123.363C160.69 123.363 159.799 123.242 158.919 123C158.061 122.758 157.269 122.428 156.543 122.01C155.817 121.57 155.19 121.042 154.662 120.426L157.236 117.819C157.786 118.435 158.424 118.897 159.15 119.205C159.876 119.513 160.679 119.667 161.559 119.667C162.263 119.667 162.791 119.568 163.143 119.37C163.517 119.172 163.704 118.875 163.704 118.479C163.704 118.039 163.506 117.698 163.11 117.456C162.736 117.214 162.241 117.016 161.625 116.862C161.009 116.686 160.36 116.499 159.678 116.301C159.018 116.081 158.38 115.806 157.764 115.476C157.148 115.124 156.642 114.651 156.246 114.057C155.872 113.441 155.685 112.649 155.685 111.681C155.685 110.669 155.927 109.789 156.411 109.041C156.917 108.293 157.632 107.71 158.556 107.292C159.48 106.874 160.569 106.665 161.823 106.665C163.143 106.665 164.331 106.896 165.387 107.358C166.465 107.82 167.356 108.513 168.06 109.437L165.453 112.044C164.969 111.45 164.419 111.021 163.803 110.757C163.209 110.493 162.56 110.361 161.856 110.361C161.218 110.361 160.723 110.46 160.371 110.658C160.041 110.856 159.876 111.131 159.876 111.483C159.876 111.879 160.063 112.187 160.437 112.407C160.833 112.627 161.339 112.825 161.955 113.001C162.571 113.155 163.209 113.342 163.869 113.562C164.551 113.76 165.189 114.046 165.783 114.42C166.399 114.794 166.894 115.289 167.268 115.905C167.664 116.521 167.862 117.313 167.862 118.281C167.862 119.843 167.301 121.086 166.179 122.01C165.057 122.912 163.528 123.363 161.592 123.363ZM176.365 123V99.801H180.853V123H176.365ZM179.665 123V119.04H192.502V123H179.665ZM179.665 113.067V109.239H191.347V113.067H179.665ZM179.665 103.761V99.801H192.337V103.761H179.665ZM205.06 123L200.869 116.532L199.978 115.872L193.774 107.061H198.889L202.75 112.902L203.575 113.529L210.142 123H205.06ZM193.444 123L199.945 113.892L202.42 116.829L198.328 123H193.444ZM203.74 115.839L201.199 112.935L204.994 107.061H209.845L203.74 115.839ZM217.955 123.33C216.503 123.33 215.194 122.967 214.028 122.241C212.862 121.515 211.949 120.525 211.289 119.271C210.629 118.017 210.299 116.609 210.299 115.047C210.299 113.463 210.629 112.044 211.289 110.79C211.949 109.536 212.862 108.546 214.028 107.82C215.194 107.094 216.503 106.731 217.955 106.731C219.099 106.731 220.122 106.962 221.024 107.424C221.926 107.886 222.641 108.535 223.169 109.371C223.719 110.185 224.016 111.109 224.06 112.143V117.885C224.016 118.941 223.719 119.876 223.169 120.69C222.641 121.504 221.926 122.153 221.024 122.637C220.122 123.099 219.099 123.33 217.955 123.33ZM218.747 119.337C219.957 119.337 220.936 118.941 221.684 118.149C222.432 117.335 222.806 116.29 222.806 115.014C222.806 114.178 222.63 113.441 222.278 112.803C221.948 112.143 221.475 111.637 220.859 111.285C220.265 110.911 219.561 110.724 218.747 110.724C217.955 110.724 217.251 110.911 216.635 111.285C216.041 111.637 215.568 112.143 215.216 112.803C214.886 113.441 214.721 114.178 214.721 115.014C214.721 115.872 214.886 116.631 215.216 117.291C215.568 117.929 216.041 118.435 216.635 118.809C217.251 119.161 217.955 119.337 218.747 119.337ZM222.575 123V118.71L223.268 114.816L222.575 110.988V107.061H226.865V123H222.575ZM230.029 123V107.061H234.352V123H230.029ZM240.424 123V113.595C240.424 112.671 240.127 111.956 239.533 111.45C238.961 110.922 238.246 110.658 237.388 110.658C236.816 110.658 236.299 110.779 235.837 111.021C235.375 111.241 235.012 111.571 234.748 112.011C234.484 112.451 234.352 112.979 234.352 113.595L232.669 112.77C232.669 111.538 232.933 110.471 233.461 109.569C234.011 108.667 234.748 107.974 235.672 107.49C236.596 106.984 237.641 106.731 238.807 106.731C239.907 106.731 240.908 106.984 241.81 107.49C242.712 107.974 243.427 108.667 243.955 109.569C244.483 110.449 244.747 111.516 244.747 112.77V123H240.424ZM250.819 123V113.595C250.819 112.671 250.522 111.956 249.928 111.45C249.356 110.922 248.641 110.658 247.783 110.658C247.233 110.658 246.716 110.779 246.232 111.021C245.77 111.241 245.407 111.571 245.143 112.011C244.879 112.451 244.747 112.979 244.747 113.595L242.272 113.001C242.36 111.725 242.701 110.625 243.295 109.701C243.889 108.755 244.67 108.029 245.638 107.523C246.606 106.995 247.684 106.731 248.872 106.731C250.06 106.731 251.127 106.984 252.073 107.49C253.019 107.974 253.767 108.678 254.317 109.602C254.867 110.526 255.142 111.626 255.142 112.902V123H250.819ZM265.609 123.33C263.937 123.33 262.452 122.978 261.154 122.274C259.856 121.548 258.822 120.558 258.052 119.304C257.304 118.05 256.93 116.62 256.93 115.014C256.93 113.43 257.293 112.022 258.019 110.79C258.767 109.536 259.779 108.546 261.055 107.82C262.331 107.072 263.75 106.698 265.312 106.698C266.852 106.698 268.205 107.05 269.371 107.754C270.559 108.436 271.483 109.382 272.143 110.592C272.825 111.78 273.166 113.133 273.166 114.651C273.166 114.937 273.144 115.234 273.1 115.542C273.078 115.828 273.023 116.158 272.935 116.532L259.537 116.565V113.331L270.922 113.298L269.173 114.651C269.129 113.705 268.953 112.913 268.645 112.275C268.359 111.637 267.93 111.153 267.358 110.823C266.808 110.471 266.126 110.295 265.312 110.295C264.454 110.295 263.706 110.493 263.068 110.889C262.43 111.263 261.935 111.802 261.583 112.506C261.253 113.188 261.088 114.002 261.088 114.948C261.088 115.916 261.264 116.763 261.616 117.489C261.99 118.193 262.518 118.743 263.2 119.139C263.882 119.513 264.674 119.7 265.576 119.7C266.39 119.7 267.127 119.568 267.787 119.304C268.447 119.018 269.019 118.6 269.503 118.05L272.044 120.591C271.274 121.493 270.328 122.175 269.206 122.637C268.106 123.099 266.907 123.33 265.609 123.33ZM280.658 123.363C279.756 123.363 278.865 123.242 277.985 123C277.127 122.758 276.335 122.428 275.609 122.01C274.883 121.57 274.256 121.042 273.728 120.426L276.302 117.819C276.852 118.435 277.49 118.897 278.216 119.205C278.942 119.513 279.745 119.667 280.625 119.667C281.329 119.667 281.857 119.568 282.209 119.37C282.583 119.172 282.77 118.875 282.77 118.479C282.77 118.039 282.572 117.698 282.176 117.456C281.802 117.214 281.307 117.016 280.691 116.862C280.075 116.686 279.426 116.499 278.744 116.301C278.084 116.081 277.446 115.806 276.83 115.476C276.214 115.124 275.708 114.651 275.312 114.057C274.938 113.441 274.751 112.649 274.751 111.681C274.751 110.669 274.993 109.789 275.477 109.041C275.983 108.293 276.698 107.71 277.622 107.292C278.546 106.874 279.635 106.665 280.889 106.665C282.209 106.665 283.397 106.896 284.453 107.358C285.531 107.82 286.422 108.513 287.126 109.437L284.519 112.044C284.035 111.45 283.485 111.021 282.869 110.757C282.275 110.493 281.626 110.361 280.922 110.361C280.284 110.361 279.789 110.46 279.437 110.658C279.107 110.856 278.942 111.131 278.942 111.483C278.942 111.879 279.129 112.187 279.503 112.407C279.899 112.627 280.405 112.825 281.021 113.001C281.637 113.155 282.275 113.342 282.935 113.562C283.617 113.76 284.255 114.046 284.849 114.42C285.465 114.794 285.96 115.289 286.334 115.905C286.73 116.521 286.928 117.313 286.928 118.281C286.928 119.843 286.367 121.086 285.245 122.01C284.123 122.912 282.594 123.363 280.658 123.363Z" fill="#252B61"/>
<path d="M43.16 157V155.71H46.055C46.825 155.71 47.5 155.545 48.08 155.215C48.66 154.875 49.11 154.41 49.43 153.82C49.76 153.23 49.925 152.55 49.925 151.78C49.925 151.02 49.76 150.345 49.43 149.755C49.1 149.165 48.645 148.705 48.065 148.375C47.485 148.045 46.815 147.88 46.055 147.88H43.175V146.59H46.085C46.845 146.59 47.545 146.72 48.185 146.98C48.835 147.24 49.395 147.605 49.865 148.075C50.345 148.545 50.715 149.095 50.975 149.725C51.245 150.355 51.38 151.045 51.38 151.795C51.38 152.535 51.245 153.225 50.975 153.865C50.715 154.495 50.35 155.045 49.88 155.515C49.41 155.985 48.85 156.35 48.2 156.61C47.56 156.87 46.865 157 46.115 157H43.16ZM42.23 157V146.59H43.64V157H42.23ZM55.8235 157.15C55.1735 157.15 54.5835 156.99 54.0535 156.67C53.5235 156.34 53.1035 155.895 52.7935 155.335C52.4935 154.775 52.3435 154.145 52.3435 153.445C52.3435 152.745 52.4935 152.115 52.7935 151.555C53.1035 150.995 53.5185 150.55 54.0385 150.22C54.5685 149.89 55.1635 149.725 55.8235 149.725C56.3635 149.725 56.8435 149.84 57.2635 150.07C57.6935 150.29 58.0385 150.6 58.2985 151C58.5585 151.39 58.7035 151.845 58.7335 152.365V154.51C58.7035 155.02 58.5585 155.475 58.2985 155.875C58.0485 156.275 57.7085 156.59 57.2785 156.82C56.8585 157.04 56.3735 157.15 55.8235 157.15ZM56.0485 155.875C56.7185 155.875 57.2585 155.65 57.6685 155.2C58.0785 154.74 58.2835 154.155 58.2835 153.445C58.2835 152.955 58.1885 152.53 57.9985 152.17C57.8185 151.8 57.5585 151.515 57.2185 151.315C56.8785 151.105 56.4835 151 56.0335 151C55.5835 151 55.1835 151.105 54.8335 151.315C54.4935 151.525 54.2235 151.815 54.0235 152.185C53.8335 152.545 53.7385 152.96 53.7385 153.43C53.7385 153.91 53.8335 154.335 54.0235 154.705C54.2235 155.065 54.4985 155.35 54.8485 155.56C55.1985 155.77 55.5985 155.875 56.0485 155.875ZM58.1935 157V155.08L58.4485 153.34L58.1935 151.615V149.875H59.5585V157H58.1935ZM63.489 157.15C63.089 157.15 62.709 157.1 62.349 157C61.999 156.89 61.674 156.74 61.374 156.55C61.074 156.35 60.814 156.115 60.594 155.845L61.464 154.975C61.724 155.295 62.024 155.535 62.364 155.695C62.704 155.845 63.084 155.92 63.504 155.92C63.924 155.92 64.249 155.85 64.479 155.71C64.709 155.56 64.824 155.355 64.824 155.095C64.824 154.835 64.729 154.635 64.539 154.495C64.359 154.345 64.124 154.225 63.834 154.135C63.544 154.035 63.234 153.94 62.904 153.85C62.584 153.75 62.279 153.625 61.989 153.475C61.699 153.325 61.459 153.12 61.269 152.86C61.089 152.6 60.999 152.255 60.999 151.825C60.999 151.395 61.104 151.025 61.314 150.715C61.524 150.395 61.814 150.15 62.184 149.98C62.564 149.81 63.019 149.725 63.549 149.725C64.109 149.725 64.604 149.825 65.034 150.025C65.474 150.215 65.834 150.505 66.114 150.895L65.244 151.765C65.044 151.505 64.794 151.305 64.494 151.165C64.204 151.025 63.874 150.955 63.504 150.955C63.114 150.955 62.814 151.025 62.604 151.165C62.404 151.295 62.304 151.48 62.304 151.72C62.304 151.96 62.394 152.145 62.574 152.275C62.754 152.405 62.989 152.515 63.279 152.605C63.579 152.695 63.889 152.79 64.209 152.89C64.529 152.98 64.834 153.105 65.124 153.265C65.414 153.425 65.649 153.64 65.829 153.91C66.019 154.18 66.114 154.535 66.114 154.975C66.114 155.645 65.874 156.175 65.394 156.565C64.924 156.955 64.289 157.15 63.489 157.15ZM72.3654 157V152.845C72.3654 152.305 72.1954 151.86 71.8554 151.51C71.5154 151.16 71.0754 150.985 70.5354 150.985C70.1754 150.985 69.8554 151.065 69.5754 151.225C69.2954 151.385 69.0754 151.605 68.9154 151.885C68.7554 152.165 68.6754 152.485 68.6754 152.845L68.1204 152.53C68.1204 151.99 68.2404 151.51 68.4804 151.09C68.7204 150.67 69.0554 150.34 69.4854 150.1C69.9154 149.85 70.4004 149.725 70.9404 149.725C71.4804 149.725 71.9554 149.845 72.3654 150.085C72.7854 150.325 73.1154 150.66 73.3554 151.09C73.5954 151.52 73.7154 152.015 73.7154 152.575V157H72.3654ZM67.3254 157V146.29H68.6754V157H67.3254ZM78.9931 157.15C78.4531 157.15 77.9631 157.04 77.5231 156.82C77.0931 156.59 76.7481 156.275 76.4881 155.875C76.2281 155.475 76.0831 155.02 76.0531 154.51V152.365C76.0831 151.845 76.2281 151.39 76.4881 151C76.7581 150.6 77.1081 150.29 77.5381 150.07C77.9781 149.84 78.4631 149.725 78.9931 149.725C79.6431 149.725 80.2281 149.89 80.7481 150.22C81.2781 150.55 81.6931 150.995 81.9931 151.555C82.2931 152.115 82.4431 152.745 82.4431 153.445C82.4431 154.145 82.2931 154.775 81.9931 155.335C81.6931 155.895 81.2781 156.34 80.7481 156.67C80.2281 156.99 79.6431 157.15 78.9931 157.15ZM75.2431 157V146.29H76.5931V151.615L76.3381 153.34L76.5931 155.08V157H75.2431ZM78.7681 155.875C79.2181 155.875 79.6131 155.77 79.9531 155.56C80.2931 155.35 80.5631 155.065 80.7631 154.705C80.9631 154.335 81.0631 153.91 81.0631 153.43C81.0631 152.96 80.9631 152.54 80.7631 152.17C80.5631 151.8 80.2931 151.515 79.9531 151.315C79.6131 151.105 79.2231 151 78.7831 151C78.3331 151 77.9381 151.105 77.5981 151.315C77.2581 151.515 76.9931 151.8 76.8031 152.17C76.6131 152.54 76.5181 152.965 76.5181 153.445C76.5181 153.915 76.6081 154.335 76.7881 154.705C76.9781 155.065 77.2431 155.35 77.5831 155.56C77.9331 155.77 78.3281 155.875 78.7681 155.875ZM86.9286 157.15C86.2286 157.15 85.5986 156.985 85.0386 156.655C84.4786 156.325 84.0336 155.88 83.7036 155.32C83.3736 154.75 83.2086 154.115 83.2086 153.415C83.2086 152.725 83.3736 152.105 83.7036 151.555C84.0336 150.995 84.4786 150.55 85.0386 150.22C85.5986 149.89 86.2286 149.725 86.9286 149.725C87.6186 149.725 88.2436 149.89 88.8036 150.22C89.3736 150.54 89.8236 150.98 90.1536 151.54C90.4836 152.1 90.6486 152.725 90.6486 153.415C90.6486 154.115 90.4836 154.75 90.1536 155.32C89.8236 155.88 89.3736 156.325 88.8036 156.655C88.2436 156.985 87.6186 157.15 86.9286 157.15ZM86.9286 155.845C87.3786 155.845 87.7786 155.74 88.1286 155.53C88.4786 155.32 88.7536 155.035 88.9536 154.675C89.1536 154.305 89.2536 153.885 89.2536 153.415C89.2536 152.955 89.1486 152.545 88.9386 152.185C88.7386 151.825 88.4636 151.545 88.1136 151.345C87.7736 151.135 87.3786 151.03 86.9286 151.03C86.4786 151.03 86.0786 151.135 85.7286 151.345C85.3786 151.545 85.1036 151.825 84.9036 152.185C84.7036 152.545 84.6036 152.955 84.6036 153.415C84.6036 153.885 84.7036 154.305 84.9036 154.675C85.1036 155.035 85.3786 155.32 85.7286 155.53C86.0786 155.74 86.4786 155.845 86.9286 155.845ZM94.8997 157.15C94.2497 157.15 93.6597 156.99 93.1297 156.67C92.5997 156.34 92.1797 155.895 91.8697 155.335C91.5697 154.775 91.4197 154.145 91.4197 153.445C91.4197 152.745 91.5697 152.115 91.8697 151.555C92.1797 150.995 92.5947 150.55 93.1147 150.22C93.6447 149.89 94.2397 149.725 94.8997 149.725C95.4397 149.725 95.9197 149.84 96.3397 150.07C96.7697 150.29 97.1147 150.6 97.3747 151C97.6347 151.39 97.7797 151.845 97.8097 152.365V154.51C97.7797 155.02 97.6347 155.475 97.3747 155.875C97.1247 156.275 96.7847 156.59 96.3547 156.82C95.9347 157.04 95.4497 157.15 94.8997 157.15ZM95.1247 155.875C95.7947 155.875 96.3347 155.65 96.7447 155.2C97.1547 154.74 97.3597 154.155 97.3597 153.445C97.3597 152.955 97.2647 152.53 97.0747 152.17C96.8947 151.8 96.6347 151.515 96.2947 151.315C95.9547 151.105 95.5597 151 95.1097 151C94.6597 151 94.2597 151.105 93.9097 151.315C93.5697 151.525 93.2997 151.815 93.0997 152.185C92.9097 152.545 92.8147 152.96 92.8147 153.43C92.8147 153.91 92.9097 154.335 93.0997 154.705C93.2997 155.065 93.5747 155.35 93.9247 155.56C94.2747 155.77 94.6747 155.875 95.1247 155.875ZM97.2697 157V155.08L97.5247 153.34L97.2697 151.615V149.875H98.6347V157H97.2697ZM100.3 157V149.875H101.65V157H100.3ZM101.65 152.935L101.14 152.71C101.14 151.8 101.35 151.075 101.77 150.535C102.19 149.995 102.795 149.725 103.585 149.725C103.945 149.725 104.27 149.79 104.56 149.92C104.85 150.04 105.12 150.245 105.37 150.535L104.485 151.45C104.335 151.29 104.17 151.175 103.99 151.105C103.81 151.035 103.6 151 103.36 151C102.86 151 102.45 151.16 102.13 151.48C101.81 151.8 101.65 152.285 101.65 152.935ZM108.801 157.15C108.141 157.15 107.551 156.99 107.031 156.67C106.511 156.34 106.096 155.895 105.786 155.335C105.486 154.775 105.336 154.145 105.336 153.445C105.336 152.745 105.486 152.115 105.786 151.555C106.096 150.995 106.511 150.55 107.031 150.22C107.551 149.89 108.141 149.725 108.801 149.725C109.331 149.725 109.811 149.84 110.241 150.07C110.671 150.29 111.016 150.6 111.276 151C111.546 151.39 111.696 151.845 111.726 152.365V154.51C111.696 155.02 111.551 155.475 111.291 155.875C111.031 156.275 110.686 156.59 110.256 156.82C109.826 157.04 109.341 157.15 108.801 157.15ZM109.026 155.875C109.476 155.875 109.866 155.77 110.196 155.56C110.536 155.35 110.801 155.065 110.991 154.705C111.181 154.335 111.276 153.915 111.276 153.445C111.276 152.955 111.176 152.53 110.976 152.17C110.786 151.81 110.521 151.525 110.181 151.315C109.851 151.105 109.461 151 109.011 151C108.561 151 108.166 151.105 107.826 151.315C107.486 151.525 107.216 151.815 107.016 152.185C106.826 152.545 106.731 152.96 106.731 153.43C106.731 153.91 106.826 154.335 107.016 154.705C107.216 155.065 107.486 155.35 107.826 155.56C108.176 155.77 108.576 155.875 109.026 155.875ZM112.551 157H111.186V155.08L111.441 153.34L111.186 151.615V146.29H112.551V157ZM116.482 157.15C116.082 157.15 115.702 157.1 115.342 157C114.992 156.89 114.667 156.74 114.367 156.55C114.067 156.35 113.807 156.115 113.587 155.845L114.457 154.975C114.717 155.295 115.017 155.535 115.357 155.695C115.697 155.845 116.077 155.92 116.497 155.92C116.917 155.92 117.242 155.85 117.472 155.71C117.702 155.56 117.817 155.355 117.817 155.095C117.817 154.835 117.722 154.635 117.532 154.495C117.352 154.345 117.117 154.225 116.827 154.135C116.537 154.035 116.227 153.94 115.897 153.85C115.577 153.75 115.272 153.625 114.982 153.475C114.692 153.325 114.452 153.12 114.262 152.86C114.082 152.6 113.992 152.255 113.992 151.825C113.992 151.395 114.097 151.025 114.307 150.715C114.517 150.395 114.807 150.15 115.177 149.98C115.557 149.81 116.012 149.725 116.542 149.725C117.102 149.725 117.597 149.825 118.027 150.025C118.467 150.215 118.827 150.505 119.107 150.895L118.237 151.765C118.037 151.505 117.787 151.305 117.487 151.165C117.197 151.025 116.867 150.955 116.497 150.955C116.107 150.955 115.807 151.025 115.597 151.165C115.397 151.295 115.297 151.48 115.297 151.72C115.297 151.96 115.387 152.145 115.567 152.275C115.747 152.405 115.982 152.515 116.272 152.605C116.572 152.695 116.882 152.79 117.202 152.89C117.522 152.98 117.827 153.105 118.117 153.265C118.407 153.425 118.642 153.64 118.822 153.91C119.012 154.18 119.107 154.535 119.107 154.975C119.107 155.645 118.867 156.175 118.387 156.565C117.917 156.955 117.282 157.15 116.482 157.15ZM123.378 157V146.59H124.788V157H123.378ZM131.745 157V152.845C131.745 152.305 131.575 151.86 131.235 151.51C130.895 151.16 130.455 150.985 129.915 150.985C129.555 150.985 129.235 151.065 128.955 151.225C128.675 151.385 128.455 151.605 128.295 151.885C128.135 152.165 128.055 152.485 128.055 152.845L127.5 152.53C127.5 151.99 127.62 151.51 127.86 151.09C128.1 150.67 128.435 150.34 128.865 150.1C129.295 149.85 129.78 149.725 130.32 149.725C130.86 149.725 131.335 149.86 131.745 150.13C132.165 150.4 132.495 150.755 132.735 151.195C132.975 151.625 133.095 152.085 133.095 152.575V157H131.745ZM126.705 157V149.875H128.055V157H126.705ZM135.63 157V146.89H136.98V157H135.63ZM133.875 151.105V149.875H138.735V151.105H133.875ZM142.838 157.15C142.128 157.15 141.488 156.99 140.918 156.67C140.348 156.34 139.898 155.895 139.568 155.335C139.238 154.775 139.073 154.14 139.073 153.43C139.073 152.73 139.233 152.1 139.553 151.54C139.883 150.98 140.323 150.54 140.873 150.22C141.433 149.89 142.058 149.725 142.748 149.725C143.408 149.725 143.988 149.875 144.488 150.175C144.998 150.475 145.393 150.89 145.673 151.42C145.963 151.95 146.108 152.55 146.108 153.22C146.108 153.32 146.103 153.43 146.093 153.55C146.083 153.66 146.063 153.79 146.033 153.94H140.018V152.815H145.313L144.818 153.25C144.818 152.77 144.733 152.365 144.563 152.035C144.393 151.695 144.153 151.435 143.843 151.255C143.533 151.065 143.158 150.97 142.718 150.97C142.258 150.97 141.853 151.07 141.503 151.27C141.153 151.47 140.883 151.75 140.693 152.11C140.503 152.47 140.408 152.895 140.408 153.385C140.408 153.885 140.508 154.325 140.708 154.705C140.908 155.075 141.193 155.365 141.563 155.575C141.933 155.775 142.358 155.875 142.838 155.875C143.238 155.875 143.603 155.805 143.933 155.665C144.273 155.525 144.563 155.315 144.803 155.035L145.673 155.92C145.333 156.32 144.913 156.625 144.413 156.835C143.923 157.045 143.398 157.15 142.838 157.15ZM147.28 157V149.875H148.63V157H147.28ZM148.63 152.935L148.12 152.71C148.12 151.8 148.33 151.075 148.75 150.535C149.17 149.995 149.775 149.725 150.565 149.725C150.925 149.725 151.25 149.79 151.54 149.92C151.83 150.04 152.1 150.245 152.35 150.535L151.465 151.45C151.315 151.29 151.15 151.175 150.97 151.105C150.79 151.035 150.58 151 150.34 151C149.84 151 149.43 151.16 149.11 151.48C148.79 151.8 148.63 152.285 148.63 152.935ZM155.796 157.15C155.146 157.15 154.556 156.99 154.026 156.67C153.496 156.34 153.076 155.895 152.766 155.335C152.466 154.775 152.316 154.145 152.316 153.445C152.316 152.745 152.466 152.115 152.766 151.555C153.076 150.995 153.491 150.55 154.011 150.22C154.541 149.89 155.136 149.725 155.796 149.725C156.336 149.725 156.816 149.84 157.236 150.07C157.666 150.29 158.011 150.6 158.271 151C158.531 151.39 158.676 151.845 158.706 152.365V154.51C158.676 155.02 158.531 155.475 158.271 155.875C158.021 156.275 157.681 156.59 157.251 156.82C156.831 157.04 156.346 157.15 155.796 157.15ZM156.021 155.875C156.691 155.875 157.231 155.65 157.641 155.2C158.051 154.74 158.256 154.155 158.256 153.445C158.256 152.955 158.161 152.53 157.971 152.17C157.791 151.8 157.531 151.515 157.191 151.315C156.851 151.105 156.456 151 156.006 151C155.556 151 155.156 151.105 154.806 151.315C154.466 151.525 154.196 151.815 153.996 152.185C153.806 152.545 153.711 152.96 153.711 153.43C153.711 153.91 153.806 154.335 153.996 154.705C154.196 155.065 154.471 155.35 154.821 155.56C155.171 155.77 155.571 155.875 156.021 155.875ZM158.166 157V155.08L158.421 153.34L158.166 151.615V149.875H159.531V157H158.166ZM162.262 157V146.89H163.612V157H162.262ZM160.507 151.105V149.875H165.367V151.105H160.507ZM166.405 157V149.875H167.755V157H166.405ZM167.08 148.45C166.83 148.45 166.625 148.37 166.465 148.21C166.305 148.04 166.225 147.83 166.225 147.58C166.225 147.34 166.305 147.14 166.465 146.98C166.625 146.81 166.83 146.725 167.08 146.725C167.33 146.725 167.535 146.81 167.695 146.98C167.855 147.14 167.935 147.34 167.935 147.58C167.935 147.83 167.855 148.04 167.695 148.21C167.535 148.37 167.33 148.45 167.08 148.45ZM171.889 157L168.619 149.875H170.119L172.744 155.89H171.874L174.514 149.875H175.954L172.684 157H171.889ZM179.782 157.15C179.082 157.15 178.452 156.985 177.892 156.655C177.332 156.325 176.887 155.88 176.557 155.32C176.227 154.75 176.062 154.115 176.062 153.415C176.062 152.725 176.227 152.105 176.557 151.555C176.887 150.995 177.332 150.55 177.892 150.22C178.452 149.89 179.082 149.725 179.782 149.725C180.472 149.725 181.097 149.89 181.657 150.22C182.227 150.54 182.677 150.98 183.007 151.54C183.337 152.1 183.502 152.725 183.502 153.415C183.502 154.115 183.337 154.75 183.007 155.32C182.677 155.88 182.227 156.325 181.657 156.655C181.097 156.985 180.472 157.15 179.782 157.15ZM179.782 155.845C180.232 155.845 180.632 155.74 180.982 155.53C181.332 155.32 181.607 155.035 181.807 154.675C182.007 154.305 182.107 153.885 182.107 153.415C182.107 152.955 182.002 152.545 181.792 152.185C181.592 151.825 181.317 151.545 180.967 151.345C180.627 151.135 180.232 151.03 179.782 151.03C179.332 151.03 178.932 151.135 178.582 151.345C178.232 151.545 177.957 151.825 177.757 152.185C177.557 152.545 177.457 152.955 177.457 153.415C177.457 153.885 177.557 154.305 177.757 154.675C177.957 155.035 178.232 155.32 178.582 155.53C178.932 155.74 179.332 155.845 179.782 155.845ZM186.988 157.15C186.588 157.15 186.208 157.1 185.848 157C185.498 156.89 185.173 156.74 184.873 156.55C184.573 156.35 184.313 156.115 184.093 155.845L184.963 154.975C185.223 155.295 185.523 155.535 185.863 155.695C186.203 155.845 186.583 155.92 187.003 155.92C187.423 155.92 187.748 155.85 187.978 155.71C188.208 155.56 188.323 155.355 188.323 155.095C188.323 154.835 188.228 154.635 188.038 154.495C187.858 154.345 187.623 154.225 187.333 154.135C187.043 154.035 186.733 153.94 186.403 153.85C186.083 153.75 185.778 153.625 185.488 153.475C185.198 153.325 184.958 153.12 184.768 152.86C184.588 152.6 184.498 152.255 184.498 151.825C184.498 151.395 184.603 151.025 184.813 150.715C185.023 150.395 185.313 150.15 185.683 149.98C186.063 149.81 186.518 149.725 187.048 149.725C187.608 149.725 188.103 149.825 188.533 150.025C188.973 150.215 189.333 150.505 189.613 150.895L188.743 151.765C188.543 151.505 188.293 151.305 187.993 151.165C187.703 151.025 187.373 150.955 187.003 150.955C186.613 150.955 186.313 151.025 186.103 151.165C185.903 151.295 185.803 151.48 185.803 151.72C185.803 151.96 185.893 152.145 186.073 152.275C186.253 152.405 186.488 152.515 186.778 152.605C187.078 152.695 187.388 152.79 187.708 152.89C188.028 152.98 188.333 153.105 188.623 153.265C188.913 153.425 189.148 153.64 189.328 153.91C189.518 154.18 189.613 154.535 189.613 154.975C189.613 155.645 189.373 156.175 188.893 156.565C188.423 156.955 187.788 157.15 186.988 157.15ZM198.64 157.15C197.9 157.15 197.21 157.015 196.57 156.745C195.93 156.465 195.37 156.08 194.89 155.59C194.41 155.09 194.035 154.515 193.765 153.865C193.495 153.215 193.36 152.52 193.36 151.78C193.36 151.03 193.495 150.335 193.765 149.695C194.035 149.045 194.405 148.475 194.875 147.985C195.355 147.495 195.91 147.115 196.54 146.845C197.18 146.575 197.87 146.44 198.61 146.44C199.35 146.44 200.035 146.575 200.665 146.845C201.305 147.115 201.865 147.495 202.345 147.985C202.825 148.475 203.195 149.045 203.455 149.695C203.725 150.345 203.86 151.045 203.86 151.795C203.86 152.535 203.725 153.23 203.455 153.88C203.195 154.53 202.825 155.1 202.345 155.59C201.875 156.08 201.32 156.465 200.68 156.745C200.05 157.015 199.37 157.15 198.64 157.15ZM203.62 157.735L198.745 152.86L199.66 151.945L204.52 156.82L203.62 157.735ZM198.61 155.8C199.35 155.8 200.005 155.63 200.575 155.29C201.145 154.94 201.59 154.465 201.91 153.865C202.24 153.255 202.405 152.56 202.405 151.78C202.405 151.2 202.31 150.67 202.12 150.19C201.94 149.7 201.68 149.275 201.34 148.915C201 148.555 200.6 148.28 200.14 148.09C199.68 147.89 199.17 147.79 198.61 147.79C197.87 147.79 197.215 147.96 196.645 148.3C196.075 148.64 195.625 149.11 195.295 149.71C194.975 150.31 194.815 151 194.815 151.78C194.815 152.36 194.91 152.9 195.1 153.4C195.29 153.89 195.55 154.315 195.88 154.675C196.22 155.025 196.62 155.3 197.08 155.5C197.55 155.7 198.06 155.8 198.61 155.8ZM208.47 157.15C207.89 157.15 207.365 157.02 206.895 156.76C206.435 156.49 206.075 156.12 205.815 155.65C205.555 155.18 205.425 154.635 205.425 154.015V149.875H206.775V153.955C206.775 154.345 206.84 154.685 206.97 154.975C207.11 155.255 207.31 155.47 207.57 155.62C207.83 155.77 208.135 155.845 208.485 155.845C209.015 155.845 209.43 155.68 209.73 155.35C210.03 155.01 210.18 154.545 210.18 153.955V149.875H211.53V154.015C211.53 154.635 211.4 155.18 211.14 155.65C210.88 156.12 210.52 156.49 210.06 156.76C209.61 157.02 209.08 157.15 208.47 157.15ZM216.34 157.15C215.63 157.15 214.99 156.99 214.42 156.67C213.85 156.34 213.4 155.895 213.07 155.335C212.74 154.775 212.575 154.14 212.575 153.43C212.575 152.73 212.735 152.1 213.055 151.54C213.385 150.98 213.825 150.54 214.375 150.22C214.935 149.89 215.56 149.725 216.25 149.725C216.91 149.725 217.49 149.875 217.99 150.175C218.5 150.475 218.895 150.89 219.175 151.42C219.465 151.95 219.61 152.55 219.61 153.22C219.61 153.32 219.605 153.43 219.595 153.55C219.585 153.66 219.565 153.79 219.535 153.94H213.52V152.815H218.815L218.32 153.25C218.32 152.77 218.235 152.365 218.065 152.035C217.895 151.695 217.655 151.435 217.345 151.255C217.035 151.065 216.66 150.97 216.22 150.97C215.76 150.97 215.355 151.07 215.005 151.27C214.655 151.47 214.385 151.75 214.195 152.11C214.005 152.47 213.91 152.895 213.91 153.385C213.91 153.885 214.01 154.325 214.21 154.705C214.41 155.075 214.695 155.365 215.065 155.575C215.435 155.775 215.86 155.875 216.34 155.875C216.74 155.875 217.105 155.805 217.435 155.665C217.775 155.525 218.065 155.315 218.305 155.035L219.175 155.92C218.835 156.32 218.415 156.625 217.915 156.835C217.425 157.045 216.9 157.15 216.34 157.15ZM224.787 152.47V151.285H227.607C228.217 151.285 228.687 151.13 229.017 150.82C229.347 150.51 229.512 150.09 229.512 149.56C229.512 149.06 229.347 148.645 229.017 148.315C228.697 147.985 228.232 147.82 227.622 147.82H224.787V146.59H227.667C228.327 146.59 228.902 146.72 229.392 146.98C229.882 147.23 230.257 147.575 230.517 148.015C230.787 148.455 230.922 148.96 230.922 149.53C230.922 150.12 230.787 150.635 230.517 151.075C230.257 151.515 229.882 151.86 229.392 152.11C228.902 152.35 228.327 152.47 227.667 152.47H224.787ZM223.842 157V146.59H225.252V157H223.842ZM229.842 157L226.062 152.335L227.397 151.87L231.627 157H229.842ZM235.611 157.15C234.901 157.15 234.261 156.99 233.691 156.67C233.121 156.34 232.671 155.895 232.341 155.335C232.011 154.775 231.846 154.14 231.846 153.43C231.846 152.73 232.006 152.1 232.326 151.54C232.656 150.98 233.096 150.54 233.646 150.22C234.206 149.89 234.831 149.725 235.521 149.725C236.181 149.725 236.761 149.875 237.261 150.175C237.771 150.475 238.166 150.89 238.446 151.42C238.736 151.95 238.881 152.55 238.881 153.22C238.881 153.32 238.876 153.43 238.866 153.55C238.856 153.66 238.836 153.79 238.806 153.94H232.791V152.815H238.086L237.591 153.25C237.591 152.77 237.506 152.365 237.336 152.035C237.166 151.695 236.926 151.435 236.616 151.255C236.306 151.065 235.931 150.97 235.491 150.97C235.031 150.97 234.626 151.07 234.276 151.27C233.926 151.47 233.656 151.75 233.466 152.11C233.276 152.47 233.181 152.895 233.181 153.385C233.181 153.885 233.281 154.325 233.481 154.705C233.681 155.075 233.966 155.365 234.336 155.575C234.706 155.775 235.131 155.875 235.611 155.875C236.011 155.875 236.376 155.805 236.706 155.665C237.046 155.525 237.336 155.315 237.576 155.035L238.446 155.92C238.106 156.32 237.686 156.625 237.186 156.835C236.696 157.045 236.171 157.15 235.611 157.15ZM242.318 157.15C241.918 157.15 241.538 157.1 241.178 157C240.828 156.89 240.503 156.74 240.203 156.55C239.903 156.35 239.643 156.115 239.423 155.845L240.293 154.975C240.553 155.295 240.853 155.535 241.193 155.695C241.533 155.845 241.913 155.92 242.333 155.92C242.753 155.92 243.078 155.85 243.308 155.71C243.538 155.56 243.653 155.355 243.653 155.095C243.653 154.835 243.558 154.635 243.368 154.495C243.188 154.345 242.953 154.225 242.663 154.135C242.373 154.035 242.063 153.94 241.733 153.85C241.413 153.75 241.108 153.625 240.818 153.475C240.528 153.325 240.288 153.12 240.098 152.86C239.918 152.6 239.828 152.255 239.828 151.825C239.828 151.395 239.933 151.025 240.143 150.715C240.353 150.395 240.643 150.15 241.013 149.98C241.393 149.81 241.848 149.725 242.378 149.725C242.938 149.725 243.433 149.825 243.863 150.025C244.303 150.215 244.663 150.505 244.943 150.895L244.073 151.765C243.873 151.505 243.623 151.305 243.323 151.165C243.033 151.025 242.703 150.955 242.333 150.955C241.943 150.955 241.643 151.025 241.433 151.165C241.233 151.295 241.133 151.48 241.133 151.72C241.133 151.96 241.223 152.145 241.403 152.275C241.583 152.405 241.818 152.515 242.108 152.605C242.408 152.695 242.718 152.79 243.038 152.89C243.358 152.98 243.663 153.105 243.953 153.265C244.243 153.425 244.478 153.64 244.658 153.91C244.848 154.18 244.943 154.535 244.943 154.975C244.943 155.645 244.703 156.175 244.223 156.565C243.753 156.955 243.118 157.15 242.318 157.15ZM249.019 157.15C248.439 157.15 247.914 157.02 247.444 156.76C246.984 156.49 246.624 156.12 246.364 155.65C246.104 155.18 245.974 154.635 245.974 154.015V149.875H247.324V153.955C247.324 154.345 247.389 154.685 247.519 154.975C247.659 155.255 247.859 155.47 248.119 155.62C248.379 155.77 248.684 155.845 249.034 155.845C249.564 155.845 249.979 155.68 250.279 155.35C250.579 155.01 250.729 154.545 250.729 153.955V149.875H252.079V154.015C252.079 154.635 251.949 155.18 251.689 155.65C251.429 156.12 251.069 156.49 250.609 156.76C250.159 157.02 249.629 157.15 249.019 157.15ZM253.588 157V149.875H254.938V157H253.588ZM258.403 157V152.695C258.403 152.165 258.238 151.75 257.908 151.45C257.588 151.14 257.183 150.985 256.693 150.985C256.363 150.985 256.068 151.055 255.808 151.195C255.548 151.335 255.338 151.53 255.178 151.78C255.018 152.03 254.938 152.33 254.938 152.68L254.383 152.41C254.383 151.87 254.498 151.4 254.728 151C254.968 150.6 255.293 150.29 255.703 150.07C256.113 149.84 256.573 149.725 257.083 149.725C257.583 149.725 258.033 149.835 258.433 150.055C258.843 150.275 259.163 150.585 259.393 150.985C259.633 151.385 259.753 151.86 259.753 152.41V157H258.403ZM263.218 157V152.695C263.218 152.165 263.053 151.75 262.723 151.45C262.403 151.14 262.003 150.985 261.523 150.985C261.193 150.985 260.893 151.055 260.623 151.195C260.363 151.335 260.153 151.53 259.993 151.78C259.833 152.03 259.753 152.33 259.753 152.68L258.988 152.41C259.018 151.86 259.163 151.39 259.423 151C259.693 150.6 260.038 150.29 260.458 150.07C260.878 149.84 261.338 149.725 261.838 149.725C262.358 149.725 262.823 149.835 263.233 150.055C263.643 150.275 263.968 150.585 264.208 150.985C264.458 151.385 264.583 151.865 264.583 152.425V157H263.218ZM269.42 157.15C268.71 157.15 268.07 156.99 267.5 156.67C266.93 156.34 266.48 155.895 266.15 155.335C265.82 154.775 265.655 154.14 265.655 153.43C265.655 152.73 265.815 152.1 266.135 151.54C266.465 150.98 266.905 150.54 267.455 150.22C268.015 149.89 268.64 149.725 269.33 149.725C269.99 149.725 270.57 149.875 271.07 150.175C271.58 150.475 271.975 150.89 272.255 151.42C272.545 151.95 272.69 152.55 272.69 153.22C272.69 153.32 272.685 153.43 272.675 153.55C272.665 153.66 272.645 153.79 272.615 153.94H266.6V152.815H271.895L271.4 153.25C271.4 152.77 271.315 152.365 271.145 152.035C270.975 151.695 270.735 151.435 270.425 151.255C270.115 151.065 269.74 150.97 269.3 150.97C268.84 150.97 268.435 151.07 268.085 151.27C267.735 151.47 267.465 151.75 267.275 152.11C267.085 152.47 266.99 152.895 266.99 153.385C266.99 153.885 267.09 154.325 267.29 154.705C267.49 155.075 267.775 155.365 268.145 155.575C268.515 155.775 268.94 155.875 269.42 155.875C269.82 155.875 270.185 155.805 270.515 155.665C270.855 155.525 271.145 155.315 271.385 155.035L272.255 155.92C271.915 156.32 271.495 156.625 270.995 156.835C270.505 157.045 269.98 157.15 269.42 157.15ZM273.862 157V149.875H275.212V157H273.862ZM278.677 157V152.695C278.677 152.165 278.512 151.75 278.182 151.45C277.862 151.14 277.457 150.985 276.967 150.985C276.637 150.985 276.342 151.055 276.082 151.195C275.822 151.335 275.612 151.53 275.452 151.78C275.292 152.03 275.212 152.33 275.212 152.68L274.657 152.41C274.657 151.87 274.772 151.4 275.002 151C275.242 150.6 275.567 150.29 275.977 150.07C276.387 149.84 276.847 149.725 277.357 149.725C277.857 149.725 278.307 149.835 278.707 150.055C279.117 150.275 279.437 150.585 279.667 150.985C279.907 151.385 280.027 151.86 280.027 152.41V157H278.677ZM283.492 157V152.695C283.492 152.165 283.327 151.75 282.997 151.45C282.677 151.14 282.277 150.985 281.797 150.985C281.467 150.985 281.167 151.055 280.897 151.195C280.637 151.335 280.427 151.53 280.267 151.78C280.107 152.03 280.027 152.33 280.027 152.68L279.262 152.41C279.292 151.86 279.437 151.39 279.697 151C279.967 150.6 280.312 150.29 280.732 150.07C281.152 149.84 281.612 149.725 282.112 149.725C282.632 149.725 283.097 149.835 283.507 150.055C283.917 150.275 284.242 150.585 284.482 150.985C284.732 151.385 284.857 151.865 284.857 152.425V157H283.492ZM45.125 176.15C44.305 176.15 43.605 176 43.025 175.7C42.445 175.4 41.93 174.965 41.48 174.395L42.44 173.435C42.77 173.895 43.15 174.245 43.58 174.485C44.01 174.715 44.54 174.83 45.17 174.83C45.79 174.83 46.285 174.695 46.655 174.425C47.035 174.155 47.225 173.785 47.225 173.315C47.225 172.925 47.135 172.61 46.955 172.37C46.775 172.13 46.53 171.935 46.22 171.785C45.92 171.625 45.59 171.485 45.23 171.365C44.87 171.235 44.51 171.1 44.15 170.96C43.79 170.81 43.46 170.63 43.16 170.42C42.86 170.2 42.615 169.915 42.425 169.565C42.245 169.215 42.155 168.775 42.155 168.245C42.155 167.655 42.295 167.155 42.575 166.745C42.865 166.325 43.255 166.005 43.745 165.785C44.245 165.555 44.805 165.44 45.425 165.44C46.105 165.44 46.715 165.575 47.255 165.845C47.795 166.105 48.235 166.45 48.575 166.88L47.615 167.84C47.305 167.48 46.97 167.21 46.61 167.03C46.26 166.85 45.855 166.76 45.395 166.76C44.835 166.76 44.39 166.885 44.06 167.135C43.73 167.375 43.565 167.715 43.565 168.155C43.565 168.505 43.655 168.79 43.835 169.01C44.025 169.22 44.27 169.4 44.57 169.55C44.87 169.7 45.2 169.84 45.56 169.97C45.93 170.09 46.295 170.225 46.655 170.375C47.015 170.525 47.345 170.715 47.645 170.945C47.945 171.175 48.185 171.475 48.365 171.845C48.555 172.205 48.65 172.66 48.65 173.21C48.65 174.13 48.33 174.85 47.69 175.37C47.06 175.89 46.205 176.15 45.125 176.15ZM52.8753 176.15C52.2953 176.15 51.7703 176.02 51.3003 175.76C50.8403 175.49 50.4803 175.12 50.2203 174.65C49.9603 174.18 49.8303 173.635 49.8303 173.015V168.875H51.1803V172.955C51.1803 173.345 51.2453 173.685 51.3753 173.975C51.5153 174.255 51.7153 174.47 51.9753 174.62C52.2353 174.77 52.5403 174.845 52.8903 174.845C53.4203 174.845 53.8353 174.68 54.1353 174.35C54.4353 174.01 54.5853 173.545 54.5853 172.955V168.875H55.9353V173.015C55.9353 173.635 55.8053 174.18 55.5453 174.65C55.2853 175.12 54.9253 175.49 54.4653 175.76C54.0153 176.02 53.4853 176.15 52.8753 176.15ZM60.4747 176.15C59.8247 176.15 59.2347 175.99 58.7047 175.67C58.1747 175.34 57.7547 174.895 57.4447 174.335C57.1447 173.775 56.9947 173.145 56.9947 172.445C56.9947 171.745 57.1447 171.115 57.4447 170.555C57.7547 169.995 58.1697 169.55 58.6897 169.22C59.2197 168.89 59.8147 168.725 60.4747 168.725C61.0147 168.725 61.4947 168.84 61.9147 169.07C62.3447 169.29 62.6897 169.6 62.9497 170C63.2097 170.39 63.3547 170.845 63.3847 171.365V173.51C63.3547 174.02 63.2097 174.475 62.9497 174.875C62.6997 175.275 62.3597 175.59 61.9297 175.82C61.5097 176.04 61.0247 176.15 60.4747 176.15ZM60.6997 174.875C61.3697 174.875 61.9097 174.65 62.3197 174.2C62.7297 173.74 62.9347 173.155 62.9347 172.445C62.9347 171.955 62.8397 171.53 62.6497 171.17C62.4697 170.8 62.2097 170.515 61.8697 170.315C61.5297 170.105 61.1347 170 60.6847 170C60.2347 170 59.8347 170.105 59.4847 170.315C59.1447 170.525 58.8747 170.815 58.6747 171.185C58.4847 171.545 58.3897 171.96 58.3897 172.43C58.3897 172.91 58.4847 173.335 58.6747 173.705C58.8747 174.065 59.1497 174.35 59.4997 174.56C59.8497 174.77 60.2497 174.875 60.6997 174.875ZM62.8447 176V174.08L63.0997 172.34L62.8447 170.615V168.875H64.2097V176H62.8447ZM71.8303 176.15C71.0103 176.15 70.3103 176 69.7303 175.7C69.1503 175.4 68.6353 174.965 68.1853 174.395L69.1453 173.435C69.4753 173.895 69.8553 174.245 70.2853 174.485C70.7153 174.715 71.2453 174.83 71.8753 174.83C72.4953 174.83 72.9903 174.695 73.3603 174.425C73.7403 174.155 73.9303 173.785 73.9303 173.315C73.9303 172.925 73.8403 172.61 73.6603 172.37C73.4803 172.13 73.2353 171.935 72.9253 171.785C72.6253 171.625 72.2953 171.485 71.9353 171.365C71.5753 171.235 71.2153 171.1 70.8553 170.96C70.4953 170.81 70.1653 170.63 69.8653 170.42C69.5653 170.2 69.3203 169.915 69.1303 169.565C68.9503 169.215 68.8603 168.775 68.8603 168.245C68.8603 167.655 69.0003 167.155 69.2803 166.745C69.5703 166.325 69.9603 166.005 70.4503 165.785C70.9503 165.555 71.5103 165.44 72.1303 165.44C72.8103 165.44 73.4203 165.575 73.9603 165.845C74.5003 166.105 74.9403 166.45 75.2803 166.88L74.3203 167.84C74.0103 167.48 73.6753 167.21 73.3153 167.03C72.9653 166.85 72.5603 166.76 72.1003 166.76C71.5403 166.76 71.0953 166.885 70.7653 167.135C70.4353 167.375 70.2703 167.715 70.2703 168.155C70.2703 168.505 70.3603 168.79 70.5403 169.01C70.7303 169.22 70.9753 169.4 71.2753 169.55C71.5753 169.7 71.9053 169.84 72.2653 169.97C72.6353 170.09 73.0003 170.225 73.3603 170.375C73.7203 170.525 74.0503 170.715 74.3503 170.945C74.6503 171.175 74.8903 171.475 75.0703 171.845C75.2603 172.205 75.3553 172.66 75.3553 173.21C75.3553 174.13 75.0353 174.85 74.3953 175.37C73.7653 175.89 72.9103 176.15 71.8303 176.15ZM79.643 176.15C78.993 176.15 78.403 175.99 77.873 175.67C77.343 175.34 76.923 174.895 76.613 174.335C76.313 173.775 76.163 173.145 76.163 172.445C76.163 171.745 76.313 171.115 76.613 170.555C76.923 169.995 77.338 169.55 77.858 169.22C78.388 168.89 78.983 168.725 79.643 168.725C80.183 168.725 80.663 168.84 81.083 169.07C81.513 169.29 81.858 169.6 82.118 170C82.378 170.39 82.523 170.845 82.553 171.365V173.51C82.523 174.02 82.378 174.475 82.118 174.875C81.868 175.275 81.528 175.59 81.098 175.82C80.678 176.04 80.193 176.15 79.643 176.15ZM79.868 174.875C80.538 174.875 81.078 174.65 81.488 174.2C81.898 173.74 82.103 173.155 82.103 172.445C82.103 171.955 82.008 171.53 81.818 171.17C81.638 170.8 81.378 170.515 81.038 170.315C80.698 170.105 80.303 170 79.853 170C79.403 170 79.003 170.105 78.653 170.315C78.313 170.525 78.043 170.815 77.843 171.185C77.653 171.545 77.558 171.96 77.558 172.43C77.558 172.91 77.653 173.335 77.843 173.705C78.043 174.065 78.318 174.35 78.668 174.56C79.018 174.77 79.418 174.875 79.868 174.875ZM82.013 176V174.08L82.268 172.34L82.013 170.615V168.875H83.378V176H82.013ZM87.9085 176.15C87.3285 176.15 86.8035 176.02 86.3335 175.76C85.8735 175.49 85.5135 175.12 85.2535 174.65C84.9935 174.18 84.8635 173.635 84.8635 173.015V168.875H86.2135V172.955C86.2135 173.345 86.2785 173.685 86.4085 173.975C86.5485 174.255 86.7485 174.47 87.0085 174.62C87.2685 174.77 87.5735 174.845 87.9235 174.845C88.4535 174.845 88.8685 174.68 89.1685 174.35C89.4685 174.01 89.6185 173.545 89.6185 172.955V168.875H90.9685V173.015C90.9685 173.635 90.8385 174.18 90.5785 174.65C90.3185 175.12 89.9585 175.49 89.4985 175.76C89.0485 176.02 88.5185 176.15 87.9085 176.15ZM87.0385 167.81L86.4235 167.195L88.3735 164.78L89.4385 165.845L87.0385 167.81ZM95.4929 176.15C94.8329 176.15 94.2429 175.99 93.7229 175.67C93.2029 175.34 92.7879 174.895 92.4779 174.335C92.1779 173.775 92.0279 173.145 92.0279 172.445C92.0279 171.745 92.1779 171.115 92.4779 170.555C92.7879 169.995 93.2029 169.55 93.7229 169.22C94.2429 168.89 94.8329 168.725 95.4929 168.725C96.0229 168.725 96.5029 168.84 96.9329 169.07C97.3629 169.29 97.7079 169.6 97.9679 170C98.2379 170.39 98.3879 170.845 98.4179 171.365V173.51C98.3879 174.02 98.2429 174.475 97.9829 174.875C97.7229 175.275 97.3779 175.59 96.9479 175.82C96.5179 176.04 96.0329 176.15 95.4929 176.15ZM95.7179 174.875C96.1679 174.875 96.5579 174.77 96.8879 174.56C97.2279 174.35 97.4929 174.065 97.6829 173.705C97.8729 173.335 97.9679 172.915 97.9679 172.445C97.9679 171.955 97.8679 171.53 97.6679 171.17C97.4779 170.81 97.2129 170.525 96.8729 170.315C96.5429 170.105 96.1529 170 95.7029 170C95.2529 170 94.8579 170.105 94.5179 170.315C94.1779 170.525 93.9079 170.815 93.7079 171.185C93.5179 171.545 93.4229 171.96 93.4229 172.43C93.4229 172.91 93.5179 173.335 93.7079 173.705C93.9079 174.065 94.1779 174.35 94.5179 174.56C94.8679 174.77 95.2679 174.875 95.7179 174.875ZM99.2429 176H97.8779V174.08L98.1329 172.34L97.8779 170.615V165.29H99.2429V176ZM104.208 176.15C103.498 176.15 102.858 175.99 102.288 175.67C101.718 175.34 101.268 174.895 100.938 174.335C100.608 173.775 100.443 173.14 100.443 172.43C100.443 171.73 100.603 171.1 100.923 170.54C101.253 169.98 101.693 169.54 102.243 169.22C102.803 168.89 103.428 168.725 104.118 168.725C104.778 168.725 105.358 168.875 105.858 169.175C106.368 169.475 106.763 169.89 107.043 170.42C107.333 170.95 107.478 171.55 107.478 172.22C107.478 172.32 107.473 172.43 107.463 172.55C107.453 172.66 107.433 172.79 107.403 172.94H101.388V171.815H106.683L106.188 172.25C106.188 171.77 106.103 171.365 105.933 171.035C105.763 170.695 105.523 170.435 105.213 170.255C104.903 170.065 104.528 169.97 104.088 169.97C103.628 169.97 103.223 170.07 102.873 170.27C102.523 170.47 102.253 170.75 102.063 171.11C101.873 171.47 101.778 171.895 101.778 172.385C101.778 172.885 101.878 173.325 102.078 173.705C102.278 174.075 102.563 174.365 102.933 174.575C103.303 174.775 103.728 174.875 104.208 174.875C104.608 174.875 104.973 174.805 105.303 174.665C105.643 174.525 105.933 174.315 106.173 174.035L107.043 174.92C106.703 175.32 106.283 175.625 105.783 175.835C105.293 176.045 104.768 176.15 104.208 176.15Z" fill="#252B61"/>
<rect x="325" y="60" width="60" height="60" rx="30" fill="#252B61"/>
<path d="M348 90H362" stroke="white" stroke-width="2" stroke-linecap="round" stroke-linejoin="round"/>
<path d="M355 83L362 90L355 97" stroke="white" stroke-width="2" stroke-linecap="round" stroke-linejoin="round"/>
<g clip-path="url(#clip0_15_213)">
<path d="M216.92 189.163H123.474V291.547H216.92V189.163Z" fill="#F2F2F2"/>
<path d="M226.34 179.376H132.894V281.76H226.34V179.376Z" stroke="#3F3D56" stroke-width="2" stroke-miterlimit="10"/>
<path d="M142.831 270.21H137.793V275.243H142.831V270.21Z" fill="#6C63FF"/>
<path d="M150.108 270.21H145.07V275.243H150.108V270.21Z" fill="#3F3D56"/>
<path d="M157.386 270.21H152.348V275.243H157.386V270.21Z" fill="#575A89"/>
<path d="M213.905 272.396H194.312V273.189H213.905V272.396Z" fill="#3F3D56"/>
<path d="M213.905 274.776H194.312V275.57H213.905V274.776Z" fill="#3F3D56"/>
<path d="M213.905 277.157H194.312V277.95H213.905V277.157Z" fill="#3F3D56"/>
<path d="M179.617 197.444V205.725C184.535 205.725 189.344 207.182 193.433 209.912C197.523 212.642 200.71 216.522 202.593 221.061C204.475 225.601 204.967 230.596 204.008 235.415C203.048 240.234 200.68 244.661 197.202 248.135L203.063 253.991C207.701 249.358 210.859 243.456 212.138 237.031C213.417 230.605 212.761 223.945 210.251 217.892C207.741 211.84 203.491 206.666 198.039 203.027C192.586 199.387 186.175 197.444 179.617 197.444Z" fill="#3F3D56"/>
<path d="M203.063 253.991L197.202 248.135C192.95 252.383 187.301 254.948 181.302 255.355C175.302 255.761 169.358 253.981 164.571 250.345L159.554 256.94C165.937 261.787 173.863 264.159 181.862 263.617C189.862 263.074 197.394 259.655 203.063 253.991Z" fill="#575A89"/>
<path d="M154.749 230.568C154.749 223.98 157.369 217.661 162.032 213.002C166.696 208.343 173.022 205.725 179.617 205.725V197.444C172.676 197.444 165.91 199.62 160.272 203.666C154.635 207.711 150.41 213.422 148.194 219.993C145.978 226.565 145.882 233.665 147.92 240.294C149.958 246.922 154.027 252.745 159.554 256.94L164.571 250.345C161.516 248.03 159.04 245.04 157.335 241.609C155.631 238.178 154.746 234.399 154.749 230.568Z" fill="#6C63FF"/>
<path d="M241.835 396.152C239.354 396.152 236.899 395.664 234.607 394.716C232.316 393.768 230.234 392.378 228.48 390.626C226.727 388.874 225.335 386.794 224.386 384.505C223.437 382.216 222.949 379.763 222.949 377.285V355.311C222.949 311.343 258.628 275.7 302.641 275.7C346.654 275.7 382.334 311.343 382.334 355.311V372.586C382.334 375.681 381.724 378.745 380.538 381.604C379.353 384.463 377.615 387.061 375.424 389.25C373.234 391.438 370.633 393.174 367.771 394.358C364.909 395.542 361.842 396.152 358.744 396.152" fill="#F2F2F2"/>
<path d="M366.657 419.866V419.113C372.811 419.106 378.711 416.661 383.063 412.313C387.415 407.966 389.863 402.072 389.87 395.924V350.794C389.87 307.104 354.289 271.56 310.554 271.56C266.819 271.56 231.238 307.104 231.238 350.794V400.623C231.244 405.525 233.196 410.225 236.666 413.691C240.135 417.158 244.84 419.107 249.747 419.113V419.866C244.64 419.86 239.744 417.831 236.133 414.223C232.522 410.616 230.49 405.725 230.485 400.623V350.794C230.485 306.689 266.404 270.807 310.554 270.807C354.704 270.807 390.623 306.689 390.623 350.794V395.924C390.616 402.271 388.089 408.357 383.596 412.845C379.102 417.334 373.011 419.859 366.657 419.866Z" fill="#3F3D56"/>
<path d="M391 390.882H230.108V457.13H391V390.882Z" fill="#3F3D56"/>
<path d="M335.14 322.787L319.785 333.692L330.701 349.031L346.056 338.126L335.14 322.787Z" fill="#6C63FF"/>
<path d="M336.376 318.677L321.021 329.582L331.937 344.921L347.292 334.016L336.376 318.677Z" stroke="#3F3D56" stroke-width="2" stroke-miterlimit="10"/>
<path d="M306.598 315.6C310.968 315.6 314.51 312.061 314.51 307.695C314.51 303.33 310.968 299.791 306.598 299.791C302.227 299.791 298.685 303.33 298.685 307.695C298.685 312.061 302.227 315.6 306.598 315.6Z" fill="#6C63FF"/>
<path d="M304.337 314.471C308.707 314.471 312.25 310.932 312.25 306.566C312.25 302.2 308.707 298.661 304.337 298.661C299.967 298.661 296.424 302.2 296.424 306.566C296.424 310.932 299.967 314.471 304.337 314.471Z" stroke="#3F3D56" stroke-width="2" stroke-miterlimit="10"/>
<path d="M283.211 339.284L292.682 344.729L302.152 350.175L292.696 355.645L283.24 361.115L283.226 350.199L283.211 339.284Z" fill="#6C63FF"/>
<path d="M281.689 343.418L291.159 348.864L300.63 354.309L291.174 359.779L281.718 365.249L281.703 354.334L281.689 343.418Z" stroke="#3F3D56" stroke-width="2" stroke-miterlimit="10"/>
<path d="M244.59 321.556C246.026 316.431 248.679 311.729 252.323 307.847C255.968 303.966 260.496 301.021 265.524 299.262C266.892 298.793 266.304 296.61 264.923 297.084C259.522 298.955 254.654 302.103 250.734 306.26C246.814 310.416 243.958 315.458 242.41 320.956C242.022 322.359 244.203 322.957 244.59 321.556Z" fill="white"/>
<path d="M240.302 333.89C241.757 333.89 241.759 331.631 240.302 331.631C238.847 331.631 238.845 333.89 240.302 333.89Z" fill="white"/>
<path d="M146.403 310.567L111.207 299.41L97.5311 342.464L132.728 353.621L146.403 310.567Z" fill="#F2F2F2"/>
<path d="M130.187 313.678L116.367 309.298L116.125 310.062L129.945 314.442L130.187 313.678Z" fill="#3F3D56"/>
<path d="M136.032 317.083L115.92 310.708L115.677 311.471L135.789 317.847L136.032 317.083Z" fill="#3F3D56"/>
<path d="M128.657 318.496L114.837 314.115L114.595 314.879L128.415 319.26L128.657 318.496Z" fill="#3F3D56"/>
<path d="M126.866 324.136L113.046 319.755L112.803 320.519L126.623 324.899L126.866 324.136Z" fill="#3F3D56"/>
<path d="M134.502 321.9L114.389 315.525L114.147 316.289L134.259 322.664L134.502 321.9Z" fill="#3F3D56"/>
<path d="M134.054 323.31L113.942 316.935L113.699 317.699L133.811 324.074L134.054 323.31Z" fill="#3F3D56"/>
<path d="M133.606 324.72L113.494 318.345L113.251 319.109L133.363 325.484L133.606 324.72Z" fill="#3F3D56"/>
<path d="M119.197 325.455L111.964 323.162L111.329 325.16L118.563 327.453L119.197 325.455Z" fill="#6C63FF"/>
<path d="M73.3604 464C100.621 464 122.721 461.135 122.721 457.601C122.721 454.067 100.621 451.202 73.3604 451.202C46.0994 451.202 24 454.067 24 457.601C24 461.135 46.0994 464 73.3604 464Z" fill="#3F3D56"/>
<path d="M50.0454 280.453L48.4058 284.343L50.2504 309.527C50.2504 309.527 49.2256 310.96 50.2504 311.983C51.2751 313.007 51.0702 313.417 51.0702 313.417C51.0702 313.417 49.4305 313.417 50.2504 314.645C51.0702 315.874 51.0702 316.488 51.0702 316.488L50.6603 317.716C50.6603 317.716 51.4801 318.74 51.4801 319.559C51.4801 320.378 56.8089 345.562 56.8089 345.562L61.9328 335.529L59.0634 295.604L50.0454 280.453Z" fill="#6C63FF"/>
<path d="M102.659 344.494C102.659 344.494 113.85 344.042 117.418 347.986C120.986 351.929 103.4 349.076 102.406 347.965C101.411 346.854 102.659 344.494 102.659 344.494Z" fill="#FFB9B9"/>
<path d="M47.3809 443.839L45.1264 451.21C45.1264 451.21 41.8472 458.376 46.3561 459.4C50.8651 460.424 55.1692 456.534 55.1692 456.534V451.62L56.8089 443.839H47.3809Z" fill="#2F2E41"/>
<path d="M84.2729 443.839C84.2729 443.839 83.2481 457.762 85.5026 458.581C87.7571 459.4 95.7504 459.605 95.9553 458.581C96.1603 457.557 98.6198 456.534 96.7752 455.1C94.9306 453.667 93.7008 445.273 93.7008 445.273L84.2729 443.839Z" fill="#2F2E41"/>
<path d="M63.5723 311.984V318.126C63.5723 318.126 56.8088 332.253 54.3493 354.571C51.8898 376.888 43.4867 444.863 45.5363 446.092C47.5858 447.32 69.7209 448.139 70.3358 446.501C70.9507 444.863 71.5655 396.953 71.5655 396.953L79.1489 363.17C79.1489 363.17 80.5835 375.25 81.8133 377.297C83.043 379.345 79.7637 445.887 81.8133 446.911C83.8628 447.934 111.532 449.777 111.122 446.501C110.712 443.225 101.489 354.366 101.489 354.366C101.489 354.366 96.775 312.393 95.3403 311.984C93.9057 311.574 80.7885 311.165 78.739 311.574C76.6894 311.984 63.5723 311.984 63.5723 311.984Z" fill="#2F2E41"/>
<path d="M79.149 261.207C85.601 261.207 90.8314 255.982 90.8314 249.536C90.8314 243.091 85.601 237.866 79.149 237.866C72.697 237.866 67.4666 243.091 67.4666 249.536C67.4666 255.982 72.697 261.207 79.149 261.207Z" fill="#FFB9B9"/>
<path d="M81.6085 259.364C81.6085 259.364 75.6648 268.577 77.0995 271.034C78.5342 273.491 61.9329 268.577 61.9329 268.577C61.9329 268.577 71.9757 256.293 71.7707 254.86C71.5657 253.426 81.6085 259.364 81.6085 259.364Z" fill="#FFB9B9"/>
<path d="M93.9057 273.082C93.9057 273.082 83.0431 269.601 81.6084 268.168C80.6881 267.229 79.8642 266.2 79.149 265.097C79.149 265.097 66.0319 263.254 65.622 263.254C65.2121 263.254 62.1377 266.94 61.3179 267.759C60.4981 268.578 50.0454 274.106 50.0454 275.539C50.0454 276.972 48.4058 284.343 48.4058 284.343C48.4058 284.343 52.0949 291.918 54.3495 293.556C56.604 295.194 57.2188 294.785 57.4238 297.447C57.6287 300.108 60.4981 304.408 60.4981 304.408C60.4981 304.408 62.3427 309.117 61.9328 310.55C61.5229 311.984 59.6783 313.212 63.9823 312.803C68.2864 312.393 89.6017 313.622 89.6017 311.369C89.6017 309.117 85.5026 287.619 85.5026 287.619L93.9057 273.082Z" fill="#6C63FF"/>
<path d="M90.0117 273.491L93.9058 273.082C93.9058 273.082 95.3405 273.901 95.5455 281.886C95.7504 289.871 95.7504 309.117 97.1851 310.755C98.6198 312.393 104.563 337.781 104.563 337.781C104.563 337.781 106.203 338.191 106.203 339.624C106.203 341.057 108.048 342.286 107.228 343.924C106.408 345.562 108.048 345.152 107.023 346.176C105.998 347.2 101.079 349.247 100.874 348.019C100.669 346.79 101.489 346.585 100.669 346.176C99.8495 345.766 99.8495 345.562 99.6446 344.128C99.4396 342.695 97.595 341.262 97.8 340.648C98.0049 340.034 88.782 322.221 88.782 321.606C88.782 320.992 88.1671 318.74 87.3473 318.331C86.5274 317.921 85.2977 317.512 85.9126 316.488C86.5275 315.464 84.2729 284.752 84.2729 284.752L90.0117 273.491Z" fill="#6C63FF"/>
<path d="M89.0281 242.135C85.4457 238.25 79.8198 236.188 74.6605 237.344C69.5012 238.499 65.1568 243.075 64.7534 248.342C64.6709 249.419 64.7396 250.519 64.4606 251.563C63.9912 253.319 62.5947 254.711 62.1023 256.46C61.7726 257.632 61.8703 258.893 61.5208 260.059C60.875 262.214 58.8761 263.619 57.3526 265.275C56.7356 265.881 56.2774 266.63 56.0183 267.456C55.8844 268.188 55.8504 268.934 55.9174 269.675C55.9816 273.67 54.4951 277.533 51.7698 280.457C53.3723 279.267 55.1036 278.262 56.9311 277.459C56.0253 280.341 56.8534 283.75 59.1325 285.735C61.4117 287.719 65.0622 288.028 67.5265 286.278C68.9905 285.238 69.9413 283.643 70.8495 282.095L74.2881 276.234C74.9101 275.173 75.5594 274.082 76.5532 273.358C77.343 272.783 78.3026 272.477 79.0976 271.908C81.103 270.475 81.6414 267.67 81.268 265.235C80.8946 262.8 79.7985 260.539 79.1698 258.157C78.6726 256.273 78.5166 254.114 79.6351 252.518C81.1199 250.4 84.1713 250.129 86.1889 248.509C86.9485 247.899 87.2878 247.156 87.8319 246.393C88.3341 245.688 88.4621 245.94 89.2403 245.908C91.3771 245.82 89.8199 242.994 89.0281 242.135Z" fill="#2F2E41"/>
<path d="M78.8238 255.845C79.3441 255.845 79.7658 254.833 79.7658 253.586C79.7658 252.339 79.3441 251.328 78.8238 251.328C78.3036 251.328 77.8818 252.339 77.8818 253.586C77.8818 254.833 78.3036 255.845 78.8238 255.845Z" fill="#FFB9B9"/>
<path d="M182.631 416.478C189.291 416.478 194.689 411.085 194.689 404.433C194.689 397.78 189.291 392.388 182.631 392.388C175.972 392.388 170.574 397.78 170.574 404.433C170.574 411.085 175.972 416.478 182.631 416.478Z" fill="#F2F2F2"/>
<path d="M62.0565 209.452C68.7157 209.452 74.114 204.059 74.114 197.407C74.114 190.754 68.7157 185.361 62.0565 185.361C55.3973 185.361 49.999 190.754 49.999 197.407C49.999 204.059 55.3973 209.452 62.0565 209.452Z" fill="#F2F2F2"/>
<path d="M314.51 237.683C321.169 237.683 326.568 232.29 326.568 225.638C326.568 218.985 321.169 213.592 314.51 213.592C307.851 213.592 302.453 218.985 302.453 225.638C302.453 232.29 307.851 237.683 314.51 237.683Z" fill="#F2F2F2"/>
</g>
<defs>
<clipPath id="clip0_15_213">
<rect width="367" height="285" fill="white" transform="translate(24 179)"/>
</clipPath>
</defs>
</svg>
