<svg width="415" height="478" viewBox="0 0 415 478" fill="none" xmlns="http://www.w3.org/2000/svg">
<rect width="415" height="478" rx="25" fill="#29BEDA"/>
<path d="M43.376 81V57.801H46.544L55.949 72.849H54.134L63.506 57.801H66.674V81H62.219V65.49L63.077 65.754L56.543 76.248H53.507L46.973 65.754L47.864 65.49V81H43.376ZM77.9141 81.33C76.2421 81.33 74.7571 80.978 73.4591 80.274C72.1611 79.548 71.1271 78.558 70.3571 77.304C69.6091 76.05 69.2351 74.62 69.2351 73.014C69.2351 71.43 69.5981 70.022 70.3241 68.79C71.0721 67.536 72.0841 66.546 73.3601 65.82C74.6361 65.072 76.0551 64.698 77.6171 64.698C79.1571 64.698 80.5101 65.05 81.6761 65.754C82.8641 66.436 83.7881 67.382 84.4481 68.592C85.1301 69.78 85.4711 71.133 85.4711 72.651C85.4711 72.937 85.4491 73.234 85.4051 73.542C85.3831 73.828 85.3281 74.158 85.2401 74.532L71.8421 74.565V71.331L83.2271 71.298L81.4781 72.651C81.4341 71.705 81.2581 70.913 80.9501 70.275C80.6641 69.637 80.2351 69.153 79.6631 68.823C79.1131 68.471 78.4311 68.295 77.6171 68.295C76.7591 68.295 76.0111 68.493 75.3731 68.889C74.7351 69.263 74.2401 69.802 73.8881 70.506C73.5581 71.188 73.3931 72.002 73.3931 72.948C73.3931 73.916 73.5691 74.763 73.9211 75.489C74.2951 76.193 74.8231 76.743 75.5051 77.139C76.1871 77.513 76.9791 77.7 77.8811 77.7C78.6951 77.7 79.4321 77.568 80.0921 77.304C80.7521 77.018 81.3241 76.6 81.8081 76.05L84.3491 78.591C83.5791 79.493 82.6331 80.175 81.5111 80.637C80.4111 81.099 79.2121 81.33 77.9141 81.33ZM94.2166 81.33C92.7426 81.33 91.4226 80.967 90.2566 80.241C89.0906 79.515 88.1666 78.525 87.4846 77.271C86.8246 76.017 86.4946 74.609 86.4946 73.047C86.4946 71.463 86.8246 70.044 87.4846 68.79C88.1666 67.536 89.0796 66.546 90.2236 65.82C91.3896 65.094 92.7206 64.731 94.2166 64.731C95.3606 64.731 96.3836 64.962 97.2856 65.424C98.2096 65.886 98.9466 66.535 99.4966 67.371C100.069 68.185 100.377 69.109 100.421 70.143V75.819C100.377 76.853 100.08 77.788 99.5296 78.624C98.9796 79.46 98.2426 80.12 97.3186 80.604C96.3946 81.088 95.3606 81.33 94.2166 81.33ZM94.9426 77.337C95.7566 77.337 96.4606 77.161 97.0546 76.809C97.6706 76.435 98.1436 75.929 98.4736 75.291C98.8256 74.631 99.0016 73.872 99.0016 73.014C99.0016 72.178 98.8256 71.441 98.4736 70.803C98.1436 70.143 97.6706 69.637 97.0546 69.285C96.4606 68.911 95.7676 68.724 94.9756 68.724C94.1616 68.724 93.4466 68.911 92.8306 69.285C92.2366 69.659 91.7636 70.165 91.4116 70.803C91.0816 71.441 90.9166 72.178 90.9166 73.014C90.9166 73.872 91.0816 74.631 91.4116 75.291C91.7636 75.929 92.2476 76.435 92.8636 76.809C93.4796 77.161 94.1726 77.337 94.9426 77.337ZM103.061 81H98.7706V76.71L99.4636 72.816L98.7376 68.988V57.141H103.061V81ZM106.225 81V65.061H110.581V81H106.225ZM108.403 62.487C107.699 62.487 107.116 62.256 106.654 61.794C106.192 61.31 105.961 60.716 105.961 60.012C105.961 59.33 106.192 58.747 106.654 58.263C107.116 57.779 107.699 57.537 108.403 57.537C109.129 57.537 109.712 57.779 110.152 58.263C110.614 58.747 110.845 59.33 110.845 60.012C110.845 60.716 110.614 61.31 110.152 61.794C109.712 62.256 109.129 62.487 108.403 62.487ZM121.275 81.33C119.647 81.33 118.184 80.967 116.886 80.241C115.588 79.515 114.565 78.525 113.817 77.271C113.069 76.017 112.695 74.609 112.695 73.047C112.695 71.463 113.069 70.044 113.817 68.79C114.565 67.536 115.588 66.546 116.886 65.82C118.206 65.072 119.669 64.698 121.275 64.698C122.529 64.698 123.684 64.929 124.74 65.391C125.796 65.853 126.709 66.513 127.479 67.371L124.707 70.176C124.289 69.714 123.783 69.362 123.189 69.12C122.617 68.878 121.979 68.757 121.275 68.757C120.483 68.757 119.768 68.944 119.13 69.318C118.514 69.67 118.019 70.165 117.645 70.803C117.293 71.419 117.117 72.156 117.117 73.014C117.117 73.85 117.293 74.598 117.645 75.258C118.019 75.896 118.514 76.402 119.13 76.776C119.768 77.128 120.483 77.304 121.275 77.304C122.001 77.304 122.65 77.183 123.222 76.941C123.816 76.677 124.322 76.303 124.74 75.819L127.545 78.624C126.731 79.504 125.796 80.175 124.74 80.637C123.684 81.099 122.529 81.33 121.275 81.33ZM129.333 81V65.061H133.689V81H129.333ZM131.511 62.487C130.807 62.487 130.224 62.256 129.762 61.794C129.3 61.31 129.069 60.716 129.069 60.012C129.069 59.33 129.3 58.747 129.762 58.263C130.224 57.779 130.807 57.537 131.511 57.537C132.237 57.537 132.82 57.779 133.26 58.263C133.722 58.747 133.953 59.33 133.953 60.012C133.953 60.716 133.722 61.31 133.26 61.794C132.82 62.256 132.237 62.487 131.511 62.487ZM147.583 81V71.859C147.583 70.913 147.286 70.143 146.692 69.549C146.098 68.955 145.328 68.658 144.382 68.658C143.766 68.658 143.216 68.79 142.732 69.054C142.248 69.318 141.863 69.692 141.577 70.176C141.313 70.66 141.181 71.221 141.181 71.859L139.498 71.001C139.498 69.747 139.762 68.658 140.29 67.734C140.84 66.788 141.588 66.051 142.534 65.523C143.502 64.995 144.591 64.731 145.801 64.731C146.967 64.731 148.012 65.028 148.936 65.622C149.86 66.194 150.586 66.953 151.114 67.899C151.642 68.823 151.906 69.824 151.906 70.902V81H147.583ZM136.858 81V65.061H141.181V81H136.858ZM161.395 81.33C159.943 81.33 158.634 80.967 157.468 80.241C156.302 79.515 155.389 78.525 154.729 77.271C154.069 76.017 153.739 74.609 153.739 73.047C153.739 71.463 154.069 70.044 154.729 68.79C155.389 67.536 156.302 66.546 157.468 65.82C158.634 65.094 159.943 64.731 161.395 64.731C162.539 64.731 163.562 64.962 164.464 65.424C165.366 65.886 166.081 66.535 166.609 67.371C167.159 68.185 167.456 69.109 167.5 70.143V75.885C167.456 76.941 167.159 77.876 166.609 78.69C166.081 79.504 165.366 80.153 164.464 80.637C163.562 81.099 162.539 81.33 161.395 81.33ZM162.187 77.337C163.397 77.337 164.376 76.941 165.124 76.149C165.872 75.335 166.246 74.29 166.246 73.014C166.246 72.178 166.07 71.441 165.718 70.803C165.388 70.143 164.915 69.637 164.299 69.285C163.705 68.911 163.001 68.724 162.187 68.724C161.395 68.724 160.691 68.911 160.075 69.285C159.481 69.637 159.008 70.143 158.656 70.803C158.326 71.441 158.161 72.178 158.161 73.014C158.161 73.872 158.326 74.631 158.656 75.291C159.008 75.929 159.481 76.435 160.075 76.809C160.691 77.161 161.395 77.337 162.187 77.337ZM166.015 81V76.71L166.708 72.816L166.015 68.988V65.061H170.305V81H166.015ZM41.858 120.426L50.603 111.285C51.219 110.625 51.714 110.042 52.088 109.536C52.484 109.008 52.77 108.513 52.946 108.051C53.122 107.567 53.21 107.083 53.21 106.599C53.21 105.631 52.891 104.872 52.253 104.322C51.637 103.772 50.834 103.497 49.844 103.497C48.832 103.497 47.93 103.761 47.138 104.289C46.368 104.817 45.642 105.653 44.96 106.797L41.891 104.19C42.815 102.628 43.959 101.451 45.323 100.659C46.709 99.845 48.293 99.438 50.075 99.438C51.593 99.438 52.913 99.735 54.035 100.329C55.179 100.923 56.059 101.748 56.675 102.804C57.291 103.86 57.599 105.092 57.599 106.5C57.599 107.446 57.478 108.304 57.236 109.074C57.016 109.844 56.631 110.614 56.081 111.384C55.553 112.132 54.816 112.979 53.87 113.925L47.501 120.426H41.858ZM41.858 123V120.426L45.686 119.106H58.094V123H41.858ZM59.4052 114.816L67.3252 99.801H72.2752L64.1572 114.816H59.4052ZM59.4052 117.456V114.816L61.0552 113.529H77.6872V117.456H59.4052ZM70.3612 123V108.216H74.7832V123H70.3612ZM90.4753 123V113.859C90.4753 112.913 90.1783 112.143 89.5843 111.549C88.9903 110.955 88.2203 110.658 87.2743 110.658C86.6583 110.658 86.1083 110.79 85.6243 111.054C85.1403 111.318 84.7553 111.692 84.4693 112.176C84.2053 112.66 84.0733 113.221 84.0733 113.859L82.3903 113.001C82.3903 111.747 82.6543 110.658 83.1823 109.734C83.7103 108.788 84.4363 108.051 85.3603 107.523C86.3063 106.995 87.3843 106.731 88.5943 106.731C89.8043 106.731 90.8713 106.995 91.7953 107.523C92.7413 108.051 93.4783 108.777 94.0063 109.701C94.5343 110.625 94.7983 111.692 94.7983 112.902V123H90.4753ZM79.7503 123V99.141H84.0733V123H79.7503ZM107.168 114.387V110.724H112.547C113.251 110.724 113.889 110.581 114.461 110.295C115.033 110.009 115.484 109.602 115.814 109.074C116.144 108.524 116.309 107.864 116.309 107.094C116.309 106.346 116.144 105.697 115.814 105.147C115.484 104.597 115.033 104.179 114.461 103.893C113.889 103.607 113.251 103.464 112.547 103.464H107.168V99.801H113.009C114.483 99.801 115.803 100.098 116.969 100.692C118.157 101.286 119.092 102.133 119.774 103.233C120.456 104.311 120.797 105.598 120.797 107.094C120.797 108.59 120.456 109.888 119.774 110.988C119.092 112.066 118.157 112.902 116.969 113.496C115.803 114.09 114.483 114.387 113.009 114.387H107.168ZM103.868 123V99.801H108.356V123H103.868ZM129.831 123.33C128.225 123.33 126.773 122.967 125.475 122.241C124.199 121.493 123.176 120.492 122.406 119.238C121.658 117.962 121.284 116.543 121.284 114.981C121.284 113.419 121.658 112.022 122.406 110.79C123.154 109.536 124.177 108.546 125.475 107.82C126.773 107.072 128.214 106.698 129.798 106.698C131.426 106.698 132.878 107.072 134.154 107.82C135.452 108.546 136.475 109.536 137.223 110.79C137.971 112.022 138.345 113.419 138.345 114.981C138.345 116.543 137.971 117.962 137.223 119.238C136.475 120.492 135.452 121.493 134.154 122.241C132.878 122.967 131.437 123.33 129.831 123.33ZM129.798 119.304C130.612 119.304 131.327 119.128 131.943 118.776C132.581 118.402 133.065 117.896 133.395 117.258C133.747 116.598 133.923 115.85 133.923 115.014C133.923 114.178 133.747 113.441 133.395 112.803C133.043 112.165 132.559 111.67 131.943 111.318C131.327 110.944 130.612 110.757 129.798 110.757C129.006 110.757 128.302 110.944 127.686 111.318C127.07 111.67 126.586 112.165 126.234 112.803C125.882 113.441 125.706 114.178 125.706 115.014C125.706 115.85 125.882 116.598 126.234 117.258C126.586 117.896 127.07 118.402 127.686 118.776C128.302 119.128 129.006 119.304 129.798 119.304ZM140.468 123V107.061H144.791V123H140.468ZM144.791 114.189L143.108 113.067C143.306 111.109 143.878 109.569 144.824 108.447C145.77 107.303 147.134 106.731 148.916 106.731C149.686 106.731 150.379 106.863 150.995 107.127C151.611 107.369 152.172 107.776 152.678 108.348L149.972 111.45C149.73 111.186 149.433 110.988 149.081 110.856C148.751 110.724 148.366 110.658 147.926 110.658C147.002 110.658 146.243 110.955 145.649 111.549C145.077 112.121 144.791 113.001 144.791 114.189ZM163.433 123V119.007H169.34C170.836 119.007 172.145 118.699 173.267 118.083C174.389 117.445 175.258 116.554 175.874 115.41C176.512 114.266 176.831 112.913 176.831 111.351C176.831 109.833 176.512 108.513 175.874 107.391C175.236 106.247 174.356 105.367 173.234 104.751C172.112 104.113 170.814 103.794 169.34 103.794H163.334V99.801H169.406C171.122 99.801 172.706 100.087 174.158 100.659C175.632 101.231 176.908 102.045 177.986 103.101C179.086 104.135 179.933 105.356 180.527 106.764C181.143 108.172 181.451 109.712 181.451 111.384C181.451 113.056 181.143 114.607 180.527 116.037C179.933 117.445 179.097 118.677 178.019 119.733C176.941 120.767 175.665 121.57 174.191 122.142C172.739 122.714 171.166 123 169.472 123H163.433ZM160.364 123V99.801H164.852V123H160.364ZM183.895 123V107.061H188.251V123H183.895ZM186.073 104.487C185.369 104.487 184.786 104.256 184.324 103.794C183.862 103.31 183.631 102.716 183.631 102.012C183.631 101.33 183.862 100.747 184.324 100.263C184.786 99.779 185.369 99.537 186.073 99.537C186.799 99.537 187.382 99.779 187.822 100.263C188.284 100.747 188.515 101.33 188.515 102.012C188.515 102.716 188.284 103.31 187.822 103.794C187.382 104.256 186.799 104.487 186.073 104.487ZM198.086 123.33C196.634 123.33 195.325 122.967 194.159 122.241C192.993 121.515 192.08 120.525 191.42 119.271C190.76 118.017 190.43 116.609 190.43 115.047C190.43 113.463 190.76 112.044 191.42 110.79C192.08 109.536 192.993 108.546 194.159 107.82C195.325 107.094 196.634 106.731 198.086 106.731C199.23 106.731 200.253 106.962 201.155 107.424C202.057 107.886 202.772 108.535 203.3 109.371C203.85 110.185 204.147 111.109 204.191 112.143V117.885C204.147 118.941 203.85 119.876 203.3 120.69C202.772 121.504 202.057 122.153 201.155 122.637C200.253 123.099 199.23 123.33 198.086 123.33ZM198.878 119.337C200.088 119.337 201.067 118.941 201.815 118.149C202.563 117.335 202.937 116.29 202.937 115.014C202.937 114.178 202.761 113.441 202.409 112.803C202.079 112.143 201.606 111.637 200.99 111.285C200.396 110.911 199.692 110.724 198.878 110.724C198.086 110.724 197.382 110.911 196.766 111.285C196.172 111.637 195.699 112.143 195.347 112.803C195.017 113.441 194.852 114.178 194.852 115.014C194.852 115.872 195.017 116.631 195.347 117.291C195.699 117.929 196.172 118.435 196.766 118.809C197.382 119.161 198.086 119.337 198.878 119.337ZM202.706 123V118.71L203.399 114.816L202.706 110.988V107.061H206.996V123H202.706Z" fill="#252B61"/>
<path d="M46.955 157.15C46.205 157.15 45.51 157.015 44.87 156.745C44.23 156.465 43.67 156.08 43.19 155.59C42.72 155.1 42.355 154.53 42.095 153.88C41.835 153.23 41.705 152.535 41.705 151.795C41.705 151.045 41.835 150.345 42.095 149.695C42.355 149.045 42.72 148.48 43.19 148C43.67 147.51 44.225 147.13 44.855 146.86C45.495 146.58 46.19 146.44 46.94 146.44C47.76 146.44 48.48 146.58 49.1 146.86C49.72 147.14 50.27 147.52 50.75 148L49.775 148.975C49.445 148.605 49.04 148.315 48.56 148.105C48.09 147.895 47.55 147.79 46.94 147.79C46.39 147.79 45.885 147.89 45.425 148.09C44.965 148.28 44.565 148.555 44.225 148.915C43.885 149.275 43.62 149.7 43.43 150.19C43.25 150.68 43.16 151.215 43.16 151.795C43.16 152.375 43.25 152.91 43.43 153.4C43.62 153.89 43.885 154.315 44.225 154.675C44.565 155.035 44.965 155.315 45.425 155.515C45.885 155.705 46.39 155.8 46.94 155.8C47.59 155.8 48.155 155.695 48.635 155.485C49.115 155.265 49.52 154.97 49.85 154.6L50.825 155.56C50.345 156.06 49.78 156.45 49.13 156.73C48.49 157.01 47.765 157.15 46.955 157.15ZM54.8821 157.15C54.3021 157.15 53.7771 157.02 53.3071 156.76C52.8471 156.49 52.4871 156.12 52.2271 155.65C51.9671 155.18 51.8371 154.635 51.8371 154.015V149.875H53.1871V153.955C53.1871 154.345 53.2521 154.685 53.3821 154.975C53.5221 155.255 53.7221 155.47 53.9821 155.62C54.2421 155.77 54.5471 155.845 54.8971 155.845C55.4271 155.845 55.8421 155.68 56.1421 155.35C56.4421 155.01 56.5921 154.545 56.5921 153.955V149.875H57.9421V154.015C57.9421 154.635 57.8121 155.18 57.5521 155.65C57.2921 156.12 56.9321 156.49 56.4721 156.76C56.0221 157.02 55.4921 157.15 54.8821 157.15ZM59.4665 157V149.875H60.8165V157H59.4665ZM60.1415 148.45C59.8915 148.45 59.6865 148.37 59.5265 148.21C59.3665 148.04 59.2865 147.83 59.2865 147.58C59.2865 147.34 59.3665 147.14 59.5265 146.98C59.6865 146.81 59.8915 146.725 60.1415 146.725C60.3915 146.725 60.5965 146.81 60.7565 146.98C60.9165 147.14 60.9965 147.34 60.9965 147.58C60.9965 147.83 60.9165 148.04 60.7565 148.21C60.5965 148.37 60.3915 148.45 60.1415 148.45ZM65.521 157.15C64.861 157.15 64.271 156.99 63.751 156.67C63.231 156.34 62.816 155.895 62.506 155.335C62.206 154.775 62.056 154.145 62.056 153.445C62.056 152.745 62.206 152.115 62.506 151.555C62.816 150.995 63.231 150.55 63.751 150.22C64.271 149.89 64.861 149.725 65.521 149.725C66.051 149.725 66.531 149.84 66.961 150.07C67.391 150.29 67.736 150.6 67.996 151C68.266 151.39 68.416 151.845 68.446 152.365V154.51C68.416 155.02 68.271 155.475 68.011 155.875C67.751 156.275 67.406 156.59 66.976 156.82C66.546 157.04 66.061 157.15 65.521 157.15ZM65.746 155.875C66.196 155.875 66.586 155.77 66.916 155.56C67.256 155.35 67.521 155.065 67.711 154.705C67.901 154.335 67.996 153.915 67.996 153.445C67.996 152.955 67.896 152.53 67.696 152.17C67.506 151.81 67.241 151.525 66.901 151.315C66.571 151.105 66.181 151 65.731 151C65.281 151 64.886 151.105 64.546 151.315C64.206 151.525 63.936 151.815 63.736 152.185C63.546 152.545 63.451 152.96 63.451 153.43C63.451 153.91 63.546 154.335 63.736 154.705C63.936 155.065 64.206 155.35 64.546 155.56C64.896 155.77 65.296 155.875 65.746 155.875ZM69.271 157H67.906V155.08L68.161 153.34L67.906 151.615V146.29H69.271V157ZM73.9665 157.15C73.3165 157.15 72.7265 156.99 72.1965 156.67C71.6665 156.34 71.2465 155.895 70.9365 155.335C70.6365 154.775 70.4865 154.145 70.4865 153.445C70.4865 152.745 70.6365 152.115 70.9365 151.555C71.2465 150.995 71.6615 150.55 72.1815 150.22C72.7115 149.89 73.3065 149.725 73.9665 149.725C74.5065 149.725 74.9865 149.84 75.4065 150.07C75.8365 150.29 76.1815 150.6 76.4415 151C76.7015 151.39 76.8465 151.845 76.8765 152.365V154.51C76.8465 155.02 76.7015 155.475 76.4415 155.875C76.1915 156.275 75.8515 156.59 75.4215 156.82C75.0015 157.04 74.5165 157.15 73.9665 157.15ZM74.1915 155.875C74.8615 155.875 75.4015 155.65 75.8115 155.2C76.2215 154.74 76.4265 154.155 76.4265 153.445C76.4265 152.955 76.3315 152.53 76.1415 152.17C75.9615 151.8 75.7015 151.515 75.3615 151.315C75.0215 151.105 74.6265 151 74.1765 151C73.7265 151 73.3265 151.105 72.9765 151.315C72.6365 151.525 72.3665 151.815 72.1665 152.185C71.9765 152.545 71.8815 152.96 71.8815 153.43C71.8815 153.91 71.9765 154.335 72.1665 154.705C72.3665 155.065 72.6415 155.35 72.9915 155.56C73.3415 155.77 73.7415 155.875 74.1915 155.875ZM76.3365 157V155.08L76.5915 153.34L76.3365 151.615V149.875H77.7015V157H76.3365ZM82.382 157.15C81.722 157.15 81.132 156.99 80.612 156.67C80.092 156.34 79.677 155.895 79.367 155.335C79.067 154.775 78.917 154.145 78.917 153.445C78.917 152.745 79.067 152.115 79.367 151.555C79.677 150.995 80.092 150.55 80.612 150.22C81.132 149.89 81.722 149.725 82.382 149.725C82.912 149.725 83.392 149.84 83.822 150.07C84.252 150.29 84.597 150.6 84.857 151C85.127 151.39 85.277 151.845 85.307 152.365V154.51C85.277 155.02 85.132 155.475 84.872 155.875C84.612 156.275 84.267 156.59 83.837 156.82C83.407 157.04 82.922 157.15 82.382 157.15ZM82.607 155.875C83.057 155.875 83.447 155.77 83.777 155.56C84.117 155.35 84.382 155.065 84.572 154.705C84.762 154.335 84.857 153.915 84.857 153.445C84.857 152.955 84.757 152.53 84.557 152.17C84.367 151.81 84.102 151.525 83.762 151.315C83.432 151.105 83.042 151 82.592 151C82.142 151 81.747 151.105 81.407 151.315C81.067 151.525 80.797 151.815 80.597 152.185C80.407 152.545 80.312 152.96 80.312 153.43C80.312 153.91 80.407 154.335 80.597 154.705C80.797 155.065 81.067 155.35 81.407 155.56C81.757 155.77 82.157 155.875 82.607 155.875ZM86.132 157H84.767V155.08L85.022 153.34L84.767 151.615V146.29H86.132V157ZM91.0524 157.15C90.3524 157.15 89.7224 156.985 89.1624 156.655C88.6024 156.325 88.1574 155.88 87.8274 155.32C87.4974 154.75 87.3324 154.115 87.3324 153.415C87.3324 152.725 87.4974 152.105 87.8274 151.555C88.1574 150.995 88.6024 150.55 89.1624 150.22C89.7224 149.89 90.3524 149.725 91.0524 149.725C91.7424 149.725 92.3674 149.89 92.9274 150.22C93.4974 150.54 93.9474 150.98 94.2774 151.54C94.6074 152.1 94.7724 152.725 94.7724 153.415C94.7724 154.115 94.6074 154.75 94.2774 155.32C93.9474 155.88 93.4974 156.325 92.9274 156.655C92.3674 156.985 91.7424 157.15 91.0524 157.15ZM91.0524 155.845C91.5024 155.845 91.9024 155.74 92.2524 155.53C92.6024 155.32 92.8774 155.035 93.0774 154.675C93.2774 154.305 93.3774 153.885 93.3774 153.415C93.3774 152.955 93.2724 152.545 93.0624 152.185C92.8624 151.825 92.5874 151.545 92.2374 151.345C91.8974 151.135 91.5024 151.03 91.0524 151.03C90.6024 151.03 90.2024 151.135 89.8524 151.345C89.5024 151.545 89.2274 151.825 89.0274 152.185C88.8274 152.545 88.7274 152.955 88.7274 153.415C88.7274 153.885 88.8274 154.305 89.0274 154.675C89.2274 155.035 89.5024 155.32 89.8524 155.53C90.2024 155.74 90.6024 155.845 91.0524 155.845ZM98.2585 157.15C97.8585 157.15 97.4785 157.1 97.1185 157C96.7685 156.89 96.4435 156.74 96.1435 156.55C95.8435 156.35 95.5835 156.115 95.3635 155.845L96.2335 154.975C96.4935 155.295 96.7935 155.535 97.1335 155.695C97.4735 155.845 97.8535 155.92 98.2735 155.92C98.6935 155.92 99.0185 155.85 99.2485 155.71C99.4785 155.56 99.5935 155.355 99.5935 155.095C99.5935 154.835 99.4985 154.635 99.3085 154.495C99.1285 154.345 98.8935 154.225 98.6035 154.135C98.3135 154.035 98.0035 153.94 97.6735 153.85C97.3535 153.75 97.0485 153.625 96.7585 153.475C96.4685 153.325 96.2285 153.12 96.0385 152.86C95.8585 152.6 95.7685 152.255 95.7685 151.825C95.7685 151.395 95.8735 151.025 96.0835 150.715C96.2935 150.395 96.5835 150.15 96.9535 149.98C97.3335 149.81 97.7885 149.725 98.3185 149.725C98.8785 149.725 99.3735 149.825 99.8035 150.025C100.244 150.215 100.604 150.505 100.884 150.895L100.014 151.765C99.8135 151.505 99.5635 151.305 99.2635 151.165C98.9735 151.025 98.6435 150.955 98.2735 150.955C97.8835 150.955 97.5835 151.025 97.3735 151.165C97.1735 151.295 97.0735 151.48 97.0735 151.72C97.0735 151.96 97.1635 152.145 97.3435 152.275C97.5235 152.405 97.7585 152.515 98.0485 152.605C98.3485 152.695 98.6585 152.79 98.9785 152.89C99.2985 152.98 99.6035 153.105 99.8935 153.265C100.184 153.425 100.419 153.64 100.599 153.91C100.789 154.18 100.884 154.535 100.884 154.975C100.884 155.645 100.644 156.175 100.164 156.565C99.6935 156.955 99.0585 157.15 98.2585 157.15ZM106.085 157V155.71H108.98C109.75 155.71 110.425 155.545 111.005 155.215C111.585 154.875 112.035 154.41 112.355 153.82C112.685 153.23 112.85 152.55 112.85 151.78C112.85 151.02 112.685 150.345 112.355 149.755C112.025 149.165 111.57 148.705 110.99 148.375C110.41 148.045 109.74 147.88 108.98 147.88H106.1V146.59H109.01C109.77 146.59 110.47 146.72 111.11 146.98C111.76 147.24 112.32 147.605 112.79 148.075C113.27 148.545 113.64 149.095 113.9 149.725C114.17 150.355 114.305 151.045 114.305 151.795C114.305 152.535 114.17 153.225 113.9 153.865C113.64 154.495 113.275 155.045 112.805 155.515C112.335 155.985 111.775 156.35 111.125 156.61C110.485 156.87 109.79 157 109.04 157H106.085ZM105.155 157V146.59H106.565V157H105.155ZM119.019 157.15C118.309 157.15 117.669 156.99 117.099 156.67C116.529 156.34 116.079 155.895 115.749 155.335C115.419 154.775 115.254 154.14 115.254 153.43C115.254 152.73 115.414 152.1 115.734 151.54C116.064 150.98 116.504 150.54 117.054 150.22C117.614 149.89 118.239 149.725 118.929 149.725C119.589 149.725 120.169 149.875 120.669 150.175C121.179 150.475 121.574 150.89 121.854 151.42C122.144 151.95 122.289 152.55 122.289 153.22C122.289 153.32 122.284 153.43 122.274 153.55C122.264 153.66 122.244 153.79 122.214 153.94H116.199V152.815H121.494L120.999 153.25C120.999 152.77 120.914 152.365 120.744 152.035C120.574 151.695 120.334 151.435 120.024 151.255C119.714 151.065 119.339 150.97 118.899 150.97C118.439 150.97 118.034 151.07 117.684 151.27C117.334 151.47 117.064 151.75 116.874 152.11C116.684 152.47 116.589 152.895 116.589 153.385C116.589 153.885 116.689 154.325 116.889 154.705C117.089 155.075 117.374 155.365 117.744 155.575C118.114 155.775 118.539 155.875 119.019 155.875C119.419 155.875 119.784 155.805 120.114 155.665C120.454 155.525 120.744 155.315 120.984 155.035L121.854 155.92C121.514 156.32 121.094 156.625 120.594 156.835C120.104 157.045 119.579 157.15 119.019 157.15ZM129.416 157.15C128.596 157.15 127.896 157 127.316 156.7C126.736 156.4 126.221 155.965 125.771 155.395L126.731 154.435C127.061 154.895 127.441 155.245 127.871 155.485C128.301 155.715 128.831 155.83 129.461 155.83C130.081 155.83 130.576 155.695 130.946 155.425C131.326 155.155 131.516 154.785 131.516 154.315C131.516 153.925 131.426 153.61 131.246 153.37C131.066 153.13 130.821 152.935 130.511 152.785C130.211 152.625 129.881 152.485 129.521 152.365C129.161 152.235 128.801 152.1 128.441 151.96C128.081 151.81 127.751 151.63 127.451 151.42C127.151 151.2 126.906 150.915 126.716 150.565C126.536 150.215 126.446 149.775 126.446 149.245C126.446 148.655 126.586 148.155 126.866 147.745C127.156 147.325 127.546 147.005 128.036 146.785C128.536 146.555 129.096 146.44 129.716 146.44C130.396 146.44 131.006 146.575 131.546 146.845C132.086 147.105 132.526 147.45 132.866 147.88L131.906 148.84C131.596 148.48 131.261 148.21 130.901 148.03C130.551 147.85 130.146 147.76 129.686 147.76C129.126 147.76 128.681 147.885 128.351 148.135C128.021 148.375 127.856 148.715 127.856 149.155C127.856 149.505 127.946 149.79 128.126 150.01C128.316 150.22 128.561 150.4 128.861 150.55C129.161 150.7 129.491 150.84 129.851 150.97C130.221 151.09 130.586 151.225 130.946 151.375C131.306 151.525 131.636 151.715 131.936 151.945C132.236 152.175 132.476 152.475 132.656 152.845C132.846 153.205 132.941 153.66 132.941 154.21C132.941 155.13 132.621 155.85 131.981 156.37C131.351 156.89 130.496 157.15 129.416 157.15ZM137.228 157.15C136.578 157.15 135.988 156.99 135.458 156.67C134.928 156.34 134.508 155.895 134.198 155.335C133.898 154.775 133.748 154.145 133.748 153.445C133.748 152.745 133.898 152.115 134.198 151.555C134.508 150.995 134.923 150.55 135.443 150.22C135.973 149.89 136.568 149.725 137.228 149.725C137.768 149.725 138.248 149.84 138.668 150.07C139.098 150.29 139.443 150.6 139.703 151C139.963 151.39 140.108 151.845 140.138 152.365V154.51C140.108 155.02 139.963 155.475 139.703 155.875C139.453 156.275 139.113 156.59 138.683 156.82C138.263 157.04 137.778 157.15 137.228 157.15ZM137.453 155.875C138.123 155.875 138.663 155.65 139.073 155.2C139.483 154.74 139.688 154.155 139.688 153.445C139.688 152.955 139.593 152.53 139.403 152.17C139.223 151.8 138.963 151.515 138.623 151.315C138.283 151.105 137.888 151 137.438 151C136.988 151 136.588 151.105 136.238 151.315C135.898 151.525 135.628 151.815 135.428 152.185C135.238 152.545 135.143 152.96 135.143 153.43C135.143 153.91 135.238 154.335 135.428 154.705C135.628 155.065 135.903 155.35 136.253 155.56C136.603 155.77 137.003 155.875 137.453 155.875ZM139.598 157V155.08L139.853 153.34L139.598 151.615V149.875H140.963V157H139.598ZM145.494 157.15C144.914 157.15 144.389 157.02 143.919 156.76C143.459 156.49 143.099 156.12 142.839 155.65C142.579 155.18 142.449 154.635 142.449 154.015V149.875H143.799V153.955C143.799 154.345 143.864 154.685 143.994 154.975C144.134 155.255 144.334 155.47 144.594 155.62C144.854 155.77 145.159 155.845 145.509 155.845C146.039 155.845 146.454 155.68 146.754 155.35C147.054 155.01 147.204 154.545 147.204 153.955V149.875H148.554V154.015C148.554 154.635 148.424 155.18 148.164 155.65C147.904 156.12 147.544 156.49 147.084 156.76C146.634 157.02 146.104 157.15 145.494 157.15ZM144.624 148.81L144.009 148.195L145.959 145.78L147.024 146.845L144.624 148.81ZM153.078 157.15C152.418 157.15 151.828 156.99 151.308 156.67C150.788 156.34 150.373 155.895 150.063 155.335C149.763 154.775 149.613 154.145 149.613 153.445C149.613 152.745 149.763 152.115 150.063 151.555C150.373 150.995 150.788 150.55 151.308 150.22C151.828 149.89 152.418 149.725 153.078 149.725C153.608 149.725 154.088 149.84 154.518 150.07C154.948 150.29 155.293 150.6 155.553 151C155.823 151.39 155.973 151.845 156.003 152.365V154.51C155.973 155.02 155.828 155.475 155.568 155.875C155.308 156.275 154.963 156.59 154.533 156.82C154.103 157.04 153.618 157.15 153.078 157.15ZM153.303 155.875C153.753 155.875 154.143 155.77 154.473 155.56C154.813 155.35 155.078 155.065 155.268 154.705C155.458 154.335 155.553 153.915 155.553 153.445C155.553 152.955 155.453 152.53 155.253 152.17C155.063 151.81 154.798 151.525 154.458 151.315C154.128 151.105 153.738 151 153.288 151C152.838 151 152.443 151.105 152.103 151.315C151.763 151.525 151.493 151.815 151.293 152.185C151.103 152.545 151.008 152.96 151.008 153.43C151.008 153.91 151.103 154.335 151.293 154.705C151.493 155.065 151.763 155.35 152.103 155.56C152.453 155.77 152.853 155.875 153.303 155.875ZM156.828 157H155.463V155.08L155.718 153.34L155.463 151.615V146.29H156.828V157ZM161.794 157.15C161.084 157.15 160.444 156.99 159.874 156.67C159.304 156.34 158.854 155.895 158.524 155.335C158.194 154.775 158.029 154.14 158.029 153.43C158.029 152.73 158.189 152.1 158.509 151.54C158.839 150.98 159.279 150.54 159.829 150.22C160.389 149.89 161.014 149.725 161.704 149.725C162.364 149.725 162.944 149.875 163.444 150.175C163.954 150.475 164.349 150.89 164.629 151.42C164.919 151.95 165.064 152.55 165.064 153.22C165.064 153.32 165.059 153.43 165.049 153.55C165.039 153.66 165.019 153.79 164.989 153.94H158.974V152.815H164.269L163.774 153.25C163.774 152.77 163.689 152.365 163.519 152.035C163.349 151.695 163.109 151.435 162.799 151.255C162.489 151.065 162.114 150.97 161.674 150.97C161.214 150.97 160.809 151.07 160.459 151.27C160.109 151.47 159.839 151.75 159.649 152.11C159.459 152.47 159.364 152.895 159.364 153.385C159.364 153.885 159.464 154.325 159.664 154.705C159.864 155.075 160.149 155.365 160.519 155.575C160.889 155.775 161.314 155.875 161.794 155.875C162.194 155.875 162.559 155.805 162.889 155.665C163.229 155.525 163.519 155.315 163.759 155.035L164.629 155.92C164.289 156.32 163.869 156.625 163.369 156.835C162.879 157.045 162.354 157.15 161.794 157.15ZM168.106 157L172.366 146.59H173.386L177.631 157H176.101L172.606 148.195H173.131L169.606 157H168.106ZM170.131 154.645V153.415H175.606V154.645H170.131ZM186.166 157.15C185.426 157.15 184.736 157.015 184.096 156.745C183.456 156.465 182.896 156.08 182.416 155.59C181.936 155.09 181.561 154.515 181.291 153.865C181.021 153.215 180.886 152.52 180.886 151.78C180.886 151.03 181.021 150.335 181.291 149.695C181.561 149.045 181.931 148.475 182.401 147.985C182.881 147.495 183.436 147.115 184.066 146.845C184.706 146.575 185.396 146.44 186.136 146.44C186.876 146.44 187.561 146.575 188.191 146.845C188.831 147.115 189.391 147.495 189.871 147.985C190.351 148.475 190.721 149.045 190.981 149.695C191.251 150.345 191.386 151.045 191.386 151.795C191.386 152.535 191.251 153.23 190.981 153.88C190.721 154.53 190.351 155.1 189.871 155.59C189.401 156.08 188.846 156.465 188.206 156.745C187.576 157.015 186.896 157.15 186.166 157.15ZM191.146 157.735L186.271 152.86L187.186 151.945L192.046 156.82L191.146 157.735ZM186.136 155.8C186.876 155.8 187.531 155.63 188.101 155.29C188.671 154.94 189.116 154.465 189.436 153.865C189.766 153.255 189.931 152.56 189.931 151.78C189.931 151.2 189.836 150.67 189.646 150.19C189.466 149.7 189.206 149.275 188.866 148.915C188.526 148.555 188.126 148.28 187.666 148.09C187.206 147.89 186.696 147.79 186.136 147.79C185.396 147.79 184.741 147.96 184.171 148.3C183.601 148.64 183.151 149.11 182.821 149.71C182.501 150.31 182.341 151 182.341 151.78C182.341 152.36 182.436 152.9 182.626 153.4C182.816 153.89 183.076 154.315 183.406 154.675C183.746 155.025 184.146 155.3 184.606 155.5C185.076 155.7 185.586 155.8 186.136 155.8ZM195.996 157.15C195.416 157.15 194.891 157.02 194.421 156.76C193.961 156.49 193.601 156.12 193.341 155.65C193.081 155.18 192.951 154.635 192.951 154.015V149.875H194.301V153.955C194.301 154.345 194.366 154.685 194.496 154.975C194.636 155.255 194.836 155.47 195.096 155.62C195.356 155.77 195.661 155.845 196.011 155.845C196.541 155.845 196.956 155.68 197.256 155.35C197.556 155.01 197.706 154.545 197.706 153.955V149.875H199.056V154.015C199.056 154.635 198.926 155.18 198.666 155.65C198.406 156.12 198.046 156.49 197.586 156.76C197.136 157.02 196.606 157.15 195.996 157.15ZM203.596 157.15C202.946 157.15 202.356 156.99 201.826 156.67C201.296 156.34 200.876 155.895 200.566 155.335C200.266 154.775 200.116 154.145 200.116 153.445C200.116 152.745 200.266 152.115 200.566 151.555C200.876 150.995 201.291 150.55 201.811 150.22C202.341 149.89 202.936 149.725 203.596 149.725C204.136 149.725 204.616 149.84 205.036 150.07C205.466 150.29 205.811 150.6 206.071 151C206.331 151.39 206.476 151.845 206.506 152.365V154.51C206.476 155.02 206.331 155.475 206.071 155.875C205.821 156.275 205.481 156.59 205.051 156.82C204.631 157.04 204.146 157.15 203.596 157.15ZM203.821 155.875C204.491 155.875 205.031 155.65 205.441 155.2C205.851 154.74 206.056 154.155 206.056 153.445C206.056 152.955 205.961 152.53 205.771 152.17C205.591 151.8 205.331 151.515 204.991 151.315C204.651 151.105 204.256 151 203.806 151C203.356 151 202.956 151.105 202.606 151.315C202.266 151.525 201.996 151.815 201.796 152.185C201.606 152.545 201.511 152.96 201.511 153.43C201.511 153.91 201.606 154.335 201.796 154.705C201.996 155.065 202.271 155.35 202.621 155.56C202.971 155.77 203.371 155.875 203.821 155.875ZM205.966 157V155.08L206.221 153.34L205.966 151.615V149.875H207.331V157H205.966ZM208.996 157V146.29H210.346V157H208.996ZM215.066 157.15C214.406 157.15 213.811 156.99 213.281 156.67C212.751 156.34 212.331 155.895 212.021 155.335C211.721 154.775 211.571 154.145 211.571 153.445C211.571 152.745 211.721 152.115 212.021 151.555C212.331 150.995 212.751 150.55 213.281 150.22C213.811 149.89 214.401 149.725 215.051 149.725C215.601 149.725 216.086 149.84 216.506 150.07C216.936 150.29 217.276 150.6 217.526 151C217.786 151.39 217.931 151.845 217.961 152.365V154.51C217.931 155.02 217.786 155.475 217.526 155.875C217.276 156.275 216.936 156.59 216.506 156.82C216.086 157.04 215.606 157.15 215.066 157.15ZM215.276 155.875C215.946 155.875 216.486 155.65 216.896 155.2C217.306 154.74 217.511 154.155 217.511 153.445C217.511 152.955 217.416 152.53 217.226 152.17C217.046 151.8 216.786 151.515 216.446 151.315C216.116 151.105 215.726 151 215.276 151C214.826 151 214.426 151.105 214.076 151.315C213.736 151.525 213.466 151.815 213.266 152.185C213.066 152.545 212.966 152.96 212.966 153.43C212.966 153.91 213.066 154.335 213.266 154.705C213.466 155.065 213.736 155.35 214.076 155.56C214.426 155.77 214.826 155.875 215.276 155.875ZM217.436 159.985V155.215L217.676 153.475L217.436 151.75V149.875H218.786V159.985H217.436ZM223.332 157.15C222.752 157.15 222.227 157.02 221.757 156.76C221.297 156.49 220.937 156.12 220.677 155.65C220.417 155.18 220.287 154.635 220.287 154.015V149.875H221.637V153.955C221.637 154.345 221.702 154.685 221.832 154.975C221.972 155.255 222.172 155.47 222.432 155.62C222.692 155.77 222.997 155.845 223.347 155.845C223.877 155.845 224.292 155.68 224.592 155.35C224.892 155.01 225.042 154.545 225.042 153.955V149.875H226.392V154.015C226.392 154.635 226.262 155.18 226.002 155.65C225.742 156.12 225.382 156.49 224.922 156.76C224.472 157.02 223.942 157.15 223.332 157.15ZM231.201 157.15C230.491 157.15 229.851 156.99 229.281 156.67C228.711 156.34 228.261 155.895 227.931 155.335C227.601 154.775 227.436 154.14 227.436 153.43C227.436 152.73 227.596 152.1 227.916 151.54C228.246 150.98 228.686 150.54 229.236 150.22C229.796 149.89 230.421 149.725 231.111 149.725C231.771 149.725 232.351 149.875 232.851 150.175C233.361 150.475 233.756 150.89 234.036 151.42C234.326 151.95 234.471 152.55 234.471 153.22C234.471 153.32 234.466 153.43 234.456 153.55C234.446 153.66 234.426 153.79 234.396 153.94H228.381V152.815H233.676L233.181 153.25C233.181 152.77 233.096 152.365 232.926 152.035C232.756 151.695 232.516 151.435 232.206 151.255C231.896 151.065 231.521 150.97 231.081 150.97C230.621 150.97 230.216 151.07 229.866 151.27C229.516 151.47 229.246 151.75 229.056 152.11C228.866 152.47 228.771 152.895 228.771 153.385C228.771 153.885 228.871 154.325 229.071 154.705C229.271 155.075 229.556 155.365 229.926 155.575C230.296 155.775 230.721 155.875 231.201 155.875C231.601 155.875 231.966 155.805 232.296 155.665C232.636 155.525 232.926 155.315 233.166 155.035L234.036 155.92C233.696 156.32 233.276 156.625 232.776 156.835C232.286 157.045 231.761 157.15 231.201 157.15ZM235.643 157V149.875H236.993V157H235.643ZM236.993 152.935L236.483 152.71C236.483 151.8 236.693 151.075 237.113 150.535C237.533 149.995 238.138 149.725 238.928 149.725C239.288 149.725 239.613 149.79 239.903 149.92C240.193 150.04 240.463 150.245 240.713 150.535L239.828 151.45C239.678 151.29 239.513 151.175 239.333 151.105C239.153 151.035 238.943 151 238.703 151C238.203 151 237.793 151.16 237.473 151.48C237.153 151.8 236.993 152.285 236.993 152.935ZM244.687 157V146.59H246.097V157H244.687ZM251.407 157V146.59H252.817V157H251.407ZM245.647 152.26V150.97H251.752V152.26H245.647ZM257.993 157.15C257.293 157.15 256.663 156.985 256.103 156.655C255.543 156.325 255.098 155.88 254.768 155.32C254.438 154.75 254.273 154.115 254.273 153.415C254.273 152.725 254.438 152.105 254.768 151.555C255.098 150.995 255.543 150.55 256.103 150.22C256.663 149.89 257.293 149.725 257.993 149.725C258.683 149.725 259.308 149.89 259.868 150.22C260.438 150.54 260.888 150.98 261.218 151.54C261.548 152.1 261.713 152.725 261.713 153.415C261.713 154.115 261.548 154.75 261.218 155.32C260.888 155.88 260.438 156.325 259.868 156.655C259.308 156.985 258.683 157.15 257.993 157.15ZM257.993 155.845C258.443 155.845 258.843 155.74 259.193 155.53C259.543 155.32 259.818 155.035 260.018 154.675C260.218 154.305 260.318 153.885 260.318 153.415C260.318 152.955 260.213 152.545 260.003 152.185C259.803 151.825 259.528 151.545 259.178 151.345C258.838 151.135 258.443 151.03 257.993 151.03C257.543 151.03 257.143 151.135 256.793 151.345C256.443 151.545 256.168 151.825 255.968 152.185C255.768 152.545 255.668 152.955 255.668 153.415C255.668 153.885 255.768 154.305 255.968 154.675C256.168 155.035 256.443 155.32 256.793 155.53C257.143 155.74 257.543 155.845 257.993 155.845ZM262.934 157V149.875H264.284V157H262.934ZM264.284 152.935L263.774 152.71C263.774 151.8 263.984 151.075 264.404 150.535C264.824 149.995 265.429 149.725 266.219 149.725C266.579 149.725 266.904 149.79 267.194 149.92C267.484 150.04 267.754 150.245 268.004 150.535L267.119 151.45C266.969 151.29 266.804 151.175 266.624 151.105C266.444 151.035 266.234 151 265.994 151C265.494 151 265.084 151.16 264.764 151.48C264.444 151.8 264.284 152.285 264.284 152.935ZM271.45 157.15C270.8 157.15 270.21 156.99 269.68 156.67C269.15 156.34 268.73 155.895 268.42 155.335C268.12 154.775 267.97 154.145 267.97 153.445C267.97 152.745 268.12 152.115 268.42 151.555C268.73 150.995 269.145 150.55 269.665 150.22C270.195 149.89 270.79 149.725 271.45 149.725C271.99 149.725 272.47 149.84 272.89 150.07C273.32 150.29 273.665 150.6 273.925 151C274.185 151.39 274.33 151.845 274.36 152.365V154.51C274.33 155.02 274.185 155.475 273.925 155.875C273.675 156.275 273.335 156.59 272.905 156.82C272.485 157.04 272 157.15 271.45 157.15ZM271.675 155.875C272.345 155.875 272.885 155.65 273.295 155.2C273.705 154.74 273.91 154.155 273.91 153.445C273.91 152.955 273.815 152.53 273.625 152.17C273.445 151.8 273.185 151.515 272.845 151.315C272.505 151.105 272.11 151 271.66 151C271.21 151 270.81 151.105 270.46 151.315C270.12 151.525 269.85 151.815 269.65 152.185C269.46 152.545 269.365 152.96 269.365 153.43C269.365 153.91 269.46 154.335 269.65 154.705C269.85 155.065 270.125 155.35 270.475 155.56C270.825 155.77 271.225 155.875 271.675 155.875ZM273.82 157V155.08L274.075 153.34L273.82 151.615V149.875H275.185V157H273.82Z" fill="#252B61"/>
<rect x="325" y="60" width="60" height="59" rx="29.5" fill="#252B61"/>
<path d="M348 89.5H362" stroke="white" stroke-width="2" stroke-linecap="round" stroke-linejoin="round"/>
<path d="M355 82.6167L362 89.5L355 96.3833" stroke="white" stroke-width="2" stroke-linecap="round" stroke-linejoin="round"/>
<g clip-path="url(#clip0_15_222)">
<path d="M166.797 227V335.519H408V227H166.797ZM167.663 334.651V227.868H226.989V334.651H167.663ZM227.855 227.868H296.276V334.651H227.855V227.868ZM407.134 334.651H297.142V227.868H407.134V334.651Z" fill="#3F3D56"/>
<path d="M194.241 280.063H177.832C179.677 272.472 181.45 265.385 177.832 260.325H194.241C197.33 266.911 197.33 273.49 194.241 280.063Z" fill="#6C63FF"/>
<path d="M276.737 317.154H260.328C259.301 308.004 261.566 301.184 260.328 297.416H276.737C276.107 303.98 276.107 310.59 276.737 317.154Z" fill="#E6E6E6"/>
<path d="M256.688 288.402H240.279C240.894 280.812 242.878 273.725 240.279 268.663H256.688C259.778 275.243 259.778 281.822 256.688 288.402Z" fill="#6C63FF"/>
<path d="M270.864 275.494H287.273C288.3 267.903 286.035 260.816 287.273 255.756H270.864C267.774 262.335 267.774 268.915 270.864 275.494Z" fill="#FF6584"/>
<path d="M194.742 311.087H211.152C212.178 303.496 209.914 296.409 211.152 291.349H194.742C191.653 297.928 191.653 304.508 194.742 311.087Z" fill="#E6E6E6"/>
<path d="M207.07 236.314H182.864V237.182H207.07V236.314Z" fill="#3F3D56"/>
<path d="M273.758 236.314H249.552V237.182H273.758V236.314Z" fill="#3F3D56"/>
<path d="M364.263 236.314H340.058V237.182H364.263V236.314Z" fill="#3F3D56"/>
<path d="M32.5118 376.97V378.158C32.5135 380.126 33.2944 382.014 34.6829 383.405C36.0714 384.797 37.9542 385.58 39.9178 385.582H102.72C104.684 385.581 106.568 384.798 107.957 383.406C109.345 382.014 110.126 380.127 110.126 378.158V376.97C110.13 375.233 109.522 373.55 108.408 372.219C108.037 371.777 107.618 371.378 107.158 371.031H74.5836C74.1908 371.031 73.8141 370.874 73.5364 370.596C73.2586 370.318 73.1025 369.94 73.1024 369.546H39.9178C37.9545 369.549 36.0723 370.332 34.684 371.724C33.2957 373.115 32.5146 375.002 32.5118 376.97Z" fill="#CCCCCC"/>
<path d="M67.1747 439.925H74.877V385.287H67.1747V439.925Z" fill="#CCCCCC"/>
<path d="M45.2529 439.654C45.2529 440.488 56.9244 439.977 71.322 439.977C85.7195 439.977 97.391 440.488 97.391 439.654C97.391 438.82 85.7195 432.205 71.322 432.205C56.9244 432.205 45.2529 438.82 45.2529 439.654Z" fill="#CCCCCC"/>
<path d="M110.537 432.97L117.895 432.969L121.395 404.521L110.536 404.521L110.537 432.97Z" fill="#A0616A"/>
<path d="M108.66 430.561L123.15 430.561H123.151C125.6 430.561 127.948 431.536 129.68 433.272C131.412 435.008 132.385 437.362 132.385 439.817V440.118L108.66 440.119L108.66 430.561Z" fill="#2F2E41"/>
<path d="M82.0554 417.861L76.0942 422.184L56.6212 401.194L65.4193 394.813L82.0554 417.861Z" fill="#A0616A"/>
<path d="M87.7566 422.55L68.5358 436.49L68.3598 436.247C66.9243 434.258 66.3357 431.779 66.7235 429.355C67.1113 426.931 68.4437 424.761 70.4276 423.322L70.4281 423.321L82.1676 414.807L87.7566 422.55Z" fill="#2F2E41"/>
<path d="M90.1082 307.278C90.1082 307.278 82.3886 301.482 74.0416 307.278L68.2645 355.578H85.611L88.1808 340.122L93.963 316.938L90.1082 307.278Z" fill="#CCCCCC"/>
<path d="M107.486 381.873L76.354 371.683L61.5125 383.489L77.2791 407.65L69.0327 418.491L68.7969 418.222C67.7738 417.054 43.7408 389.523 43.8103 381.715C43.8793 373.972 46.4386 366.188 46.4645 366.111L54.2714 355.003L65.3516 351.737L102.035 356.897L102.094 356.906L116.916 365.948C118.382 366.893 119.618 368.156 120.533 369.643C121.448 371.131 122.018 372.805 122.201 374.543C122.837 380.285 124.117 426.268 124.13 426.732L124.138 427.033H108.13L107.486 381.873Z" fill="#2F2E41"/>
<path d="M87.7409 370.336C82.33 367.925 75.4197 358.513 74.2808 356.926C72.0543 358.141 55.8177 366.839 51.2404 364.603C50.5755 364.971 47.5703 366.768 47.029 369.481L46.8933 370.161L46.5009 369.589C46.4287 369.484 39.3767 358.973 48.4995 352.441C56.8177 346.485 59.0556 340.468 59.29 339.78L54.7766 315.867L54.895 315.757C55.2652 315.412 64.0516 307.309 72.0686 306.345L77.0141 305.471L77.2304 324.343V348.504C81.2263 348 87.548 305.785 87.548 305.785L90.8515 306.998C91.7051 307.162 101.298 309.083 103.843 312.911L103.926 313.035L95.2012 336.681L92.6494 340.532V345.462L107.557 358.456L107.345 358.678C106.837 359.211 95.8445 370.672 89.441 370.67C88.8571 370.68 88.2778 370.566 87.7409 370.336Z" fill="#3F3D56"/>
<path d="M94.6697 293.151C98.4772 286.17 95.9174 277.416 88.9524 273.599C81.9874 269.783 73.2546 272.349 69.4472 279.33C65.6397 286.312 68.1995 295.066 75.1645 298.882C82.1295 302.699 90.8623 300.133 94.6697 293.151Z" fill="#A0616A"/>
<path d="M78.4396 374.626C78.5425 373.808 78.8232 373.023 79.2618 372.325C79.7004 371.627 80.2863 371.034 80.9782 370.588C81.6701 370.142 82.4512 369.853 83.2665 369.742C84.0817 369.632 84.9113 369.701 85.6968 369.946L93.9346 360.048L101.157 363.599L89.3274 377.414C88.8289 378.709 87.8736 379.776 86.6426 380.413C85.4116 381.05 83.9904 381.211 82.6483 380.868C81.3062 380.524 80.1365 379.699 79.3608 378.549C78.5851 377.398 78.2573 376.003 78.4396 374.626Z" fill="#A0616A"/>
<path d="M84.2621 366.232L97.1857 348.743L93.9845 331.416L99.178 311.894L99.3087 311.838C99.4134 311.793 101.899 310.743 103.791 311.53C104.178 311.69 104.528 311.929 104.818 312.231C105.108 312.533 105.333 312.893 105.478 313.287C106.764 316.509 109.863 349.324 109.994 350.776C109.968 351.042 109.332 357.3 108.038 359.895C106.75 362.477 95.0007 375.507 94.5013 376.061L94.2948 376.289L84.2621 366.232Z" fill="#3F3D56"/>
<path d="M94.4048 282.533C89.6206 288.564 81.4208 287.459 74.86 285.252C75.2417 290.08 73.9338 294.891 71.1609 298.858C72.0082 295.437 68.439 294.756 66.3563 293.484C65.5544 292.466 66.2206 290.948 65.8915 289.694C62.1518 285.299 59.6737 281.983 64.4741 276.825C67.2842 273.055 70.6571 268.347 76.0111 269.337C80.2476 264.383 87.1902 265.672 91.9271 269.137C94.0567 270.717 95.9939 272.541 97.6989 274.574C97.1538 277.248 96.1386 279.805 94.7008 282.123" fill="#2F2E41"/>
<path d="M172.421 441H7.43304C7.31819 441 7.20804 440.954 7.12683 440.873C7.04562 440.791 7 440.681 7 440.566C7 440.451 7.04562 440.34 7.12683 440.259C7.20804 440.178 7.31819 440.132 7.43304 440.132H172.421C172.536 440.132 172.646 440.178 172.727 440.259C172.809 440.34 172.854 440.451 172.854 440.566C172.854 440.681 172.809 440.791 172.727 440.873C172.646 440.954 172.536 441 172.421 441Z" fill="#3F3D56"/>
<path d="M90.5834 382.564H74.174C74.7892 374.974 76.7731 367.887 74.174 362.825H90.5833C93.6729 369.405 93.6729 375.984 90.5834 382.564Z" fill="#6C63FF"/>
<path d="M83.4136 378.838C83.3106 378.019 83.03 377.234 82.5914 376.536C82.1527 375.838 81.5669 375.245 80.8749 374.799C80.183 374.353 79.4019 374.064 78.5867 373.954C77.7714 373.843 76.9418 373.912 76.1564 374.158L67.9185 364.259L60.6964 367.81L72.5257 381.625C73.0242 382.92 73.9795 383.988 75.2105 384.624C76.4415 385.261 77.8627 385.423 79.2048 385.079C80.5469 384.735 81.7166 383.91 82.4923 382.76C83.268 381.61 83.5958 380.214 83.4136 378.838Z" fill="#A0616A"/>
<path d="M67.4466 377.064C66.7099 376.51 49.3803 363.454 47.4441 359.573C45.5052 355.685 45.9858 344.173 46.0109 343.65C46.0411 343.469 49.0581 325.478 51.6101 319.083C54.258 312.447 60.9181 315.028 60.9851 315.055L61.1864 315.136L58.2864 349.051L74.1048 370.085L67.6601 377.225L67.4466 377.064Z" fill="#3F3D56"/>
</g>
<defs>
<clipPath id="clip0_15_222">
<rect width="401" height="214" fill="white" transform="translate(7 227)"/>
</clipPath>
</defs>
</svg>
