<svg width="415" height="478" viewBox="0 0 415 478" fill="none" xmlns="http://www.w3.org/2000/svg">
<rect width="415" height="478" rx="25" fill="#29BEDA"/>
<path d="M43.376 81V57.801H46.544L55.949 72.849H54.134L63.506 57.801H66.674V81H62.219V65.49L63.077 65.754L56.543 76.248H53.507L46.973 65.754L47.864 65.49V81H43.376ZM77.9141 81.33C76.2421 81.33 74.7571 80.978 73.4591 80.274C72.1611 79.548 71.1271 78.558 70.3571 77.304C69.6091 76.05 69.2351 74.62 69.2351 73.014C69.2351 71.43 69.5981 70.022 70.3241 68.79C71.0721 67.536 72.0841 66.546 73.3601 65.82C74.6361 65.072 76.0551 64.698 77.6171 64.698C79.1571 64.698 80.5101 65.05 81.6761 65.754C82.8641 66.436 83.7881 67.382 84.4481 68.592C85.1301 69.78 85.4711 71.133 85.4711 72.651C85.4711 72.937 85.4491 73.234 85.4051 73.542C85.3831 73.828 85.3281 74.158 85.2401 74.532L71.8421 74.565V71.331L83.2271 71.298L81.4781 72.651C81.4341 71.705 81.2581 70.913 80.9501 70.275C80.6641 69.637 80.2351 69.153 79.6631 68.823C79.1131 68.471 78.4311 68.295 77.6171 68.295C76.7591 68.295 76.0111 68.493 75.3731 68.889C74.7351 69.263 74.2401 69.802 73.8881 70.506C73.5581 71.188 73.3931 72.002 73.3931 72.948C73.3931 73.916 73.5691 74.763 73.9211 75.489C74.2951 76.193 74.8231 76.743 75.5051 77.139C76.1871 77.513 76.9791 77.7 77.8811 77.7C78.6951 77.7 79.4321 77.568 80.0921 77.304C80.7521 77.018 81.3241 76.6 81.8081 76.05L84.3491 78.591C83.5791 79.493 82.6331 80.175 81.5111 80.637C80.4111 81.099 79.2121 81.33 77.9141 81.33ZM94.2166 81.33C92.7426 81.33 91.4226 80.967 90.2566 80.241C89.0906 79.515 88.1666 78.525 87.4846 77.271C86.8246 76.017 86.4946 74.609 86.4946 73.047C86.4946 71.463 86.8246 70.044 87.4846 68.79C88.1666 67.536 89.0796 66.546 90.2236 65.82C91.3896 65.094 92.7206 64.731 94.2166 64.731C95.3606 64.731 96.3836 64.962 97.2856 65.424C98.2096 65.886 98.9466 66.535 99.4966 67.371C100.069 68.185 100.377 69.109 100.421 70.143V75.819C100.377 76.853 100.08 77.788 99.5296 78.624C98.9796 79.46 98.2426 80.12 97.3186 80.604C96.3946 81.088 95.3606 81.33 94.2166 81.33ZM94.9426 77.337C95.7566 77.337 96.4606 77.161 97.0546 76.809C97.6706 76.435 98.1436 75.929 98.4736 75.291C98.8256 74.631 99.0016 73.872 99.0016 73.014C99.0016 72.178 98.8256 71.441 98.4736 70.803C98.1436 70.143 97.6706 69.637 97.0546 69.285C96.4606 68.911 95.7676 68.724 94.9756 68.724C94.1616 68.724 93.4466 68.911 92.8306 69.285C92.2366 69.659 91.7636 70.165 91.4116 70.803C91.0816 71.441 90.9166 72.178 90.9166 73.014C90.9166 73.872 91.0816 74.631 91.4116 75.291C91.7636 75.929 92.2476 76.435 92.8636 76.809C93.4796 77.161 94.1726 77.337 94.9426 77.337ZM103.061 81H98.7706V76.71L99.4636 72.816L98.7376 68.988V57.141H103.061V81ZM106.225 81V65.061H110.581V81H106.225ZM108.403 62.487C107.699 62.487 107.116 62.256 106.654 61.794C106.192 61.31 105.961 60.716 105.961 60.012C105.961 59.33 106.192 58.747 106.654 58.263C107.116 57.779 107.699 57.537 108.403 57.537C109.129 57.537 109.712 57.779 110.152 58.263C110.614 58.747 110.845 59.33 110.845 60.012C110.845 60.716 110.614 61.31 110.152 61.794C109.712 62.256 109.129 62.487 108.403 62.487ZM121.275 81.33C119.647 81.33 118.184 80.967 116.886 80.241C115.588 79.515 114.565 78.525 113.817 77.271C113.069 76.017 112.695 74.609 112.695 73.047C112.695 71.463 113.069 70.044 113.817 68.79C114.565 67.536 115.588 66.546 116.886 65.82C118.206 65.072 119.669 64.698 121.275 64.698C122.529 64.698 123.684 64.929 124.74 65.391C125.796 65.853 126.709 66.513 127.479 67.371L124.707 70.176C124.289 69.714 123.783 69.362 123.189 69.12C122.617 68.878 121.979 68.757 121.275 68.757C120.483 68.757 119.768 68.944 119.13 69.318C118.514 69.67 118.019 70.165 117.645 70.803C117.293 71.419 117.117 72.156 117.117 73.014C117.117 73.85 117.293 74.598 117.645 75.258C118.019 75.896 118.514 76.402 119.13 76.776C119.768 77.128 120.483 77.304 121.275 77.304C122.001 77.304 122.65 77.183 123.222 76.941C123.816 76.677 124.322 76.303 124.74 75.819L127.545 78.624C126.731 79.504 125.796 80.175 124.74 80.637C123.684 81.099 122.529 81.33 121.275 81.33ZM129.333 81V65.061H133.689V81H129.333ZM131.511 62.487C130.807 62.487 130.224 62.256 129.762 61.794C129.3 61.31 129.069 60.716 129.069 60.012C129.069 59.33 129.3 58.747 129.762 58.263C130.224 57.779 130.807 57.537 131.511 57.537C132.237 57.537 132.82 57.779 133.26 58.263C133.722 58.747 133.953 59.33 133.953 60.012C133.953 60.716 133.722 61.31 133.26 61.794C132.82 62.256 132.237 62.487 131.511 62.487ZM147.583 81V71.859C147.583 70.913 147.286 70.143 146.692 69.549C146.098 68.955 145.328 68.658 144.382 68.658C143.766 68.658 143.216 68.79 142.732 69.054C142.248 69.318 141.863 69.692 141.577 70.176C141.313 70.66 141.181 71.221 141.181 71.859L139.498 71.001C139.498 69.747 139.762 68.658 140.29 67.734C140.84 66.788 141.588 66.051 142.534 65.523C143.502 64.995 144.591 64.731 145.801 64.731C146.967 64.731 148.012 65.028 148.936 65.622C149.86 66.194 150.586 66.953 151.114 67.899C151.642 68.823 151.906 69.824 151.906 70.902V81H147.583ZM136.858 81V65.061H141.181V81H136.858ZM161.395 81.33C159.943 81.33 158.634 80.967 157.468 80.241C156.302 79.515 155.389 78.525 154.729 77.271C154.069 76.017 153.739 74.609 153.739 73.047C153.739 71.463 154.069 70.044 154.729 68.79C155.389 67.536 156.302 66.546 157.468 65.82C158.634 65.094 159.943 64.731 161.395 64.731C162.539 64.731 163.562 64.962 164.464 65.424C165.366 65.886 166.081 66.535 166.609 67.371C167.159 68.185 167.456 69.109 167.5 70.143V75.885C167.456 76.941 167.159 77.876 166.609 78.69C166.081 79.504 165.366 80.153 164.464 80.637C163.562 81.099 162.539 81.33 161.395 81.33ZM162.187 77.337C163.397 77.337 164.376 76.941 165.124 76.149C165.872 75.335 166.246 74.29 166.246 73.014C166.246 72.178 166.07 71.441 165.718 70.803C165.388 70.143 164.915 69.637 164.299 69.285C163.705 68.911 163.001 68.724 162.187 68.724C161.395 68.724 160.691 68.911 160.075 69.285C159.481 69.637 159.008 70.143 158.656 70.803C158.326 71.441 158.161 72.178 158.161 73.014C158.161 73.872 158.326 74.631 158.656 75.291C159.008 75.929 159.481 76.435 160.075 76.809C160.691 77.161 161.395 77.337 162.187 77.337ZM166.015 81V76.71L166.708 72.816L166.015 68.988V65.061H170.305V81H166.015ZM41.858 120.426L50.603 111.285C51.219 110.625 51.714 110.042 52.088 109.536C52.484 109.008 52.77 108.513 52.946 108.051C53.122 107.567 53.21 107.083 53.21 106.599C53.21 105.631 52.891 104.872 52.253 104.322C51.637 103.772 50.834 103.497 49.844 103.497C48.832 103.497 47.93 103.761 47.138 104.289C46.368 104.817 45.642 105.653 44.96 106.797L41.891 104.19C42.815 102.628 43.959 101.451 45.323 100.659C46.709 99.845 48.293 99.438 50.075 99.438C51.593 99.438 52.913 99.735 54.035 100.329C55.179 100.923 56.059 101.748 56.675 102.804C57.291 103.86 57.599 105.092 57.599 106.5C57.599 107.446 57.478 108.304 57.236 109.074C57.016 109.844 56.631 110.614 56.081 111.384C55.553 112.132 54.816 112.979 53.87 113.925L47.501 120.426H41.858ZM41.858 123V120.426L45.686 119.106H58.094V123H41.858ZM59.4052 114.816L67.3252 99.801H72.2752L64.1572 114.816H59.4052ZM59.4052 117.456V114.816L61.0552 113.529H77.6872V117.456H59.4052ZM70.3612 123V108.216H74.7832V123H70.3612ZM90.4753 123V113.859C90.4753 112.913 90.1783 112.143 89.5843 111.549C88.9903 110.955 88.2203 110.658 87.2743 110.658C86.6583 110.658 86.1083 110.79 85.6243 111.054C85.1403 111.318 84.7553 111.692 84.4693 112.176C84.2053 112.66 84.0733 113.221 84.0733 113.859L82.3903 113.001C82.3903 111.747 82.6543 110.658 83.1823 109.734C83.7103 108.788 84.4363 108.051 85.3603 107.523C86.3063 106.995 87.3843 106.731 88.5943 106.731C89.8043 106.731 90.8713 106.995 91.7953 107.523C92.7413 108.051 93.4783 108.777 94.0063 109.701C94.5343 110.625 94.7983 111.692 94.7983 112.902V123H90.4753ZM79.7503 123V99.141H84.0733V123H79.7503ZM107.168 114.387V110.724H112.547C113.251 110.724 113.889 110.581 114.461 110.295C115.033 110.009 115.484 109.602 115.814 109.074C116.144 108.524 116.309 107.864 116.309 107.094C116.309 106.346 116.144 105.697 115.814 105.147C115.484 104.597 115.033 104.179 114.461 103.893C113.889 103.607 113.251 103.464 112.547 103.464H107.168V99.801H113.009C114.483 99.801 115.803 100.098 116.969 100.692C118.157 101.286 119.092 102.133 119.774 103.233C120.456 104.311 120.797 105.598 120.797 107.094C120.797 108.59 120.456 109.888 119.774 110.988C119.092 112.066 118.157 112.902 116.969 113.496C115.803 114.09 114.483 114.387 113.009 114.387H107.168ZM103.868 123V99.801H108.356V123H103.868ZM129.831 123.33C128.225 123.33 126.773 122.967 125.475 122.241C124.199 121.493 123.176 120.492 122.406 119.238C121.658 117.962 121.284 116.543 121.284 114.981C121.284 113.419 121.658 112.022 122.406 110.79C123.154 109.536 124.177 108.546 125.475 107.82C126.773 107.072 128.214 106.698 129.798 106.698C131.426 106.698 132.878 107.072 134.154 107.82C135.452 108.546 136.475 109.536 137.223 110.79C137.971 112.022 138.345 113.419 138.345 114.981C138.345 116.543 137.971 117.962 137.223 119.238C136.475 120.492 135.452 121.493 134.154 122.241C132.878 122.967 131.437 123.33 129.831 123.33ZM129.798 119.304C130.612 119.304 131.327 119.128 131.943 118.776C132.581 118.402 133.065 117.896 133.395 117.258C133.747 116.598 133.923 115.85 133.923 115.014C133.923 114.178 133.747 113.441 133.395 112.803C133.043 112.165 132.559 111.67 131.943 111.318C131.327 110.944 130.612 110.757 129.798 110.757C129.006 110.757 128.302 110.944 127.686 111.318C127.07 111.67 126.586 112.165 126.234 112.803C125.882 113.441 125.706 114.178 125.706 115.014C125.706 115.85 125.882 116.598 126.234 117.258C126.586 117.896 127.07 118.402 127.686 118.776C128.302 119.128 129.006 119.304 129.798 119.304ZM140.468 123V107.061H144.791V123H140.468ZM144.791 114.189L143.108 113.067C143.306 111.109 143.878 109.569 144.824 108.447C145.77 107.303 147.134 106.731 148.916 106.731C149.686 106.731 150.379 106.863 150.995 107.127C151.611 107.369 152.172 107.776 152.678 108.348L149.972 111.45C149.73 111.186 149.433 110.988 149.081 110.856C148.751 110.724 148.366 110.658 147.926 110.658C147.002 110.658 146.243 110.955 145.649 111.549C145.077 112.121 144.791 113.001 144.791 114.189ZM163.433 123V119.007H169.34C170.836 119.007 172.145 118.699 173.267 118.083C174.389 117.445 175.258 116.554 175.874 115.41C176.512 114.266 176.831 112.913 176.831 111.351C176.831 109.833 176.512 108.513 175.874 107.391C175.236 106.247 174.356 105.367 173.234 104.751C172.112 104.113 170.814 103.794 169.34 103.794H163.334V99.801H169.406C171.122 99.801 172.706 100.087 174.158 100.659C175.632 101.231 176.908 102.045 177.986 103.101C179.086 104.135 179.933 105.356 180.527 106.764C181.143 108.172 181.451 109.712 181.451 111.384C181.451 113.056 181.143 114.607 180.527 116.037C179.933 117.445 179.097 118.677 178.019 119.733C176.941 120.767 175.665 121.57 174.191 122.142C172.739 122.714 171.166 123 169.472 123H163.433ZM160.364 123V99.801H164.852V123H160.364ZM183.895 123V107.061H188.251V123H183.895ZM186.073 104.487C185.369 104.487 184.786 104.256 184.324 103.794C183.862 103.31 183.631 102.716 183.631 102.012C183.631 101.33 183.862 100.747 184.324 100.263C184.786 99.779 185.369 99.537 186.073 99.537C186.799 99.537 187.382 99.779 187.822 100.263C188.284 100.747 188.515 101.33 188.515 102.012C188.515 102.716 188.284 103.31 187.822 103.794C187.382 104.256 186.799 104.487 186.073 104.487ZM198.086 123.33C196.634 123.33 195.325 122.967 194.159 122.241C192.993 121.515 192.08 120.525 191.42 119.271C190.76 118.017 190.43 116.609 190.43 115.047C190.43 113.463 190.76 112.044 191.42 110.79C192.08 109.536 192.993 108.546 194.159 107.82C195.325 107.094 196.634 106.731 198.086 106.731C199.23 106.731 200.253 106.962 201.155 107.424C202.057 107.886 202.772 108.535 203.3 109.371C203.85 110.185 204.147 111.109 204.191 112.143V117.885C204.147 118.941 203.85 119.876 203.3 120.69C202.772 121.504 202.057 122.153 201.155 122.637C200.253 123.099 199.23 123.33 198.086 123.33ZM198.878 119.337C200.088 119.337 201.067 118.941 201.815 118.149C202.563 117.335 202.937 116.29 202.937 115.014C202.937 114.178 202.761 113.441 202.409 112.803C202.079 112.143 201.606 111.637 200.99 111.285C200.396 110.911 199.692 110.724 198.878 110.724C198.086 110.724 197.382 110.911 196.766 111.285C196.172 111.637 195.699 112.143 195.347 112.803C195.017 113.441 194.852 114.178 194.852 115.014C194.852 115.872 195.017 116.631 195.347 117.291C195.699 117.929 196.172 118.435 196.766 118.809C197.382 119.161 198.086 119.337 198.878 119.337ZM202.706 123V118.71L203.399 114.816L202.706 110.988V107.061H206.996V123H202.706Z" fill="#252B61"/>
<g clip-path="url(#clip0_72_86)">
<path d="M166.797 227V335.519H408V227H166.797ZM167.663 334.651V227.868H226.989V334.651H167.663ZM227.855 227.868H296.276V334.651H227.855V227.868ZM407.134 334.651H297.142V227.868H407.134V334.651Z" fill="#3F3D56"/>
<path d="M194.241 280.063H177.832C179.677 272.472 181.45 265.385 177.832 260.324H194.241C197.33 266.911 197.33 273.49 194.241 280.063Z" fill="#6C63FF"/>
<path d="M276.737 317.154H260.328C259.301 308.004 261.566 301.184 260.328 297.416H276.737C276.107 303.98 276.107 310.59 276.737 317.154Z" fill="#E6E6E6"/>
<path d="M256.688 288.402H240.279C240.894 280.812 242.878 273.725 240.279 268.663H256.688C259.778 275.243 259.778 281.822 256.688 288.402Z" fill="#6C63FF"/>
<path d="M270.864 275.494H287.273C288.3 267.903 286.035 260.816 287.273 255.756H270.864C267.774 262.335 267.774 268.915 270.864 275.494Z" fill="#FF6584"/>
<path d="M194.742 311.087H211.152C212.178 303.496 209.914 296.409 211.152 291.349H194.742C191.653 297.928 191.653 304.508 194.742 311.087Z" fill="#E6E6E6"/>
<path d="M207.07 236.314H182.864V237.182H207.07V236.314Z" fill="#3F3D56"/>
<path d="M273.758 236.314H249.552V237.182H273.758V236.314Z" fill="#3F3D56"/>
<path d="M364.263 236.314H340.058V237.182H364.263V236.314Z" fill="#3F3D56"/>
<path d="M32.5118 376.97V378.158C32.5135 380.126 33.2944 382.014 34.6829 383.405C36.0714 384.797 37.9542 385.58 39.9178 385.582H102.72C104.684 385.581 106.568 384.798 107.957 383.406C109.345 382.014 110.126 380.127 110.126 378.158V376.97C110.13 375.233 109.522 373.55 108.408 372.219C108.037 371.777 107.618 371.378 107.158 371.031H74.5836C74.1908 371.031 73.8141 370.874 73.5364 370.596C73.2586 370.318 73.1025 369.94 73.1024 369.546H39.9178C37.9545 369.549 36.0723 370.332 34.684 371.724C33.2957 373.115 32.5146 375.002 32.5118 376.97Z" fill="#CCCCCC"/>
<path d="M67.1747 439.925H74.877V385.287H67.1747V439.925Z" fill="#CCCCCC"/>
<path d="M45.2529 439.654C45.2529 440.488 56.9244 439.977 71.322 439.977C85.7195 439.977 97.391 440.488 97.391 439.654C97.391 438.82 85.7195 432.205 71.322 432.205C56.9244 432.205 45.2529 438.82 45.2529 439.654Z" fill="#CCCCCC"/>
<path d="M110.537 432.97L117.895 432.969L121.395 404.521L110.536 404.521L110.537 432.97Z" fill="#A0616A"/>
<path d="M108.66 430.561L123.15 430.561H123.151C125.6 430.561 127.948 431.536 129.68 433.272C131.412 435.008 132.385 437.362 132.385 439.817V440.118L108.66 440.119L108.66 430.561Z" fill="#2F2E41"/>
<path d="M82.0554 417.861L76.0942 422.184L56.6212 401.194L65.4193 394.813L82.0554 417.861Z" fill="#A0616A"/>
<path d="M87.7566 422.55L68.5358 436.49L68.3598 436.247C66.9243 434.258 66.3357 431.779 66.7235 429.355C67.1113 426.931 68.4437 424.761 70.4276 423.322L70.4281 423.321L82.1676 414.807L87.7566 422.55Z" fill="#2F2E41"/>
<path d="M90.1082 307.277C90.1082 307.277 82.3886 301.481 74.0416 307.277L68.2645 355.577H85.611L88.1808 340.121L93.963 316.937L90.1082 307.277Z" fill="#CCCCCC"/>
<path d="M107.486 381.873L76.354 371.683L61.5125 383.489L77.2791 407.65L69.0327 418.491L68.7969 418.222C67.7738 417.054 43.7408 389.523 43.8103 381.715C43.8793 373.972 46.4386 366.189 46.4645 366.111L54.2714 355.003L65.3516 351.737L102.035 356.897L102.094 356.906L116.916 365.949C118.382 366.893 119.618 368.156 120.533 369.643C121.448 371.131 122.018 372.805 122.201 374.543C122.837 380.285 124.117 426.268 124.13 426.732L124.138 427.033H108.13L107.486 381.873Z" fill="#2F2E41"/>
<path d="M87.7409 370.336C82.33 367.925 75.4197 358.513 74.2808 356.926C72.0543 358.141 55.8177 366.839 51.2404 364.603C50.5755 364.971 47.5703 366.768 47.029 369.481L46.8933 370.161L46.5009 369.589C46.4287 369.484 39.3767 358.973 48.4995 352.441C56.8177 346.485 59.0556 340.468 59.29 339.78L54.7766 315.867L54.895 315.757C55.2652 315.412 64.0516 307.309 72.0686 306.345L77.0141 305.471L77.2304 324.343V348.504C81.2263 348.001 87.548 305.785 87.548 305.785L90.8515 306.998C91.7051 307.163 101.298 309.083 103.843 312.911L103.926 313.035L95.2012 336.681L92.6494 340.532V345.462L107.557 358.456L107.345 358.678C106.837 359.211 95.8445 370.672 89.441 370.67C88.8571 370.68 88.2778 370.566 87.7409 370.336Z" fill="#3F3D56"/>
<path d="M94.6697 293.151C98.4772 286.17 95.9174 277.416 88.9524 273.599C81.9874 269.783 73.2546 272.349 69.4472 279.33C65.6397 286.312 68.1995 295.066 75.1645 298.882C82.1295 302.699 90.8623 300.133 94.6697 293.151Z" fill="#A0616A"/>
<path d="M78.4396 374.626C78.5425 373.808 78.8232 373.023 79.2618 372.325C79.7004 371.627 80.2863 371.034 80.9782 370.588C81.6701 370.142 82.4512 369.853 83.2665 369.742C84.0817 369.632 84.9113 369.701 85.6968 369.946L93.9346 360.048L101.157 363.599L89.3274 377.414C88.8289 378.709 87.8736 379.776 86.6426 380.413C85.4116 381.05 83.9904 381.211 82.6483 380.868C81.3062 380.524 80.1365 379.699 79.3608 378.549C78.5851 377.398 78.2573 376.003 78.4396 374.626Z" fill="#A0616A"/>
<path d="M84.2621 366.232L97.1857 348.744L93.9845 331.416L99.178 311.894L99.3087 311.838C99.4134 311.793 101.899 310.743 103.791 311.53C104.178 311.69 104.528 311.929 104.818 312.231C105.108 312.534 105.333 312.893 105.478 313.287C106.764 316.509 109.863 349.324 109.994 350.777C109.968 351.042 109.332 357.301 108.038 359.895C106.75 362.477 95.0007 375.507 94.5013 376.061L94.2948 376.289L84.2621 366.232Z" fill="#3F3D56"/>
<path d="M94.4048 282.533C89.6206 288.564 81.4208 287.459 74.86 285.252C75.2417 290.08 73.9338 294.891 71.1609 298.858C72.0082 295.437 68.439 294.756 66.3563 293.483C65.5544 292.466 66.2206 290.947 65.8915 289.694C62.1518 285.299 59.6737 281.983 64.4741 276.825C67.2842 273.055 70.6571 268.347 76.0111 269.337C80.2476 264.383 87.1902 265.672 91.9271 269.137C94.0567 270.717 95.9939 272.541 97.6989 274.574C97.1538 277.248 96.1386 279.805 94.7008 282.123" fill="#2F2E41"/>
<path d="M172.421 441H7.43304C7.31819 441 7.20804 440.954 7.12683 440.873C7.04562 440.791 7 440.681 7 440.566C7 440.451 7.04562 440.34 7.12683 440.259C7.20804 440.178 7.31819 440.132 7.43304 440.132H172.421C172.536 440.132 172.646 440.178 172.727 440.259C172.809 440.34 172.854 440.451 172.854 440.566C172.854 440.681 172.809 440.791 172.727 440.873C172.646 440.954 172.536 441 172.421 441Z" fill="#3F3D56"/>
<path d="M90.5834 382.564H74.174C74.7892 374.974 76.7731 367.887 74.174 362.825H90.5833C93.6729 369.405 93.6729 375.984 90.5834 382.564Z" fill="#6C63FF"/>
<path d="M83.4136 378.838C83.3106 378.019 83.03 377.234 82.5914 376.536C82.1527 375.838 81.5669 375.245 80.8749 374.799C80.183 374.353 79.4019 374.064 78.5867 373.954C77.7714 373.843 76.9418 373.912 76.1564 374.158L67.9185 364.259L60.6964 367.81L72.5257 381.625C73.0242 382.92 73.9795 383.988 75.2105 384.624C76.4415 385.261 77.8627 385.423 79.2048 385.079C80.5469 384.735 81.7166 383.91 82.4923 382.76C83.268 381.61 83.5958 380.214 83.4136 378.838Z" fill="#A0616A"/>
<path d="M67.4466 377.064C66.7099 376.51 49.3803 363.454 47.4441 359.573C45.5052 355.685 45.9858 344.173 46.0109 343.65C46.0411 343.469 49.0581 325.478 51.6101 319.083C54.258 312.448 60.9181 315.028 60.9851 315.055L61.1864 315.136L58.2864 349.051L74.1048 370.085L67.6601 377.225L67.4466 377.064Z" fill="#3F3D56"/>
</g>
<defs>
<clipPath id="clip0_72_86">
<rect width="401" height="214" fill="white" transform="translate(7 227)"/>
</clipPath>
</defs>
</svg>
