<svg width="415" height="478" viewBox="0 0 415 478" fill="none" xmlns="http://www.w3.org/2000/svg">
<rect width="415" height="478" rx="25" fill="#9A46CA"/>
<path d="M46.676 71.298V67.8H52.055C53.155 67.8 54.002 67.525 54.596 66.975C55.212 66.403 55.52 65.622 55.52 64.632C55.52 63.73 55.212 62.982 54.596 62.388C54.002 61.772 53.155 61.464 52.055 61.464H46.676V57.801H52.451C53.947 57.801 55.256 58.098 56.378 58.692C57.522 59.264 58.402 60.056 59.018 61.068C59.656 62.08 59.975 63.246 59.975 64.566C59.975 65.93 59.656 67.118 59.018 68.13C58.402 69.12 57.522 69.901 56.378 70.473C55.234 71.023 53.903 71.298 52.385 71.298H46.676ZM43.376 81V57.801H47.864V81H43.376ZM56.048 81L48.392 70.968L52.517 69.681L61.493 81H56.048ZM70.0831 81.33C68.4111 81.33 66.9261 80.978 65.6281 80.274C64.3301 79.548 63.2961 78.558 62.5261 77.304C61.7781 76.05 61.4041 74.62 61.4041 73.014C61.4041 71.43 61.7671 70.022 62.4931 68.79C63.2411 67.536 64.2531 66.546 65.5291 65.82C66.8051 65.072 68.2241 64.698 69.7861 64.698C71.3261 64.698 72.6791 65.05 73.8451 65.754C75.0331 66.436 75.9571 67.382 76.6171 68.592C77.2991 69.78 77.6401 71.133 77.6401 72.651C77.6401 72.937 77.6181 73.234 77.5741 73.542C77.5521 73.828 77.4971 74.158 77.4091 74.532L64.0111 74.565V71.331L75.3961 71.298L73.6471 72.651C73.6031 71.705 73.4271 70.913 73.1191 70.275C72.8331 69.637 72.4041 69.153 71.8321 68.823C71.2821 68.471 70.6001 68.295 69.7861 68.295C68.9281 68.295 68.1801 68.493 67.5421 68.889C66.9041 69.263 66.4091 69.802 66.0571 70.506C65.7271 71.188 65.5621 72.002 65.5621 72.948C65.5621 73.916 65.7381 74.763 66.0901 75.489C66.4641 76.193 66.9921 76.743 67.6741 77.139C68.3561 77.513 69.1481 77.7 70.0501 77.7C70.8641 77.7 71.6011 77.568 72.2611 77.304C72.9211 77.018 73.4931 76.6 73.9771 76.05L76.5181 78.591C75.7481 79.493 74.8021 80.175 73.6801 80.637C72.5801 81.099 71.3811 81.33 70.0831 81.33ZM85.1316 81.363C84.2296 81.363 83.3386 81.242 82.4586 81C81.6006 80.758 80.8086 80.428 80.0826 80.01C79.3566 79.57 78.7296 79.042 78.2016 78.426L80.7756 75.819C81.3256 76.435 81.9636 76.897 82.6896 77.205C83.4156 77.513 84.2186 77.667 85.0986 77.667C85.8026 77.667 86.3306 77.568 86.6826 77.37C87.0566 77.172 87.2436 76.875 87.2436 76.479C87.2436 76.039 87.0456 75.698 86.6496 75.456C86.2756 75.214 85.7806 75.016 85.1646 74.862C84.5486 74.686 83.8996 74.499 83.2176 74.301C82.5576 74.081 81.9196 73.806 81.3036 73.476C80.6876 73.124 80.1816 72.651 79.7856 72.057C79.4116 71.441 79.2246 70.649 79.2246 69.681C79.2246 68.669 79.4666 67.789 79.9506 67.041C80.4566 66.293 81.1716 65.71 82.0956 65.292C83.0196 64.874 84.1086 64.665 85.3626 64.665C86.6826 64.665 87.8706 64.896 88.9266 65.358C90.0046 65.82 90.8956 66.513 91.5996 67.437L88.9926 70.044C88.5086 69.45 87.9586 69.021 87.3426 68.757C86.7486 68.493 86.0996 68.361 85.3956 68.361C84.7576 68.361 84.2626 68.46 83.9106 68.658C83.5806 68.856 83.4156 69.131 83.4156 69.483C83.4156 69.879 83.6026 70.187 83.9766 70.407C84.3726 70.627 84.8786 70.825 85.4946 71.001C86.1106 71.155 86.7486 71.342 87.4086 71.562C88.0906 71.76 88.7286 72.046 89.3226 72.42C89.9386 72.794 90.4336 73.289 90.8076 73.905C91.2036 74.521 91.4016 75.313 91.4016 76.281C91.4016 77.843 90.8406 79.086 89.7186 80.01C88.5966 80.912 87.0676 81.363 85.1316 81.363ZM100.455 81.33C99.0467 81.33 97.7927 81.033 96.6927 80.439C95.6147 79.845 94.7677 79.02 94.1517 77.964C93.5357 76.908 93.2277 75.687 93.2277 74.301V65.061H97.5837V74.202C97.5837 74.862 97.6937 75.434 97.9137 75.918C98.1337 76.38 98.4637 76.732 98.9037 76.974C99.3437 77.216 99.8607 77.337 100.455 77.337C101.357 77.337 102.061 77.062 102.567 76.512C103.073 75.962 103.326 75.192 103.326 74.202V65.061H107.649V74.301C107.649 75.709 107.341 76.941 106.725 77.997C106.131 79.053 105.284 79.878 104.184 80.472C103.106 81.044 101.863 81.33 100.455 81.33ZM110.431 81V65.061H114.754V81H110.431ZM120.826 81V71.595C120.826 70.671 120.529 69.956 119.935 69.45C119.363 68.922 118.648 68.658 117.79 68.658C117.218 68.658 116.701 68.779 116.239 69.021C115.777 69.241 115.414 69.571 115.15 70.011C114.886 70.451 114.754 70.979 114.754 71.595L113.071 70.77C113.071 69.538 113.335 68.471 113.863 67.569C114.413 66.667 115.15 65.974 116.074 65.49C116.998 64.984 118.043 64.731 119.209 64.731C120.309 64.731 121.31 64.984 122.212 65.49C123.114 65.974 123.829 66.667 124.357 67.569C124.885 68.449 125.149 69.516 125.149 70.77V81H120.826ZM131.221 81V71.595C131.221 70.671 130.924 69.956 130.33 69.45C129.758 68.922 129.043 68.658 128.185 68.658C127.635 68.658 127.118 68.779 126.634 69.021C126.172 69.241 125.809 69.571 125.545 70.011C125.281 70.451 125.149 70.979 125.149 71.595L122.674 71.001C122.762 69.725 123.103 68.625 123.697 67.701C124.291 66.755 125.072 66.029 126.04 65.523C127.008 64.995 128.086 64.731 129.274 64.731C130.462 64.731 131.529 64.984 132.475 65.49C133.421 65.974 134.169 66.678 134.719 67.602C135.269 68.526 135.544 69.626 135.544 70.902V81H131.221ZM145.879 81.33C144.273 81.33 142.821 80.967 141.523 80.241C140.247 79.493 139.224 78.492 138.454 77.238C137.706 75.962 137.332 74.543 137.332 72.981C137.332 71.419 137.706 70.022 138.454 68.79C139.202 67.536 140.225 66.546 141.523 65.82C142.821 65.072 144.262 64.698 145.846 64.698C147.474 64.698 148.926 65.072 150.202 65.82C151.5 66.546 152.523 67.536 153.271 68.79C154.019 70.022 154.393 71.419 154.393 72.981C154.393 74.543 154.019 75.962 153.271 77.238C152.523 78.492 151.5 79.493 150.202 80.241C148.926 80.967 147.485 81.33 145.879 81.33ZM145.846 77.304C146.66 77.304 147.375 77.128 147.991 76.776C148.629 76.402 149.113 75.896 149.443 75.258C149.795 74.598 149.971 73.85 149.971 73.014C149.971 72.178 149.795 71.441 149.443 70.803C149.091 70.165 148.607 69.67 147.991 69.318C147.375 68.944 146.66 68.757 145.846 68.757C145.054 68.757 144.35 68.944 143.734 69.318C143.118 69.67 142.634 70.165 142.282 70.803C141.93 71.441 141.754 72.178 141.754 73.014C141.754 73.85 141.93 74.598 142.282 75.258C142.634 75.896 143.118 76.402 143.734 76.776C144.35 77.128 145.054 77.304 145.846 77.304ZM161.995 81.363C161.093 81.363 160.202 81.242 159.322 81C158.464 80.758 157.672 80.428 156.946 80.01C156.22 79.57 155.593 79.042 155.065 78.426L157.639 75.819C158.189 76.435 158.827 76.897 159.553 77.205C160.279 77.513 161.082 77.667 161.962 77.667C162.666 77.667 163.194 77.568 163.546 77.37C163.92 77.172 164.107 76.875 164.107 76.479C164.107 76.039 163.909 75.698 163.513 75.456C163.139 75.214 162.644 75.016 162.028 74.862C161.412 74.686 160.763 74.499 160.081 74.301C159.421 74.081 158.783 73.806 158.167 73.476C157.551 73.124 157.045 72.651 156.649 72.057C156.275 71.441 156.088 70.649 156.088 69.681C156.088 68.669 156.33 67.789 156.814 67.041C157.32 66.293 158.035 65.71 158.959 65.292C159.883 64.874 160.972 64.665 162.226 64.665C163.546 64.665 164.734 64.896 165.79 65.358C166.868 65.82 167.759 66.513 168.463 67.437L165.856 70.044C165.372 69.45 164.822 69.021 164.206 68.757C163.612 68.493 162.963 68.361 162.259 68.361C161.621 68.361 161.126 68.46 160.774 68.658C160.444 68.856 160.279 69.131 160.279 69.483C160.279 69.879 160.466 70.187 160.84 70.407C161.236 70.627 161.742 70.825 162.358 71.001C162.974 71.155 163.612 71.342 164.272 71.562C164.954 71.76 165.592 72.046 166.186 72.42C166.802 72.794 167.297 73.289 167.671 73.905C168.067 74.521 168.265 75.313 168.265 76.281C168.265 77.843 167.704 79.086 166.582 80.01C165.46 80.912 163.931 81.363 161.995 81.363ZM180.067 81V77.337H186.106C187.184 77.337 188.02 77.007 188.614 76.347C189.23 75.687 189.538 74.906 189.538 74.004C189.538 73.388 189.406 72.827 189.142 72.321C188.878 71.815 188.482 71.419 187.954 71.133C187.448 70.825 186.832 70.671 186.106 70.671H180.067V67.041H185.611C186.535 67.041 187.272 66.81 187.822 66.348C188.394 65.886 188.68 65.193 188.68 64.269C188.68 63.323 188.394 62.619 187.822 62.157C187.272 61.695 186.535 61.464 185.611 61.464H180.067V57.801H186.139C187.679 57.801 188.966 58.087 190 58.659C191.056 59.209 191.848 59.946 192.376 60.87C192.904 61.772 193.168 62.762 193.168 63.84C193.168 65.16 192.761 66.304 191.947 67.272C191.155 68.218 189.989 68.922 188.449 69.384L188.647 67.932C190.363 68.416 191.683 69.219 192.607 70.341C193.553 71.441 194.026 72.772 194.026 74.334C194.026 75.566 193.718 76.688 193.102 77.7C192.508 78.69 191.628 79.493 190.462 80.109C189.318 80.703 187.921 81 186.271 81H180.067ZM176.767 81V57.801H181.222V81H176.767ZM203.129 81.33C201.677 81.33 200.368 80.967 199.202 80.241C198.036 79.515 197.123 78.525 196.463 77.271C195.803 76.017 195.473 74.609 195.473 73.047C195.473 71.463 195.803 70.044 196.463 68.79C197.123 67.536 198.036 66.546 199.202 65.82C200.368 65.094 201.677 64.731 203.129 64.731C204.273 64.731 205.296 64.962 206.198 65.424C207.1 65.886 207.815 66.535 208.343 67.371C208.893 68.185 209.19 69.109 209.234 70.143V75.885C209.19 76.941 208.893 77.876 208.343 78.69C207.815 79.504 207.1 80.153 206.198 80.637C205.296 81.099 204.273 81.33 203.129 81.33ZM203.921 77.337C205.131 77.337 206.11 76.941 206.858 76.149C207.606 75.335 207.98 74.29 207.98 73.014C207.98 72.178 207.804 71.441 207.452 70.803C207.122 70.143 206.649 69.637 206.033 69.285C205.439 68.911 204.735 68.724 203.921 68.724C203.129 68.724 202.425 68.911 201.809 69.285C201.215 69.637 200.742 70.143 200.39 70.803C200.06 71.441 199.895 72.178 199.895 73.014C199.895 73.872 200.06 74.631 200.39 75.291C200.742 75.929 201.215 76.435 201.809 76.809C202.425 77.161 203.129 77.337 203.921 77.337ZM207.749 81V76.71L208.442 72.816L207.749 68.988V65.061H212.039V81H207.749ZM220.682 81.363C219.78 81.363 218.889 81.242 218.009 81C217.151 80.758 216.359 80.428 215.633 80.01C214.907 79.57 214.28 79.042 213.752 78.426L216.326 75.819C216.876 76.435 217.514 76.897 218.24 77.205C218.966 77.513 219.769 77.667 220.649 77.667C221.353 77.667 221.881 77.568 222.233 77.37C222.607 77.172 222.794 76.875 222.794 76.479C222.794 76.039 222.596 75.698 222.2 75.456C221.826 75.214 221.331 75.016 220.715 74.862C220.099 74.686 219.45 74.499 218.768 74.301C218.108 74.081 217.47 73.806 216.854 73.476C216.238 73.124 215.732 72.651 215.336 72.057C214.962 71.441 214.775 70.649 214.775 69.681C214.775 68.669 215.017 67.789 215.501 67.041C216.007 66.293 216.722 65.71 217.646 65.292C218.57 64.874 219.659 64.665 220.913 64.665C222.233 64.665 223.421 64.896 224.477 65.358C225.555 65.82 226.446 66.513 227.15 67.437L224.543 70.044C224.059 69.45 223.509 69.021 222.893 68.757C222.299 68.493 221.65 68.361 220.946 68.361C220.308 68.361 219.813 68.46 219.461 68.658C219.131 68.856 218.966 69.131 218.966 69.483C218.966 69.879 219.153 70.187 219.527 70.407C219.923 70.627 220.429 70.825 221.045 71.001C221.661 71.155 222.299 71.342 222.959 71.562C223.641 71.76 224.279 72.046 224.873 72.42C225.489 72.794 225.984 73.289 226.358 73.905C226.754 74.521 226.952 75.313 226.952 76.281C226.952 77.843 226.391 79.086 225.269 80.01C224.147 80.912 222.618 81.363 220.682 81.363ZM236.83 81.33C235.158 81.33 233.673 80.978 232.375 80.274C231.077 79.548 230.043 78.558 229.273 77.304C228.525 76.05 228.151 74.62 228.151 73.014C228.151 71.43 228.514 70.022 229.24 68.79C229.988 67.536 231 66.546 232.276 65.82C233.552 65.072 234.971 64.698 236.533 64.698C238.073 64.698 239.426 65.05 240.592 65.754C241.78 66.436 242.704 67.382 243.364 68.592C244.046 69.78 244.387 71.133 244.387 72.651C244.387 72.937 244.365 73.234 244.321 73.542C244.299 73.828 244.244 74.158 244.156 74.532L230.758 74.565V71.331L242.143 71.298L240.394 72.651C240.35 71.705 240.174 70.913 239.866 70.275C239.58 69.637 239.151 69.153 238.579 68.823C238.029 68.471 237.347 68.295 236.533 68.295C235.675 68.295 234.927 68.493 234.289 68.889C233.651 69.263 233.156 69.802 232.804 70.506C232.474 71.188 232.309 72.002 232.309 72.948C232.309 73.916 232.485 74.763 232.837 75.489C233.211 76.193 233.739 76.743 234.421 77.139C235.103 77.513 235.895 77.7 236.797 77.7C237.611 77.7 238.348 77.568 239.008 77.304C239.668 77.018 240.24 76.6 240.724 76.05L243.265 78.591C242.495 79.493 241.549 80.175 240.427 80.637C239.327 81.099 238.128 81.33 236.83 81.33ZM253.132 81.33C251.658 81.33 250.338 80.967 249.172 80.241C248.006 79.515 247.082 78.525 246.4 77.271C245.74 76.017 245.41 74.609 245.41 73.047C245.41 71.463 245.74 70.044 246.4 68.79C247.082 67.536 247.995 66.546 249.139 65.82C250.305 65.094 251.636 64.731 253.132 64.731C254.276 64.731 255.299 64.962 256.201 65.424C257.125 65.886 257.862 66.535 258.412 67.371C258.984 68.185 259.292 69.109 259.336 70.143V75.819C259.292 76.853 258.995 77.788 258.445 78.624C257.895 79.46 257.158 80.12 256.234 80.604C255.31 81.088 254.276 81.33 253.132 81.33ZM253.858 77.337C254.672 77.337 255.376 77.161 255.97 76.809C256.586 76.435 257.059 75.929 257.389 75.291C257.741 74.631 257.917 73.872 257.917 73.014C257.917 72.178 257.741 71.441 257.389 70.803C257.059 70.143 256.586 69.637 255.97 69.285C255.376 68.911 254.683 68.724 253.891 68.724C253.077 68.724 252.362 68.911 251.746 69.285C251.152 69.659 250.679 70.165 250.327 70.803C249.997 71.441 249.832 72.178 249.832 73.014C249.832 73.872 249.997 74.631 250.327 75.291C250.679 75.929 251.163 76.435 251.779 76.809C252.395 77.161 253.088 77.337 253.858 77.337ZM261.976 81H257.686V76.71L258.379 72.816L257.653 68.988V57.141H261.976V81ZM272.632 81.33C271.026 81.33 269.574 80.967 268.276 80.241C267 79.493 265.977 78.492 265.207 77.238C264.459 75.962 264.085 74.543 264.085 72.981C264.085 71.419 264.459 70.022 265.207 68.79C265.955 67.536 266.978 66.546 268.276 65.82C269.574 65.072 271.015 64.698 272.599 64.698C274.227 64.698 275.679 65.072 276.955 65.82C278.253 66.546 279.276 67.536 280.024 68.79C280.772 70.022 281.146 71.419 281.146 72.981C281.146 74.543 280.772 75.962 280.024 77.238C279.276 78.492 278.253 79.493 276.955 80.241C275.679 80.967 274.238 81.33 272.632 81.33ZM272.599 77.304C273.413 77.304 274.128 77.128 274.744 76.776C275.382 76.402 275.866 75.896 276.196 75.258C276.548 74.598 276.724 73.85 276.724 73.014C276.724 72.178 276.548 71.441 276.196 70.803C275.844 70.165 275.36 69.67 274.744 69.318C274.128 68.944 273.413 68.757 272.599 68.757C271.807 68.757 271.103 68.944 270.487 69.318C269.871 69.67 269.387 70.165 269.035 70.803C268.683 71.441 268.507 72.178 268.507 73.014C268.507 73.85 268.683 74.598 269.035 75.258C269.387 75.896 269.871 76.402 270.487 76.776C271.103 77.128 271.807 77.304 272.599 77.304ZM288.747 81.363C287.845 81.363 286.954 81.242 286.074 81C285.216 80.758 284.424 80.428 283.698 80.01C282.972 79.57 282.345 79.042 281.817 78.426L284.391 75.819C284.941 76.435 285.579 76.897 286.305 77.205C287.031 77.513 287.834 77.667 288.714 77.667C289.418 77.667 289.946 77.568 290.298 77.37C290.672 77.172 290.859 76.875 290.859 76.479C290.859 76.039 290.661 75.698 290.265 75.456C289.891 75.214 289.396 75.016 288.78 74.862C288.164 74.686 287.515 74.499 286.833 74.301C286.173 74.081 285.535 73.806 284.919 73.476C284.303 73.124 283.797 72.651 283.401 72.057C283.027 71.441 282.84 70.649 282.84 69.681C282.84 68.669 283.082 67.789 283.566 67.041C284.072 66.293 284.787 65.71 285.711 65.292C286.635 64.874 287.724 64.665 288.978 64.665C290.298 64.665 291.486 64.896 292.542 65.358C293.62 65.82 294.511 66.513 295.215 67.437L292.608 70.044C292.124 69.45 291.574 69.021 290.958 68.757C290.364 68.493 289.715 68.361 289.011 68.361C288.373 68.361 287.878 68.46 287.526 68.658C287.196 68.856 287.031 69.131 287.031 69.483C287.031 69.879 287.218 70.187 287.592 70.407C287.988 70.627 288.494 70.825 289.11 71.001C289.726 71.155 290.364 71.342 291.024 71.562C291.706 71.76 292.344 72.046 292.938 72.42C293.554 72.794 294.049 73.289 294.423 73.905C294.819 74.521 295.017 75.313 295.017 76.281C295.017 77.843 294.456 79.086 293.334 80.01C292.212 80.912 290.683 81.363 288.747 81.363ZM43.376 123V99.801H46.511L47.864 104.289V123H43.376ZM59.414 123L45.653 105.18L46.511 99.801L60.272 117.621L59.414 123ZM59.414 123L58.127 118.644V99.801H62.648V123H59.414ZM73.7216 123.33C72.1156 123.33 70.6636 122.967 69.3656 122.241C68.0896 121.493 67.0666 120.492 66.2966 119.238C65.5486 117.962 65.1746 116.543 65.1746 114.981C65.1746 113.419 65.5486 112.022 66.2966 110.79C67.0446 109.536 68.0676 108.546 69.3656 107.82C70.6636 107.072 72.1046 106.698 73.6886 106.698C75.3166 106.698 76.7686 107.072 78.0446 107.82C79.3426 108.546 80.3656 109.536 81.1136 110.79C81.8616 112.022 82.2356 113.419 82.2356 114.981C82.2356 116.543 81.8616 117.962 81.1136 119.238C80.3656 120.492 79.3426 121.493 78.0446 122.241C76.7686 122.967 75.3276 123.33 73.7216 123.33ZM73.6886 119.304C74.5026 119.304 75.2176 119.128 75.8336 118.776C76.4716 118.402 76.9556 117.896 77.2856 117.258C77.6376 116.598 77.8136 115.85 77.8136 115.014C77.8136 114.178 77.6376 113.441 77.2856 112.803C76.9336 112.165 76.4496 111.67 75.8336 111.318C75.2176 110.944 74.5026 110.757 73.6886 110.757C72.8966 110.757 72.1926 110.944 71.5766 111.318C70.9606 111.67 70.4766 112.165 70.1246 112.803C69.7726 113.441 69.5966 114.178 69.5966 115.014C69.5966 115.85 69.7726 116.598 70.1246 117.258C70.4766 117.896 70.9606 118.402 71.5766 118.776C72.1926 119.128 72.8966 119.304 73.6886 119.304ZM89.8366 123.363C88.9346 123.363 88.0436 123.242 87.1636 123C86.3056 122.758 85.5136 122.428 84.7876 122.01C84.0616 121.57 83.4346 121.042 82.9066 120.426L85.4806 117.819C86.0306 118.435 86.6686 118.897 87.3946 119.205C88.1206 119.513 88.9236 119.667 89.8036 119.667C90.5076 119.667 91.0356 119.568 91.3876 119.37C91.7616 119.172 91.9486 118.875 91.9486 118.479C91.9486 118.039 91.7506 117.698 91.3546 117.456C90.9806 117.214 90.4856 117.016 89.8696 116.862C89.2536 116.686 88.6046 116.499 87.9226 116.301C87.2626 116.081 86.6246 115.806 86.0086 115.476C85.3926 115.124 84.8866 114.651 84.4906 114.057C84.1166 113.441 83.9296 112.649 83.9296 111.681C83.9296 110.669 84.1716 109.789 84.6556 109.041C85.1616 108.293 85.8766 107.71 86.8006 107.292C87.7246 106.874 88.8136 106.665 90.0676 106.665C91.3876 106.665 92.5756 106.896 93.6316 107.358C94.7096 107.82 95.6006 108.513 96.3046 109.437L93.6976 112.044C93.2136 111.45 92.6636 111.021 92.0476 110.757C91.4536 110.493 90.8046 110.361 90.1006 110.361C89.4626 110.361 88.9676 110.46 88.6156 110.658C88.2856 110.856 88.1206 111.131 88.1206 111.483C88.1206 111.879 88.3076 112.187 88.6816 112.407C89.0776 112.627 89.5836 112.825 90.1996 113.001C90.8156 113.155 91.4536 113.342 92.1136 113.562C92.7956 113.76 93.4336 114.046 94.0276 114.42C94.6436 114.794 95.1386 115.289 95.5126 115.905C95.9086 116.521 96.1066 117.313 96.1066 118.281C96.1066 119.843 95.5456 121.086 94.4236 122.01C93.3016 122.912 91.7726 123.363 89.8366 123.363ZM111.341 123.33C109.471 123.33 107.865 123.011 106.523 122.373C105.203 121.735 104.004 120.778 102.926 119.502L105.896 116.532C106.578 117.434 107.37 118.138 108.272 118.644C109.174 119.128 110.274 119.37 111.572 119.37C112.738 119.37 113.662 119.139 114.344 118.677C115.048 118.215 115.4 117.577 115.4 116.763C115.4 116.059 115.202 115.487 114.806 115.047C114.41 114.607 113.882 114.233 113.222 113.925C112.584 113.617 111.869 113.342 111.077 113.1C110.307 112.836 109.526 112.539 108.734 112.209C107.964 111.879 107.249 111.472 106.589 110.988C105.951 110.482 105.434 109.844 105.038 109.074C104.642 108.282 104.444 107.292 104.444 106.104C104.444 104.696 104.785 103.497 105.467 102.507C106.149 101.517 107.084 100.758 108.272 100.23C109.46 99.702 110.802 99.438 112.298 99.438C113.882 99.438 115.312 99.735 116.588 100.329C117.864 100.923 118.909 101.693 119.723 102.639L116.753 105.609C116.071 104.861 115.367 104.311 114.641 103.959C113.937 103.607 113.134 103.431 112.232 103.431C111.198 103.431 110.384 103.629 109.79 104.025C109.196 104.421 108.899 104.993 108.899 105.741C108.899 106.379 109.097 106.896 109.493 107.292C109.889 107.688 110.406 108.029 111.044 108.315C111.704 108.601 112.419 108.876 113.189 109.14C113.981 109.404 114.762 109.701 115.532 110.031C116.324 110.361 117.039 110.79 117.677 111.318C118.337 111.846 118.865 112.528 119.261 113.364C119.657 114.178 119.855 115.19 119.855 116.4C119.855 118.556 119.096 120.25 117.578 121.482C116.06 122.714 113.981 123.33 111.341 123.33ZM129.769 123.33C128.097 123.33 126.612 122.978 125.314 122.274C124.016 121.548 122.982 120.558 122.212 119.304C121.464 118.05 121.09 116.62 121.09 115.014C121.09 113.43 121.453 112.022 122.179 110.79C122.927 109.536 123.939 108.546 125.215 107.82C126.491 107.072 127.91 106.698 129.472 106.698C131.012 106.698 132.365 107.05 133.531 107.754C134.719 108.436 135.643 109.382 136.303 110.592C136.985 111.78 137.326 113.133 137.326 114.651C137.326 114.937 137.304 115.234 137.26 115.542C137.238 115.828 137.183 116.158 137.095 116.532L123.697 116.565V113.331L135.082 113.298L133.333 114.651C133.289 113.705 133.113 112.913 132.805 112.275C132.519 111.637 132.09 111.153 131.518 110.823C130.968 110.471 130.286 110.295 129.472 110.295C128.614 110.295 127.866 110.493 127.228 110.889C126.59 111.263 126.095 111.802 125.743 112.506C125.413 113.188 125.248 114.002 125.248 114.948C125.248 115.916 125.424 116.763 125.776 117.489C126.15 118.193 126.678 118.743 127.36 119.139C128.042 119.513 128.834 119.7 129.736 119.7C130.55 119.7 131.287 119.568 131.947 119.304C132.607 119.018 133.179 118.6 133.663 118.05L136.204 120.591C135.434 121.493 134.488 122.175 133.366 122.637C132.266 123.099 131.067 123.33 129.769 123.33ZM146.138 123.33C144.73 123.33 143.476 123.033 142.376 122.439C141.298 121.845 140.451 121.02 139.835 119.964C139.219 118.908 138.911 117.687 138.911 116.301V107.061H143.267V116.202C143.267 116.862 143.377 117.434 143.597 117.918C143.817 118.38 144.147 118.732 144.587 118.974C145.027 119.216 145.544 119.337 146.138 119.337C147.04 119.337 147.744 119.062 148.25 118.512C148.756 117.962 149.009 117.192 149.009 116.202V107.061H153.332V116.301C153.332 117.709 153.024 118.941 152.408 119.997C151.814 121.053 150.967 121.878 149.867 122.472C148.789 123.044 147.546 123.33 146.138 123.33ZM161.592 123.363C160.69 123.363 159.799 123.242 158.919 123C158.061 122.758 157.269 122.428 156.543 122.01C155.817 121.57 155.19 121.042 154.662 120.426L157.236 117.819C157.786 118.435 158.424 118.897 159.15 119.205C159.876 119.513 160.679 119.667 161.559 119.667C162.263 119.667 162.791 119.568 163.143 119.37C163.517 119.172 163.704 118.875 163.704 118.479C163.704 118.039 163.506 117.698 163.11 117.456C162.736 117.214 162.241 117.016 161.625 116.862C161.009 116.686 160.36 116.499 159.678 116.301C159.018 116.081 158.38 115.806 157.764 115.476C157.148 115.124 156.642 114.651 156.246 114.057C155.872 113.441 155.685 112.649 155.685 111.681C155.685 110.669 155.927 109.789 156.411 109.041C156.917 108.293 157.632 107.71 158.556 107.292C159.48 106.874 160.569 106.665 161.823 106.665C163.143 106.665 164.331 106.896 165.387 107.358C166.465 107.82 167.356 108.513 168.06 109.437L165.453 112.044C164.969 111.45 164.419 111.021 163.803 110.757C163.209 110.493 162.56 110.361 161.856 110.361C161.218 110.361 160.723 110.46 160.371 110.658C160.041 110.856 159.876 111.131 159.876 111.483C159.876 111.879 160.063 112.187 160.437 112.407C160.833 112.627 161.339 112.825 161.955 113.001C162.571 113.155 163.209 113.342 163.869 113.562C164.551 113.76 165.189 114.046 165.783 114.42C166.399 114.794 166.894 115.289 167.268 115.905C167.664 116.521 167.862 117.313 167.862 118.281C167.862 119.843 167.301 121.086 166.179 122.01C165.057 122.912 163.528 123.363 161.592 123.363ZM176.365 123V99.801H180.853V123H176.365ZM179.665 123V119.04H192.502V123H179.665ZM179.665 113.067V109.239H191.347V113.067H179.665ZM179.665 103.761V99.801H192.337V103.761H179.665ZM205.06 123L200.869 116.532L199.978 115.872L193.774 107.061H198.889L202.75 112.902L203.575 113.529L210.142 123H205.06ZM193.444 123L199.945 113.892L202.42 116.829L198.328 123H193.444ZM203.74 115.839L201.199 112.935L204.994 107.061H209.845L203.74 115.839ZM217.955 123.33C216.503 123.33 215.194 122.967 214.028 122.241C212.862 121.515 211.949 120.525 211.289 119.271C210.629 118.017 210.299 116.609 210.299 115.047C210.299 113.463 210.629 112.044 211.289 110.79C211.949 109.536 212.862 108.546 214.028 107.82C215.194 107.094 216.503 106.731 217.955 106.731C219.099 106.731 220.122 106.962 221.024 107.424C221.926 107.886 222.641 108.535 223.169 109.371C223.719 110.185 224.016 111.109 224.06 112.143V117.885C224.016 118.941 223.719 119.876 223.169 120.69C222.641 121.504 221.926 122.153 221.024 122.637C220.122 123.099 219.099 123.33 217.955 123.33ZM218.747 119.337C219.957 119.337 220.936 118.941 221.684 118.149C222.432 117.335 222.806 116.29 222.806 115.014C222.806 114.178 222.63 113.441 222.278 112.803C221.948 112.143 221.475 111.637 220.859 111.285C220.265 110.911 219.561 110.724 218.747 110.724C217.955 110.724 217.251 110.911 216.635 111.285C216.041 111.637 215.568 112.143 215.216 112.803C214.886 113.441 214.721 114.178 214.721 115.014C214.721 115.872 214.886 116.631 215.216 117.291C215.568 117.929 216.041 118.435 216.635 118.809C217.251 119.161 217.955 119.337 218.747 119.337ZM222.575 123V118.71L223.268 114.816L222.575 110.988V107.061H226.865V123H222.575ZM230.029 123V107.061H234.352V123H230.029ZM240.424 123V113.595C240.424 112.671 240.127 111.956 239.533 111.45C238.961 110.922 238.246 110.658 237.388 110.658C236.816 110.658 236.299 110.779 235.837 111.021C235.375 111.241 235.012 111.571 234.748 112.011C234.484 112.451 234.352 112.979 234.352 113.595L232.669 112.77C232.669 111.538 232.933 110.471 233.461 109.569C234.011 108.667 234.748 107.974 235.672 107.49C236.596 106.984 237.641 106.731 238.807 106.731C239.907 106.731 240.908 106.984 241.81 107.49C242.712 107.974 243.427 108.667 243.955 109.569C244.483 110.449 244.747 111.516 244.747 112.77V123H240.424ZM250.819 123V113.595C250.819 112.671 250.522 111.956 249.928 111.45C249.356 110.922 248.641 110.658 247.783 110.658C247.233 110.658 246.716 110.779 246.232 111.021C245.77 111.241 245.407 111.571 245.143 112.011C244.879 112.451 244.747 112.979 244.747 113.595L242.272 113.001C242.36 111.725 242.701 110.625 243.295 109.701C243.889 108.755 244.67 108.029 245.638 107.523C246.606 106.995 247.684 106.731 248.872 106.731C250.06 106.731 251.127 106.984 252.073 107.49C253.019 107.974 253.767 108.678 254.317 109.602C254.867 110.526 255.142 111.626 255.142 112.902V123H250.819ZM265.609 123.33C263.937 123.33 262.452 122.978 261.154 122.274C259.856 121.548 258.822 120.558 258.052 119.304C257.304 118.05 256.93 116.62 256.93 115.014C256.93 113.43 257.293 112.022 258.019 110.79C258.767 109.536 259.779 108.546 261.055 107.82C262.331 107.072 263.75 106.698 265.312 106.698C266.852 106.698 268.205 107.05 269.371 107.754C270.559 108.436 271.483 109.382 272.143 110.592C272.825 111.78 273.166 113.133 273.166 114.651C273.166 114.937 273.144 115.234 273.1 115.542C273.078 115.828 273.023 116.158 272.935 116.532L259.537 116.565V113.331L270.922 113.298L269.173 114.651C269.129 113.705 268.953 112.913 268.645 112.275C268.359 111.637 267.93 111.153 267.358 110.823C266.808 110.471 266.126 110.295 265.312 110.295C264.454 110.295 263.706 110.493 263.068 110.889C262.43 111.263 261.935 111.802 261.583 112.506C261.253 113.188 261.088 114.002 261.088 114.948C261.088 115.916 261.264 116.763 261.616 117.489C261.99 118.193 262.518 118.743 263.2 119.139C263.882 119.513 264.674 119.7 265.576 119.7C266.39 119.7 267.127 119.568 267.787 119.304C268.447 119.018 269.019 118.6 269.503 118.05L272.044 120.591C271.274 121.493 270.328 122.175 269.206 122.637C268.106 123.099 266.907 123.33 265.609 123.33ZM280.658 123.363C279.756 123.363 278.865 123.242 277.985 123C277.127 122.758 276.335 122.428 275.609 122.01C274.883 121.57 274.256 121.042 273.728 120.426L276.302 117.819C276.852 118.435 277.49 118.897 278.216 119.205C278.942 119.513 279.745 119.667 280.625 119.667C281.329 119.667 281.857 119.568 282.209 119.37C282.583 119.172 282.77 118.875 282.77 118.479C282.77 118.039 282.572 117.698 282.176 117.456C281.802 117.214 281.307 117.016 280.691 116.862C280.075 116.686 279.426 116.499 278.744 116.301C278.084 116.081 277.446 115.806 276.83 115.476C276.214 115.124 275.708 114.651 275.312 114.057C274.938 113.441 274.751 112.649 274.751 111.681C274.751 110.669 274.993 109.789 275.477 109.041C275.983 108.293 276.698 107.71 277.622 107.292C278.546 106.874 279.635 106.665 280.889 106.665C282.209 106.665 283.397 106.896 284.453 107.358C285.531 107.82 286.422 108.513 287.126 109.437L284.519 112.044C284.035 111.45 283.485 111.021 282.869 110.757C282.275 110.493 281.626 110.361 280.922 110.361C280.284 110.361 279.789 110.46 279.437 110.658C279.107 110.856 278.942 111.131 278.942 111.483C278.942 111.879 279.129 112.187 279.503 112.407C279.899 112.627 280.405 112.825 281.021 113.001C281.637 113.155 282.275 113.342 282.935 113.562C283.617 113.76 284.255 114.046 284.849 114.42C285.465 114.794 285.96 115.289 286.334 115.905C286.73 116.521 286.928 117.313 286.928 118.281C286.928 119.843 286.367 121.086 285.245 122.01C284.123 122.912 282.594 123.363 280.658 123.363Z" fill="#252B61"/>
<g clip-path="url(#clip0_72_31)">
<path d="M216.92 189.163H123.474V291.547H216.92V189.163Z" fill="#F2F2F2"/>
<path d="M226.34 179.376H132.894V281.76H226.34V179.376Z" stroke="#3F3D56" stroke-width="2" stroke-miterlimit="10"/>
<path d="M142.831 270.21H137.793V275.243H142.831V270.21Z" fill="#6C63FF"/>
<path d="M150.108 270.21H145.07V275.243H150.108V270.21Z" fill="#3F3D56"/>
<path d="M157.386 270.21H152.348V275.243H157.386V270.21Z" fill="#575A89"/>
<path d="M213.905 272.396H194.312V273.189H213.905V272.396Z" fill="#3F3D56"/>
<path d="M213.905 274.776H194.312V275.57H213.905V274.776Z" fill="#3F3D56"/>
<path d="M213.905 277.157H194.312V277.951H213.905V277.157Z" fill="#3F3D56"/>
<path d="M179.617 197.444V205.725C184.535 205.725 189.344 207.182 193.433 209.912C197.523 212.642 200.71 216.522 202.593 221.061C204.475 225.601 204.967 230.596 204.008 235.415C203.048 240.234 200.68 244.661 197.202 248.135L203.063 253.991C207.701 249.358 210.859 243.456 212.138 237.031C213.417 230.605 212.761 223.945 210.251 217.892C207.741 211.84 203.491 206.666 198.039 203.027C192.586 199.387 186.175 197.444 179.617 197.444Z" fill="#3F3D56"/>
<path d="M203.063 253.991L197.202 248.135C192.95 252.383 187.301 254.948 181.302 255.354C175.302 255.761 169.358 253.981 164.571 250.345L159.554 256.94C165.937 261.787 173.863 264.159 181.862 263.616C189.862 263.074 197.394 259.654 203.063 253.991Z" fill="#575A89"/>
<path d="M154.749 230.568C154.749 223.979 157.369 217.661 162.032 213.002C166.696 208.343 173.022 205.725 179.617 205.725V197.444C172.676 197.444 165.91 199.62 160.272 203.666C154.635 207.711 150.41 213.422 148.194 219.993C145.978 226.565 145.882 233.665 147.92 240.294C149.958 246.922 154.027 252.745 159.554 256.94L164.571 250.345C161.516 248.03 159.04 245.04 157.335 241.609C155.631 238.178 154.746 234.399 154.749 230.568Z" fill="#6C63FF"/>
<path d="M241.835 396.152C239.354 396.152 236.899 395.664 234.607 394.716C232.316 393.768 230.234 392.378 228.48 390.626C226.727 388.874 225.335 386.794 224.386 384.505C223.437 382.216 222.949 379.763 222.949 377.285V355.311C222.949 311.343 258.628 275.7 302.641 275.7C346.654 275.7 382.334 311.343 382.334 355.311V372.586C382.334 375.681 381.724 378.745 380.538 381.604C379.353 384.463 377.615 387.061 375.424 389.25C373.234 391.438 370.633 393.174 367.771 394.358C364.909 395.542 361.842 396.152 358.744 396.152" fill="#F2F2F2"/>
<path d="M366.657 419.866V419.113C372.811 419.106 378.711 416.661 383.063 412.313C387.415 407.966 389.863 402.072 389.87 395.924V350.794C389.87 307.104 354.289 271.56 310.554 271.56C266.819 271.56 231.238 307.104 231.238 350.794V400.623C231.244 405.525 233.196 410.225 236.666 413.691C240.135 417.158 244.84 419.107 249.747 419.113V419.866C244.64 419.86 239.744 417.831 236.133 414.223C232.522 410.616 230.49 405.725 230.485 400.623V350.794C230.485 306.689 266.404 270.807 310.554 270.807C354.704 270.807 390.623 306.689 390.623 350.794V395.924C390.616 402.271 388.089 408.357 383.596 412.845C379.102 417.334 373.011 419.859 366.657 419.866Z" fill="#3F3D56"/>
<path d="M391 390.882H230.108V457.13H391V390.882Z" fill="#3F3D56"/>
<path d="M335.14 322.787L319.785 333.692L330.701 349.031L346.056 338.126L335.14 322.787Z" fill="#6C63FF"/>
<path d="M336.376 318.677L321.021 329.582L331.937 344.921L347.292 334.016L336.376 318.677Z" stroke="#3F3D56" stroke-width="2" stroke-miterlimit="10"/>
<path d="M306.598 315.6C310.968 315.6 314.51 312.061 314.51 307.695C314.51 303.33 310.968 299.791 306.598 299.791C302.227 299.791 298.685 303.33 298.685 307.695C298.685 312.061 302.227 315.6 306.598 315.6Z" fill="#6C63FF"/>
<path d="M304.337 314.471C308.707 314.471 312.25 310.932 312.25 306.566C312.25 302.2 308.707 298.661 304.337 298.661C299.967 298.661 296.424 302.2 296.424 306.566C296.424 310.932 299.967 314.471 304.337 314.471Z" stroke="#3F3D56" stroke-width="2" stroke-miterlimit="10"/>
<path d="M283.211 339.283L292.682 344.729L302.152 350.175L292.696 355.645L283.24 361.115L283.226 350.199L283.211 339.283Z" fill="#6C63FF"/>
<path d="M281.689 343.418L291.159 348.864L300.63 354.309L291.174 359.78L281.718 365.25L281.703 354.334L281.689 343.418Z" stroke="#3F3D56" stroke-width="2" stroke-miterlimit="10"/>
<path d="M244.59 321.556C246.026 316.431 248.679 311.729 252.323 307.847C255.968 303.966 260.496 301.021 265.524 299.262C266.892 298.793 266.304 296.61 264.923 297.085C259.522 298.955 254.654 302.103 250.734 306.26C246.814 310.416 243.958 315.458 242.41 320.956C242.022 322.359 244.203 322.957 244.59 321.556Z" fill="white"/>
<path d="M240.302 333.89C241.757 333.89 241.759 331.631 240.302 331.631C238.847 331.631 238.845 333.89 240.302 333.89Z" fill="white"/>
<path d="M146.403 310.567L111.207 299.41L97.5311 342.464L132.728 353.621L146.403 310.567Z" fill="#F2F2F2"/>
<path d="M130.187 313.679L116.367 309.298L116.125 310.062L129.945 314.442L130.187 313.679Z" fill="#3F3D56"/>
<path d="M136.032 317.083L115.92 310.708L115.677 311.471L135.789 317.847L136.032 317.083Z" fill="#3F3D56"/>
<path d="M128.657 318.496L114.837 314.115L114.595 314.879L128.415 319.26L128.657 318.496Z" fill="#3F3D56"/>
<path d="M126.866 324.136L113.046 319.755L112.803 320.519L126.623 324.899L126.866 324.136Z" fill="#3F3D56"/>
<path d="M134.502 321.9L114.389 315.525L114.147 316.289L134.259 322.664L134.502 321.9Z" fill="#3F3D56"/>
<path d="M134.054 323.31L113.942 316.935L113.699 317.699L133.811 324.074L134.054 323.31Z" fill="#3F3D56"/>
<path d="M133.606 324.72L113.494 318.345L113.251 319.109L133.363 325.484L133.606 324.72Z" fill="#3F3D56"/>
<path d="M119.197 325.455L111.964 323.162L111.329 325.16L118.563 327.453L119.197 325.455Z" fill="#6C63FF"/>
<path d="M73.3604 464C100.621 464 122.721 461.135 122.721 457.601C122.721 454.067 100.621 451.202 73.3604 451.202C46.0994 451.202 24 454.067 24 457.601C24 461.135 46.0994 464 73.3604 464Z" fill="#3F3D56"/>
<path d="M50.0454 280.453L48.4058 284.343L50.2504 309.526C50.2504 309.526 49.2256 310.96 50.2504 311.983C51.2751 313.007 51.0702 313.417 51.0702 313.417C51.0702 313.417 49.4305 313.417 50.2504 314.645C51.0702 315.874 51.0702 316.488 51.0702 316.488L50.6603 317.716C50.6603 317.716 51.4801 318.74 51.4801 319.559C51.4801 320.378 56.8089 345.562 56.8089 345.562L61.9328 335.529L59.0634 295.604L50.0454 280.453Z" fill="#6C63FF"/>
<path d="M102.659 344.494C102.659 344.494 113.85 344.042 117.418 347.986C120.986 351.929 103.4 349.076 102.406 347.965C101.411 346.854 102.659 344.494 102.659 344.494Z" fill="#FFB9B9"/>
<path d="M47.3809 443.839L45.1264 451.21C45.1264 451.21 41.8472 458.376 46.3561 459.4C50.8651 460.424 55.1692 456.534 55.1692 456.534V451.62L56.8089 443.839H47.3809Z" fill="#2F2E41"/>
<path d="M84.2729 443.839C84.2729 443.839 83.2481 457.762 85.5026 458.581C87.7571 459.4 95.7504 459.605 95.9553 458.581C96.1603 457.557 98.6198 456.534 96.7752 455.1C94.9306 453.667 93.7008 445.273 93.7008 445.273L84.2729 443.839Z" fill="#2F2E41"/>
<path d="M63.5723 311.983V318.126C63.5723 318.126 56.8088 332.253 54.3493 354.57C51.8898 376.888 43.4867 444.863 45.5363 446.092C47.5858 447.32 69.7209 448.139 70.3358 446.501C70.9507 444.863 71.5655 396.953 71.5655 396.953L79.1489 363.17C79.1489 363.17 80.5835 375.25 81.8133 377.297C83.043 379.345 79.7637 445.887 81.8133 446.911C83.8628 447.934 111.532 449.777 111.122 446.501C110.712 443.225 101.489 354.366 101.489 354.366C101.489 354.366 96.775 312.393 95.3403 311.983C93.9057 311.574 80.7885 311.164 78.739 311.574C76.6894 311.983 63.5723 311.983 63.5723 311.983Z" fill="#2F2E41"/>
<path d="M79.149 261.207C85.601 261.207 90.8314 255.982 90.8314 249.536C90.8314 243.091 85.601 237.866 79.149 237.866C72.697 237.866 67.4666 243.091 67.4666 249.536C67.4666 255.982 72.697 261.207 79.149 261.207Z" fill="#FFB9B9"/>
<path d="M81.6085 259.364C81.6085 259.364 75.6648 268.577 77.0995 271.034C78.5342 273.491 61.9329 268.577 61.9329 268.577C61.9329 268.577 71.9757 256.293 71.7707 254.859C71.5657 253.426 81.6085 259.364 81.6085 259.364Z" fill="#FFB9B9"/>
<path d="M93.9057 273.082C93.9057 273.082 83.0431 269.601 81.6084 268.168C80.6881 267.229 79.8642 266.2 79.149 265.097C79.149 265.097 66.0319 263.254 65.622 263.254C65.2121 263.254 62.1377 266.94 61.3179 267.759C60.4981 268.578 50.0454 274.106 50.0454 275.539C50.0454 276.972 48.4058 284.343 48.4058 284.343C48.4058 284.343 52.0949 291.918 54.3495 293.556C56.604 295.194 57.2188 294.785 57.4238 297.447C57.6287 300.108 60.4981 304.408 60.4981 304.408C60.4981 304.408 62.3427 309.117 61.9328 310.55C61.5229 311.984 59.6783 313.212 63.9823 312.803C68.2864 312.393 89.6017 313.622 89.6017 311.369C89.6017 309.117 85.5026 287.619 85.5026 287.619L93.9057 273.082Z" fill="#6C63FF"/>
<path d="M90.0117 273.491L93.9058 273.082C93.9058 273.082 95.3405 273.901 95.5455 281.886C95.7504 289.871 95.7504 309.117 97.1851 310.755C98.6198 312.393 104.563 337.781 104.563 337.781C104.563 337.781 106.203 338.191 106.203 339.624C106.203 341.057 108.048 342.286 107.228 343.924C106.408 345.562 108.048 345.152 107.023 346.176C105.998 347.2 101.079 349.247 100.874 348.019C100.669 346.79 101.489 346.585 100.669 346.176C99.8495 345.766 99.8495 345.562 99.6446 344.128C99.4396 342.695 97.595 341.262 97.8 340.648C98.0049 340.033 88.782 322.221 88.782 321.606C88.782 320.992 88.1671 318.74 87.3473 318.33C86.5274 317.921 85.2977 317.512 85.9126 316.488C86.5275 315.464 84.2729 284.752 84.2729 284.752L90.0117 273.491Z" fill="#6C63FF"/>
<path d="M89.0281 242.135C85.4457 238.25 79.8198 236.188 74.6605 237.344C69.5012 238.499 65.1568 243.075 64.7534 248.342C64.6709 249.419 64.7396 250.519 64.4606 251.563C63.9912 253.319 62.5947 254.711 62.1023 256.46C61.7726 257.632 61.8703 258.893 61.5208 260.059C60.875 262.214 58.8761 263.619 57.3526 265.275C56.7356 265.881 56.2774 266.63 56.0183 267.456C55.8844 268.188 55.8504 268.934 55.9174 269.675C55.9816 273.67 54.4951 277.533 51.7698 280.457C53.3723 279.267 55.1036 278.262 56.9311 277.459C56.0253 280.341 56.8534 283.75 59.1325 285.735C61.4117 287.719 65.0622 288.028 67.5265 286.278C68.9905 285.238 69.9413 283.643 70.8495 282.095L74.2881 276.234C74.9101 275.173 75.5594 274.082 76.5532 273.358C77.343 272.783 78.3026 272.477 79.0976 271.908C81.103 270.475 81.6414 267.67 81.268 265.235C80.8946 262.8 79.7985 260.539 79.1698 258.157C78.6726 256.273 78.5166 254.114 79.6351 252.518C81.1199 250.4 84.1713 250.129 86.1889 248.509C86.9485 247.899 87.2878 247.156 87.8319 246.393C88.3341 245.688 88.4621 245.94 89.2403 245.908C91.3771 245.82 89.8199 242.994 89.0281 242.135Z" fill="#2F2E41"/>
<path d="M78.8238 255.845C79.3441 255.845 79.7658 254.833 79.7658 253.586C79.7658 252.339 79.3441 251.328 78.8238 251.328C78.3036 251.328 77.8818 252.339 77.8818 253.586C77.8818 254.833 78.3036 255.845 78.8238 255.845Z" fill="#FFB9B9"/>
<path d="M182.631 416.478C189.291 416.478 194.689 411.085 194.689 404.433C194.689 397.78 189.291 392.388 182.631 392.388C175.972 392.388 170.574 397.78 170.574 404.433C170.574 411.085 175.972 416.478 182.631 416.478Z" fill="#F2F2F2"/>
<path d="M62.0565 209.452C68.7157 209.452 74.114 204.059 74.114 197.407C74.114 190.754 68.7157 185.362 62.0565 185.362C55.3973 185.362 49.999 190.754 49.999 197.407C49.999 204.059 55.3973 209.452 62.0565 209.452Z" fill="#F2F2F2"/>
<path d="M314.51 237.683C321.169 237.683 326.568 232.29 326.568 225.637C326.568 218.985 321.169 213.592 314.51 213.592C307.851 213.592 302.453 218.985 302.453 225.637C302.453 232.29 307.851 237.683 314.51 237.683Z" fill="#F2F2F2"/>
</g>
<defs>
<clipPath id="clip0_72_31">
<rect width="367" height="285" fill="white" transform="translate(24 179)"/>
</clipPath>
</defs>
</svg>
