<svg width="415" height="478" viewBox="0 0 415 478" fill="none" xmlns="http://www.w3.org/2000/svg">
<rect width="415" height="478" rx="25" fill="#33DB92"/>
<path d="M41.66 81L50.999 57.801H54.662L63.968 81H59.183L51.989 61.959H53.639L46.346 81H41.66ZM46.61 76.677V72.915H59.084V76.677H46.61ZM76.5688 81V71.859C76.5688 70.913 76.2718 70.143 75.6778 69.549C75.0838 68.955 74.3138 68.658 73.3678 68.658C72.7518 68.658 72.2018 68.79 71.7178 69.054C71.2338 69.318 70.8488 69.692 70.5628 70.176C70.2988 70.66 70.1668 71.221 70.1668 71.859L68.4838 71.001C68.4838 69.747 68.7478 68.658 69.2758 67.734C69.8258 66.788 70.5738 66.051 71.5198 65.523C72.4878 64.995 73.5768 64.731 74.7868 64.731C75.9528 64.731 76.9978 65.028 77.9218 65.622C78.8458 66.194 79.5718 66.953 80.0998 67.899C80.6278 68.823 80.8918 69.824 80.8918 70.902V81H76.5688ZM65.8438 81V65.061H70.1668V81H65.8438ZM90.3801 81.33C88.9281 81.33 87.6191 80.967 86.4531 80.241C85.2871 79.515 84.3741 78.525 83.7141 77.271C83.0541 76.017 82.7241 74.609 82.7241 73.047C82.7241 71.463 83.0541 70.044 83.7141 68.79C84.3741 67.536 85.2871 66.546 86.4531 65.82C87.6191 65.094 88.9281 64.731 90.3801 64.731C91.5241 64.731 92.5471 64.962 93.4491 65.424C94.3511 65.886 95.0661 66.535 95.5941 67.371C96.1441 68.185 96.4411 69.109 96.4851 70.143V75.885C96.4411 76.941 96.1441 77.876 95.5941 78.69C95.0661 79.504 94.3511 80.153 93.4491 80.637C92.5471 81.099 91.5241 81.33 90.3801 81.33ZM91.1721 77.337C92.3821 77.337 93.3611 76.941 94.1091 76.149C94.8571 75.335 95.2311 74.29 95.2311 73.014C95.2311 72.178 95.0551 71.441 94.7031 70.803C94.3731 70.143 93.9001 69.637 93.2841 69.285C92.6901 68.911 91.9861 68.724 91.1721 68.724C90.3801 68.724 89.6761 68.911 89.0601 69.285C88.4661 69.637 87.9931 70.143 87.6411 70.803C87.3111 71.441 87.1461 72.178 87.1461 73.014C87.1461 73.872 87.3111 74.631 87.6411 75.291C87.9931 75.929 88.4661 76.435 89.0601 76.809C89.6761 77.161 90.3801 77.337 91.1721 77.337ZM95.0001 81V76.71L95.6931 72.816L95.0001 68.988V65.061H99.2901V81H95.0001ZM89.4561 63.015L87.8061 60.969L92.5581 55.821L95.3301 59.187L89.4561 63.015ZM102.455 81V57.141H106.778V81H102.455ZM109.948 81V65.061H114.304V81H109.948ZM112.126 62.487C111.422 62.487 110.839 62.256 110.377 61.794C109.915 61.31 109.684 60.716 109.684 60.012C109.684 59.33 109.915 58.747 110.377 58.263C110.839 57.779 111.422 57.537 112.126 57.537C112.852 57.537 113.435 57.779 113.875 58.263C114.337 58.747 114.568 59.33 114.568 60.012C114.568 60.716 114.337 61.31 113.875 61.794C113.435 62.256 112.852 62.487 112.126 62.487ZM122.951 81.363C122.049 81.363 121.158 81.242 120.278 81C119.42 80.758 118.628 80.428 117.902 80.01C117.176 79.57 116.549 79.042 116.021 78.426L118.595 75.819C119.145 76.435 119.783 76.897 120.509 77.205C121.235 77.513 122.038 77.667 122.918 77.667C123.622 77.667 124.15 77.568 124.502 77.37C124.876 77.172 125.063 76.875 125.063 76.479C125.063 76.039 124.865 75.698 124.469 75.456C124.095 75.214 123.6 75.016 122.984 74.862C122.368 74.686 121.719 74.499 121.037 74.301C120.377 74.081 119.739 73.806 119.123 73.476C118.507 73.124 118.001 72.651 117.605 72.057C117.231 71.441 117.044 70.649 117.044 69.681C117.044 68.669 117.286 67.789 117.77 67.041C118.276 66.293 118.991 65.71 119.915 65.292C120.839 64.874 121.928 64.665 123.182 64.665C124.502 64.665 125.69 64.896 126.746 65.358C127.824 65.82 128.715 66.513 129.419 67.437L126.812 70.044C126.328 69.45 125.778 69.021 125.162 68.757C124.568 68.493 123.919 68.361 123.215 68.361C122.577 68.361 122.082 68.46 121.73 68.658C121.4 68.856 121.235 69.131 121.235 69.483C121.235 69.879 121.422 70.187 121.796 70.407C122.192 70.627 122.698 70.825 123.314 71.001C123.93 71.155 124.568 71.342 125.228 71.562C125.91 71.76 126.548 72.046 127.142 72.42C127.758 72.794 128.253 73.289 128.627 73.905C129.023 74.521 129.221 75.313 129.221 76.281C129.221 77.843 128.66 79.086 127.538 80.01C126.416 80.912 124.887 81.363 122.951 81.363ZM139.099 81.33C137.427 81.33 135.942 80.978 134.644 80.274C133.346 79.548 132.312 78.558 131.542 77.304C130.794 76.05 130.42 74.62 130.42 73.014C130.42 71.43 130.783 70.022 131.509 68.79C132.257 67.536 133.269 66.546 134.545 65.82C135.821 65.072 137.24 64.698 138.802 64.698C140.342 64.698 141.695 65.05 142.861 65.754C144.049 66.436 144.973 67.382 145.633 68.592C146.315 69.78 146.656 71.133 146.656 72.651C146.656 72.937 146.634 73.234 146.59 73.542C146.568 73.828 146.513 74.158 146.425 74.532L133.027 74.565V71.331L144.412 71.298L142.663 72.651C142.619 71.705 142.443 70.913 142.135 70.275C141.849 69.637 141.42 69.153 140.848 68.823C140.298 68.471 139.616 68.295 138.802 68.295C137.944 68.295 137.196 68.493 136.558 68.889C135.92 69.263 135.425 69.802 135.073 70.506C134.743 71.188 134.578 72.002 134.578 72.948C134.578 73.916 134.754 74.763 135.106 75.489C135.48 76.193 136.008 76.743 136.69 77.139C137.372 77.513 138.164 77.7 139.066 77.7C139.88 77.7 140.617 77.568 141.277 77.304C141.937 77.018 142.509 76.6 142.993 76.05L145.534 78.591C144.764 79.493 143.818 80.175 142.696 80.637C141.596 81.099 140.397 81.33 139.099 81.33ZM157.986 81V77.007H163.893C165.389 77.007 166.698 76.699 167.82 76.083C168.942 75.445 169.811 74.554 170.427 73.41C171.065 72.266 171.384 70.913 171.384 69.351C171.384 67.833 171.065 66.513 170.427 65.391C169.789 64.247 168.909 63.367 167.787 62.751C166.665 62.113 165.367 61.794 163.893 61.794H157.887V57.801H163.959C165.675 57.801 167.259 58.087 168.711 58.659C170.185 59.231 171.461 60.045 172.539 61.101C173.639 62.135 174.486 63.356 175.08 64.764C175.696 66.172 176.004 67.712 176.004 69.384C176.004 71.056 175.696 72.607 175.08 74.037C174.486 75.445 173.65 76.677 172.572 77.733C171.494 78.767 170.218 79.57 168.744 80.142C167.292 80.714 165.719 81 164.025 81H157.986ZM154.917 81V57.801H159.405V81H154.917ZM186.072 81.33C184.4 81.33 182.915 80.978 181.617 80.274C180.319 79.548 179.285 78.558 178.515 77.304C177.767 76.05 177.393 74.62 177.393 73.014C177.393 71.43 177.756 70.022 178.482 68.79C179.23 67.536 180.242 66.546 181.518 65.82C182.794 65.072 184.213 64.698 185.775 64.698C187.315 64.698 188.668 65.05 189.834 65.754C191.022 66.436 191.946 67.382 192.606 68.592C193.288 69.78 193.629 71.133 193.629 72.651C193.629 72.937 193.607 73.234 193.563 73.542C193.541 73.828 193.486 74.158 193.398 74.532L180 74.565V71.331L191.385 71.298L189.636 72.651C189.592 71.705 189.416 70.913 189.108 70.275C188.822 69.637 188.393 69.153 187.821 68.823C187.271 68.471 186.589 68.295 185.775 68.295C184.917 68.295 184.169 68.493 183.531 68.889C182.893 69.263 182.398 69.802 182.046 70.506C181.716 71.188 181.551 72.002 181.551 72.948C181.551 73.916 181.727 74.763 182.079 75.489C182.453 76.193 182.981 76.743 183.663 77.139C184.345 77.513 185.137 77.7 186.039 77.7C186.853 77.7 187.59 77.568 188.25 77.304C188.91 77.018 189.482 76.6 189.966 76.05L192.507 78.591C191.737 79.493 190.791 80.175 189.669 80.637C188.569 81.099 187.37 81.33 186.072 81.33ZM201.889 81V57.801H206.377V81H201.889ZM205.189 81V77.04H218.026V81H205.189ZM205.189 71.067V67.239H216.871V71.067H205.189ZM205.189 61.761V57.801H217.861V61.761H205.189ZM230.585 81L226.394 74.532L225.503 73.872L219.299 65.061H224.414L228.275 70.902L229.1 71.529L235.667 81H230.585ZM218.969 81L225.47 71.892L227.945 74.829L223.853 81H218.969ZM229.265 73.839L226.724 70.935L230.519 65.061H235.37L229.265 73.839ZM243.479 81.33C242.027 81.33 240.718 80.967 239.552 80.241C238.386 79.515 237.473 78.525 236.813 77.271C236.153 76.017 235.823 74.609 235.823 73.047C235.823 71.463 236.153 70.044 236.813 68.79C237.473 67.536 238.386 66.546 239.552 65.82C240.718 65.094 242.027 64.731 243.479 64.731C244.623 64.731 245.646 64.962 246.548 65.424C247.45 65.886 248.165 66.535 248.693 67.371C249.243 68.185 249.54 69.109 249.584 70.143V75.885C249.54 76.941 249.243 77.876 248.693 78.69C248.165 79.504 247.45 80.153 246.548 80.637C245.646 81.099 244.623 81.33 243.479 81.33ZM244.271 77.337C245.481 77.337 246.46 76.941 247.208 76.149C247.956 75.335 248.33 74.29 248.33 73.014C248.33 72.178 248.154 71.441 247.802 70.803C247.472 70.143 246.999 69.637 246.383 69.285C245.789 68.911 245.085 68.724 244.271 68.724C243.479 68.724 242.775 68.911 242.159 69.285C241.565 69.637 241.092 70.143 240.74 70.803C240.41 71.441 240.245 72.178 240.245 73.014C240.245 73.872 240.41 74.631 240.74 75.291C241.092 75.929 241.565 76.435 242.159 76.809C242.775 77.161 243.479 77.337 244.271 77.337ZM248.099 81V76.71L248.792 72.816L248.099 68.988V65.061H252.389V81H248.099ZM255.554 81V65.061H259.877V81H255.554ZM265.949 81V71.595C265.949 70.671 265.652 69.956 265.058 69.45C264.486 68.922 263.771 68.658 262.913 68.658C262.341 68.658 261.824 68.779 261.362 69.021C260.9 69.241 260.537 69.571 260.273 70.011C260.009 70.451 259.877 70.979 259.877 71.595L258.194 70.77C258.194 69.538 258.458 68.471 258.986 67.569C259.536 66.667 260.273 65.974 261.197 65.49C262.121 64.984 263.166 64.731 264.332 64.731C265.432 64.731 266.433 64.984 267.335 65.49C268.237 65.974 268.952 66.667 269.48 67.569C270.008 68.449 270.272 69.516 270.272 70.77V81H265.949ZM276.344 81V71.595C276.344 70.671 276.047 69.956 275.453 69.45C274.881 68.922 274.166 68.658 273.308 68.658C272.758 68.658 272.241 68.779 271.757 69.021C271.295 69.241 270.932 69.571 270.668 70.011C270.404 70.451 270.272 70.979 270.272 71.595L267.797 71.001C267.885 69.725 268.226 68.625 268.82 67.701C269.414 66.755 270.195 66.029 271.163 65.523C272.131 64.995 273.209 64.731 274.397 64.731C275.585 64.731 276.652 64.984 277.598 65.49C278.544 65.974 279.292 66.678 279.842 67.602C280.392 68.526 280.667 69.626 280.667 70.902V81H276.344ZM291.134 81.33C289.462 81.33 287.977 80.978 286.679 80.274C285.381 79.548 284.347 78.558 283.577 77.304C282.829 76.05 282.455 74.62 282.455 73.014C282.455 71.43 282.818 70.022 283.544 68.79C284.292 67.536 285.304 66.546 286.58 65.82C287.856 65.072 289.275 64.698 290.837 64.698C292.377 64.698 293.73 65.05 294.896 65.754C296.084 66.436 297.008 67.382 297.668 68.592C298.35 69.78 298.691 71.133 298.691 72.651C298.691 72.937 298.669 73.234 298.625 73.542C298.603 73.828 298.548 74.158 298.46 74.532L285.062 74.565V71.331L296.447 71.298L294.698 72.651C294.654 71.705 294.478 70.913 294.17 70.275C293.884 69.637 293.455 69.153 292.883 68.823C292.333 68.471 291.651 68.295 290.837 68.295C289.979 68.295 289.231 68.493 288.593 68.889C287.955 69.263 287.46 69.802 287.108 70.506C286.778 71.188 286.613 72.002 286.613 72.948C286.613 73.916 286.789 74.763 287.141 75.489C287.515 76.193 288.043 76.743 288.725 77.139C289.407 77.513 290.199 77.7 291.101 77.7C291.915 77.7 292.652 77.568 293.312 77.304C293.972 77.018 294.544 76.6 295.028 76.05L297.569 78.591C296.799 79.493 295.853 80.175 294.731 80.637C293.631 81.099 292.432 81.33 291.134 81.33ZM306.183 81.363C305.281 81.363 304.39 81.242 303.51 81C302.652 80.758 301.86 80.428 301.134 80.01C300.408 79.57 299.781 79.042 299.253 78.426L301.827 75.819C302.377 76.435 303.015 76.897 303.741 77.205C304.467 77.513 305.27 77.667 306.15 77.667C306.854 77.667 307.382 77.568 307.734 77.37C308.108 77.172 308.295 76.875 308.295 76.479C308.295 76.039 308.097 75.698 307.701 75.456C307.327 75.214 306.832 75.016 306.216 74.862C305.6 74.686 304.951 74.499 304.269 74.301C303.609 74.081 302.971 73.806 302.355 73.476C301.739 73.124 301.233 72.651 300.837 72.057C300.463 71.441 300.276 70.649 300.276 69.681C300.276 68.669 300.518 67.789 301.002 67.041C301.508 66.293 302.223 65.71 303.147 65.292C304.071 64.874 305.16 64.665 306.414 64.665C307.734 64.665 308.922 64.896 309.978 65.358C311.056 65.82 311.947 66.513 312.651 67.437L310.044 70.044C309.56 69.45 309.01 69.021 308.394 68.757C307.8 68.493 307.151 68.361 306.447 68.361C305.809 68.361 305.314 68.46 304.962 68.658C304.632 68.856 304.467 69.131 304.467 69.483C304.467 69.879 304.654 70.187 305.028 70.407C305.424 70.627 305.93 70.825 306.546 71.001C307.162 71.155 307.8 71.342 308.46 71.562C309.142 71.76 309.78 72.046 310.374 72.42C310.99 72.794 311.485 73.289 311.859 73.905C312.255 74.521 312.453 75.313 312.453 76.281C312.453 77.843 311.892 79.086 310.77 80.01C309.648 80.912 308.119 81.363 306.183 81.363ZM320.955 81V57.801H325.443V81H320.955ZM324.255 81V77.04H337.092V81H324.255ZM324.255 71.067V67.239H335.937V71.067H324.255ZM324.255 61.761V57.801H336.927V61.761H324.255ZM46.676 114.387V110.724H52.055C52.759 110.724 53.397 110.581 53.969 110.295C54.541 110.009 54.992 109.602 55.322 109.074C55.652 108.524 55.817 107.864 55.817 107.094C55.817 106.346 55.652 105.697 55.322 105.147C54.992 104.597 54.541 104.179 53.969 103.893C53.397 103.607 52.759 103.464 52.055 103.464H46.676V99.801H52.517C53.991 99.801 55.311 100.098 56.477 100.692C57.665 101.286 58.6 102.133 59.282 103.233C59.964 104.311 60.305 105.598 60.305 107.094C60.305 108.59 59.964 109.888 59.282 110.988C58.6 112.066 57.665 112.902 56.477 113.496C55.311 114.09 53.991 114.387 52.517 114.387H46.676ZM43.376 123V99.801H47.864V123H43.376ZM62.589 123V107.061H66.912V123H62.589ZM66.912 114.189L65.229 113.067C65.427 111.109 65.999 109.569 66.945 108.447C67.891 107.303 69.255 106.731 71.037 106.731C71.807 106.731 72.5 106.863 73.116 107.127C73.732 107.369 74.293 107.776 74.799 108.348L72.093 111.45C71.851 111.186 71.554 110.988 71.202 110.856C70.872 110.724 70.487 110.658 70.047 110.658C69.123 110.658 68.364 110.955 67.77 111.549C67.198 112.121 66.912 113.001 66.912 114.189ZM82.8293 123.33C81.1573 123.33 79.6723 122.978 78.3743 122.274C77.0763 121.548 76.0423 120.558 75.2723 119.304C74.5243 118.05 74.1503 116.62 74.1503 115.014C74.1503 113.43 74.5133 112.022 75.2393 110.79C75.9873 109.536 76.9993 108.546 78.2753 107.82C79.5513 107.072 80.9703 106.698 82.5323 106.698C84.0723 106.698 85.4253 107.05 86.5913 107.754C87.7793 108.436 88.7033 109.382 89.3633 110.592C90.0453 111.78 90.3863 113.133 90.3863 114.651C90.3863 114.937 90.3643 115.234 90.3203 115.542C90.2983 115.828 90.2433 116.158 90.1553 116.532L76.7573 116.565V113.331L88.1423 113.298L86.3933 114.651C86.3493 113.705 86.1733 112.913 85.8653 112.275C85.5793 111.637 85.1503 111.153 84.5783 110.823C84.0283 110.471 83.3463 110.295 82.5323 110.295C81.6743 110.295 80.9263 110.493 80.2883 110.889C79.6503 111.263 79.1553 111.802 78.8033 112.506C78.4733 113.188 78.3083 114.002 78.3083 114.948C78.3083 115.916 78.4843 116.763 78.8363 117.489C79.2103 118.193 79.7383 118.743 80.4203 119.139C81.1023 119.513 81.8943 119.7 82.7963 119.7C83.6103 119.7 84.3473 119.568 85.0073 119.304C85.6673 119.018 86.2393 118.6 86.7233 118.05L89.2643 120.591C88.4943 121.493 87.5483 122.175 86.4263 122.637C85.3263 123.099 84.1273 123.33 82.8293 123.33ZM97.323 123L90.294 107.061H95.046L100.095 120.195H97.752L102.834 107.061H107.421L100.425 123H97.323ZM108.755 123V107.061H113.111V123H108.755ZM110.933 104.487C110.229 104.487 109.646 104.256 109.184 103.794C108.722 103.31 108.491 102.716 108.491 102.012C108.491 101.33 108.722 100.747 109.184 100.263C109.646 99.779 110.229 99.537 110.933 99.537C111.659 99.537 112.242 99.779 112.682 100.263C113.144 100.747 113.375 101.33 113.375 102.012C113.375 102.716 113.144 103.31 112.682 103.794C112.242 104.256 111.659 104.487 110.933 104.487ZM121.759 123.363C120.857 123.363 119.966 123.242 119.086 123C118.228 122.758 117.436 122.428 116.71 122.01C115.984 121.57 115.357 121.042 114.829 120.426L117.403 117.819C117.953 118.435 118.591 118.897 119.317 119.205C120.043 119.513 120.846 119.667 121.726 119.667C122.43 119.667 122.958 119.568 123.31 119.37C123.684 119.172 123.871 118.875 123.871 118.479C123.871 118.039 123.673 117.698 123.277 117.456C122.903 117.214 122.408 117.016 121.792 116.862C121.176 116.686 120.527 116.499 119.845 116.301C119.185 116.081 118.547 115.806 117.931 115.476C117.315 115.124 116.809 114.651 116.413 114.057C116.039 113.441 115.852 112.649 115.852 111.681C115.852 110.669 116.094 109.789 116.578 109.041C117.084 108.293 117.799 107.71 118.723 107.292C119.647 106.874 120.736 106.665 121.99 106.665C123.31 106.665 124.498 106.896 125.554 107.358C126.632 107.82 127.523 108.513 128.227 109.437L125.62 112.044C125.136 111.45 124.586 111.021 123.97 110.757C123.376 110.493 122.727 110.361 122.023 110.361C121.385 110.361 120.89 110.46 120.538 110.658C120.208 110.856 120.043 111.131 120.043 111.483C120.043 111.879 120.23 112.187 120.604 112.407C121 112.627 121.506 112.825 122.122 113.001C122.738 113.155 123.376 113.342 124.036 113.562C124.718 113.76 125.356 114.046 125.95 114.42C126.566 114.794 127.061 115.289 127.435 115.905C127.831 116.521 128.029 117.313 128.029 118.281C128.029 119.843 127.468 121.086 126.346 122.01C125.224 122.912 123.695 123.363 121.759 123.363ZM137.775 123.33C136.169 123.33 134.717 122.967 133.419 122.241C132.143 121.493 131.12 120.492 130.35 119.238C129.602 117.962 129.228 116.543 129.228 114.981C129.228 113.419 129.602 112.022 130.35 110.79C131.098 109.536 132.121 108.546 133.419 107.82C134.717 107.072 136.158 106.698 137.742 106.698C139.37 106.698 140.822 107.072 142.098 107.82C143.396 108.546 144.419 109.536 145.167 110.79C145.915 112.022 146.289 113.419 146.289 114.981C146.289 116.543 145.915 117.962 145.167 119.238C144.419 120.492 143.396 121.493 142.098 122.241C140.822 122.967 139.381 123.33 137.775 123.33ZM137.742 119.304C138.556 119.304 139.271 119.128 139.887 118.776C140.525 118.402 141.009 117.896 141.339 117.258C141.691 116.598 141.867 115.85 141.867 115.014C141.867 114.178 141.691 113.441 141.339 112.803C140.987 112.165 140.503 111.67 139.887 111.318C139.271 110.944 138.556 110.757 137.742 110.757C136.95 110.757 136.246 110.944 135.63 111.318C135.014 111.67 134.53 112.165 134.178 112.803C133.826 113.441 133.65 114.178 133.65 115.014C133.65 115.85 133.826 116.598 134.178 117.258C134.53 117.896 135.014 118.402 135.63 118.776C136.246 119.128 136.95 119.304 137.742 119.304ZM140.184 105.015C139.458 105.015 138.842 104.883 138.336 104.619C137.83 104.355 137.357 104.102 136.917 103.86C136.477 103.618 136.004 103.497 135.498 103.497C134.97 103.497 134.53 103.596 134.178 103.794C133.848 103.992 133.529 104.3 133.221 104.718L131.043 102.54C131.681 101.704 132.33 101.066 132.99 100.626C133.672 100.186 134.464 99.966 135.366 99.966C136.092 99.966 136.708 100.098 137.214 100.362C137.72 100.604 138.193 100.857 138.633 101.121C139.073 101.363 139.546 101.484 140.052 101.484C140.602 101.484 141.042 101.385 141.372 101.187C141.724 100.967 142.043 100.659 142.329 100.263L144.507 102.408C143.869 103.244 143.209 103.893 142.527 104.355C141.867 104.795 141.086 105.015 140.184 105.015ZM156.035 123.33C154.363 123.33 152.878 122.978 151.58 122.274C150.282 121.548 149.248 120.558 148.478 119.304C147.73 118.05 147.356 116.62 147.356 115.014C147.356 113.43 147.719 112.022 148.445 110.79C149.193 109.536 150.205 108.546 151.481 107.82C152.757 107.072 154.176 106.698 155.738 106.698C157.278 106.698 158.631 107.05 159.797 107.754C160.985 108.436 161.909 109.382 162.569 110.592C163.251 111.78 163.592 113.133 163.592 114.651C163.592 114.937 163.57 115.234 163.526 115.542C163.504 115.828 163.449 116.158 163.361 116.532L149.963 116.565V113.331L161.348 113.298L159.599 114.651C159.555 113.705 159.379 112.913 159.071 112.275C158.785 111.637 158.356 111.153 157.784 110.823C157.234 110.471 156.552 110.295 155.738 110.295C154.88 110.295 154.132 110.493 153.494 110.889C152.856 111.263 152.361 111.802 152.009 112.506C151.679 113.188 151.514 114.002 151.514 114.948C151.514 115.916 151.69 116.763 152.042 117.489C152.416 118.193 152.944 118.743 153.626 119.139C154.308 119.513 155.1 119.7 156.002 119.7C156.816 119.7 157.553 119.568 158.213 119.304C158.873 119.018 159.445 118.6 159.929 118.05L162.47 120.591C161.7 121.493 160.754 122.175 159.632 122.637C158.532 123.099 157.333 123.33 156.035 123.33ZM171.084 123.363C170.182 123.363 169.291 123.242 168.411 123C167.553 122.758 166.761 122.428 166.035 122.01C165.309 121.57 164.682 121.042 164.154 120.426L166.728 117.819C167.278 118.435 167.916 118.897 168.642 119.205C169.368 119.513 170.171 119.667 171.051 119.667C171.755 119.667 172.283 119.568 172.635 119.37C173.009 119.172 173.196 118.875 173.196 118.479C173.196 118.039 172.998 117.698 172.602 117.456C172.228 117.214 171.733 117.016 171.117 116.862C170.501 116.686 169.852 116.499 169.17 116.301C168.51 116.081 167.872 115.806 167.256 115.476C166.64 115.124 166.134 114.651 165.738 114.057C165.364 113.441 165.177 112.649 165.177 111.681C165.177 110.669 165.419 109.789 165.903 109.041C166.409 108.293 167.124 107.71 168.048 107.292C168.972 106.874 170.061 106.665 171.315 106.665C172.635 106.665 173.823 106.896 174.879 107.358C175.957 107.82 176.848 108.513 177.552 109.437L174.945 112.044C174.461 111.45 173.911 111.021 173.295 110.757C172.701 110.493 172.052 110.361 171.348 110.361C170.71 110.361 170.215 110.46 169.863 110.658C169.533 110.856 169.368 111.131 169.368 111.483C169.368 111.879 169.555 112.187 169.929 112.407C170.325 112.627 170.831 112.825 171.447 113.001C172.063 113.155 172.701 113.342 173.361 113.562C174.043 113.76 174.681 114.046 175.275 114.42C175.891 114.794 176.386 115.289 176.76 115.905C177.156 116.521 177.354 117.313 177.354 118.281C177.354 119.843 176.793 121.086 175.671 122.01C174.549 122.912 173.02 123.363 171.084 123.363Z" fill="#252B61"/>
<g clip-path="url(#clip0_72_122)">
<path d="M331.006 301.929C331.006 301.929 322.213 306.824 324.744 312.398C327.275 317.972 363.216 313.412 363.216 313.412C363.216 313.412 360.685 305.811 356.129 304.291C351.574 302.771 331.006 301.929 331.006 301.929Z" fill="#6C63FF"/>
<path d="M327.578 303.234C329.346 302.084 331.31 301.271 333.373 300.836C340.252 299.167 347.455 299.392 354.217 301.487L354.093 301.386C356.974 302.908 359.504 305.019 361.518 307.582L327.578 303.234Z" fill="#CCCCCC"/>
<path d="M366.517 327.204C366.395 329.023 366.274 330.841 366.153 332.656C365.986 336.459 365.572 340.247 364.912 343.996C364.295 347.133 363.313 350.244 361.556 352.914C359.8 355.58 357.193 357.784 354.105 358.595C352.209 359.049 350.238 359.093 348.324 358.721C344.714 356.669 342.269 359.294 345.874 361.964C346.691 362.569 347.541 363.129 348.42 363.641L350.055 388.911L319.682 382.324L325.61 348.709C324.702 347.883 323.872 346.976 323.13 345.998C319.733 341.483 318.563 335.6 318.786 329.956C319.014 324.306 320.517 318.798 322.011 313.351C322.392 311.873 322.851 310.417 323.388 308.988C324.051 309.262 324.724 309.51 325.407 309.718C329.776 311.045 334.418 311.152 338.984 311.147C347.109 311.142 355.223 310.824 363.328 310.194C365.19 313.263 366.321 316.72 366.633 320.298C366.764 322.6 366.725 324.908 366.517 327.204Z" fill="#CCCCCC"/>
<path d="M236.783 395.39L283.542 399.545L284.043 399.59V199.877C283.876 199.76 283.709 199.644 283.542 199.527C273.797 192.704 263.256 187.099 252.152 182.836L249.763 215.823L249.545 218.843L247.181 251.556L246.452 261.619L236.869 394.224L236.783 395.39Z" fill="#E6E6E6"/>
<path d="M120.979 196.567C120.645 196.78 120.311 196.993 119.977 197.216V400L120.979 399.909L167.232 395.799L167.146 394.634L157.563 262.029L156.834 251.965L154.47 219.253L154.253 216.233L151.747 181.64C140.941 185.389 130.614 190.399 120.979 196.567Z" fill="#E6E6E6"/>
<path d="M119.977 197.216C119.304 197.651 118.63 198.097 117.967 198.548V402.766C117.967 407.869 120.989 412.146 125.029 413.235C125.689 413.414 126.37 413.504 127.054 413.504H277.298C277.98 413.505 278.659 413.414 279.318 413.235C280.819 412.818 282.18 412.002 283.256 410.874C285.308 408.678 286.429 405.772 286.384 402.766V202.1C285.554 201.487 284.719 200.879 283.873 200.286C283.706 200.17 283.539 200.053 283.372 199.937V402.766C283.373 403.424 283.295 404.079 283.139 404.717C282.426 407.732 280.072 409.941 277.298 409.941H127.054C123.703 409.941 120.979 406.724 120.979 402.766V196.567C120.645 196.78 120.311 196.993 119.977 197.216Z" fill="#E6E6E6"/>
<path d="M284.878 216.235H119.472V219.254H284.878V216.235Z" fill="#E6E6E6"/>
<path d="M234.219 177.718C233.217 177.47 232.214 177.236 231.202 177.019V259.009H234.219V177.718Z" fill="#E6E6E6"/>
<path d="M173.15 176C172.142 176.187 171.135 176.38 170.133 176.588V259.009H173.15V176Z" fill="#E6E6E6"/>
<path d="M87.0428 408.219C87.0421 409.951 87.3738 411.668 88.0198 413.276C88.268 413.899 88.5641 414.502 88.9057 415.079C89.3469 415.832 89.8588 416.542 90.4345 417.197C91.7062 418.648 93.2726 419.81 95.029 420.606C96.7854 421.402 98.6914 421.814 100.619 421.814H298.706C302.306 421.814 305.76 420.382 308.306 417.833C310.852 415.285 312.282 411.828 312.282 408.224C312.282 404.619 310.852 401.163 308.306 398.614C305.76 396.066 302.306 394.634 298.706 394.634H100.619C97.0207 394.637 93.5703 396.07 91.0251 398.616C88.4799 401.163 87.0477 404.616 87.0428 408.219Z" fill="#E6E6E6"/>
<path d="M119.472 262.03H283.873V251.965L119.472 251.965V262.03Z" fill="#E6E6E6"/>
<path d="M208.711 254.481H194.634C194.634 253.754 194.777 253.034 195.055 252.363C195.333 251.691 195.74 251.081 196.254 250.567C196.767 250.053 197.377 249.645 198.048 249.367C198.719 249.089 199.438 248.946 200.164 248.946H203.181C204.647 248.946 206.054 249.529 207.091 250.567C208.128 251.605 208.711 253.013 208.711 254.481Z" fill="#E6E6E6"/>
<path d="M20 415.981C24.3976 421.197 29.1541 426.099 34.2347 430.651H379.765C384.846 426.099 389.602 421.197 394 415.981H20Z" fill="#3F3D56"/>
<path d="M113.73 366.927V418.895H150.102V366.927C150.102 366.553 149.983 366.189 149.762 365.888C149.54 365.587 149.228 365.365 148.872 365.255C148.703 365.199 148.527 365.172 148.35 365.174H115.487C115.257 365.173 115.028 365.218 114.815 365.306C114.602 365.394 114.409 365.523 114.246 365.686C114.082 365.849 113.953 366.042 113.865 366.255C113.776 366.468 113.731 366.697 113.73 366.927ZM127.925 384.783C127.934 383.759 128.347 382.78 129.074 382.059C129.801 381.337 130.784 380.933 131.807 380.933C132.831 380.933 133.813 381.337 134.54 382.059C135.267 382.78 135.68 383.759 135.69 384.783V390.813C135.685 391.841 135.273 392.824 134.546 393.549C133.818 394.273 132.834 394.68 131.807 394.68C130.781 394.68 129.796 394.273 129.069 393.549C128.341 392.824 127.93 391.841 127.925 390.813V384.783Z" fill="#2F2E41"/>
<path d="M113.619 417.233V422.244C113.62 422.504 113.723 422.753 113.906 422.937C114.089 423.121 114.337 423.225 114.596 423.227H149.236C149.496 423.226 149.744 423.122 149.927 422.938C150.11 422.753 150.213 422.504 150.213 422.244V417.233H113.619Z" fill="#3F3D56"/>
<path d="M56.5131 288.631V383.517C56.514 384.726 56.9943 385.885 57.8485 386.74C58.7027 387.595 59.861 388.076 61.069 388.077H201.543C202.751 388.076 203.909 387.595 204.763 386.74C205.618 385.885 206.098 384.726 206.099 383.517V288.631C206.096 287.423 205.615 286.265 204.761 285.411C203.907 284.557 202.75 284.077 201.543 284.075H61.069C59.862 284.077 58.7049 284.557 57.8509 285.411C56.997 286.265 56.5159 287.423 56.5131 288.631Z" fill="#3F3D56"/>
<path d="M59.8086 289.811V382.346C59.8097 382.992 60.0666 383.612 60.523 384.068C60.9794 384.525 61.598 384.782 62.2435 384.784H200.374C201.019 384.782 201.638 384.525 202.094 384.068C202.551 383.612 202.807 382.992 202.809 382.346V289.811C202.809 289.165 202.552 288.544 202.096 288.086C201.639 287.628 201.02 287.371 200.374 287.369H62.2435C61.5973 287.371 60.978 287.628 60.5215 288.086C60.0651 288.544 59.8087 289.165 59.8086 289.811Z" fill="#6C63FF"/>
<path d="M87.9742 424.408C88.1147 424.584 88.2935 424.727 88.4969 424.824C88.7003 424.922 88.9231 424.972 89.1486 424.97H171.327C171.552 424.97 171.774 424.92 171.977 424.823C172.179 424.726 172.358 424.585 172.5 424.41C172.641 424.236 172.742 424.031 172.795 423.813C172.848 423.594 172.851 423.366 172.805 423.146L171.53 417.081C171.477 416.834 171.363 416.603 171.198 416.411C171.034 416.219 170.824 416.072 170.588 415.981C170.417 415.914 170.235 415.88 170.051 415.88H90.4192C90.2355 415.88 90.0535 415.914 89.8826 415.981C89.6465 416.072 89.4366 416.219 89.2722 416.411C89.1077 416.603 88.9939 416.834 88.941 417.081L87.6654 423.146C87.62 423.366 87.6241 423.594 87.6775 423.812C87.731 424.03 87.8323 424.234 87.9742 424.408Z" fill="#2F2E41"/>
<path d="M167.184 418.493H169.221C169.357 418.493 169.468 418.382 169.468 418.245V417.22C169.468 417.083 169.357 416.973 169.221 416.973H167.184C167.047 416.973 166.937 417.083 166.937 417.22V418.245C166.937 418.382 167.047 418.493 167.184 418.493Z" fill="#3F3D56"/>
<path d="M162.122 418.493H164.159C164.295 418.493 164.406 418.382 164.406 418.245V417.22C164.406 417.083 164.295 416.973 164.159 416.973H162.122C161.985 416.973 161.875 417.083 161.875 417.22V418.245C161.875 418.382 161.985 418.493 162.122 418.493Z" fill="#3F3D56"/>
<path d="M157.06 418.493H159.097C159.233 418.493 159.344 418.382 159.344 418.245V417.22C159.344 417.083 159.233 416.973 159.097 416.973H157.06C156.923 416.973 156.813 417.083 156.813 417.22V418.245C156.813 418.382 156.923 418.493 157.06 418.493Z" fill="#3F3D56"/>
<path d="M151.998 418.493H154.034C154.171 418.493 154.281 418.382 154.281 418.245V417.22C154.281 417.083 154.171 416.973 154.034 416.973H151.998C151.861 416.973 151.75 417.083 151.75 417.22V418.245C151.75 418.382 151.861 418.493 151.998 418.493Z" fill="#3F3D56"/>
<path d="M146.935 418.493H148.972C149.109 418.493 149.219 418.382 149.219 418.245V417.22C149.219 417.083 149.109 416.973 148.972 416.973H146.935C146.799 416.973 146.688 417.083 146.688 417.22V418.245C146.688 418.382 146.799 418.493 146.935 418.493Z" fill="#3F3D56"/>
<path d="M141.873 418.493H143.91C144.047 418.493 144.157 418.382 144.157 418.245V417.22C144.157 417.083 144.047 416.973 143.91 416.973H141.873C141.737 416.973 141.626 417.083 141.626 417.22V418.245C141.626 418.382 141.737 418.493 141.873 418.493Z" fill="#3F3D56"/>
<path d="M136.811 418.493H138.848C138.984 418.493 139.095 418.382 139.095 418.245V417.22C139.095 417.083 138.984 416.973 138.848 416.973H136.811C136.675 416.973 136.564 417.083 136.564 417.22V418.245C136.564 418.382 136.675 418.493 136.811 418.493Z" fill="#3F3D56"/>
<path d="M131.749 418.493H133.786C133.922 418.493 134.033 418.382 134.033 418.245V417.22C134.033 417.083 133.922 416.973 133.786 416.973H131.749C131.613 416.973 131.502 417.083 131.502 417.22V418.245C131.502 418.382 131.613 418.493 131.749 418.493Z" fill="#3F3D56"/>
<path d="M126.687 418.493H128.724C128.86 418.493 128.971 418.382 128.971 418.245V417.22C128.971 417.083 128.86 416.973 128.724 416.973H126.687C126.55 416.973 126.44 417.083 126.44 417.22V418.245C126.44 418.382 126.55 418.493 126.687 418.493Z" fill="#3F3D56"/>
<path d="M121.625 418.493H123.662C123.798 418.493 123.909 418.382 123.909 418.245V417.22C123.909 417.083 123.798 416.973 123.662 416.973H121.625C121.488 416.973 121.378 417.083 121.378 417.22V418.245C121.378 418.382 121.488 418.493 121.625 418.493Z" fill="#3F3D56"/>
<path d="M116.563 418.493H118.599C118.736 418.493 118.847 418.382 118.847 418.245V417.22C118.847 417.083 118.736 416.973 118.599 416.973H116.563C116.426 416.973 116.315 417.083 116.315 417.22V418.245C116.315 418.382 116.426 418.493 116.563 418.493Z" fill="#3F3D56"/>
<path d="M111.5 418.493H113.537C113.674 418.493 113.784 418.382 113.784 418.245V417.22C113.784 417.083 113.674 416.973 113.537 416.973H111.5C111.364 416.973 111.253 417.083 111.253 417.22V418.245C111.253 418.382 111.364 418.493 111.5 418.493Z" fill="#3F3D56"/>
<path d="M106.438 418.493H108.475C108.612 418.493 108.722 418.382 108.722 418.245V417.22C108.722 417.083 108.612 416.973 108.475 416.973H106.438C106.302 416.973 106.191 417.083 106.191 417.22V418.245C106.191 418.382 106.302 418.493 106.438 418.493Z" fill="#3F3D56"/>
<path d="M101.376 418.493H103.413C103.55 418.493 103.66 418.382 103.66 418.245V417.22C103.66 417.083 103.55 416.973 103.413 416.973H101.376C101.24 416.973 101.129 417.083 101.129 417.22V418.245C101.129 418.382 101.24 418.493 101.376 418.493Z" fill="#3F3D56"/>
<path d="M96.3142 418.493H98.351C98.4875 418.493 98.5981 418.382 98.5981 418.245V417.22C98.5981 417.083 98.4875 416.973 98.351 416.973H96.3142C96.1777 416.973 96.0671 417.083 96.0671 417.22V418.245C96.0671 418.382 96.1777 418.493 96.3142 418.493Z" fill="#3F3D56"/>
<path d="M91.2521 418.493H93.2889C93.4254 418.493 93.536 418.382 93.536 418.245V417.22C93.536 417.083 93.4254 416.973 93.2889 416.973H91.2521C91.1156 416.973 91.0049 417.083 91.0049 417.22V418.245C91.0049 418.382 91.1156 418.493 91.2521 418.493Z" fill="#3F3D56"/>
<path d="M167.244 421.026H169.281C169.417 421.026 169.528 420.915 169.528 420.779V419.753C169.528 419.617 169.417 419.506 169.281 419.506H167.244C167.107 419.506 166.997 419.617 166.997 419.753V420.779C166.997 420.915 167.107 421.026 167.244 421.026Z" fill="#3F3D56"/>
<path d="M162.182 421.026H164.218C164.355 421.026 164.466 420.915 164.466 420.779V419.753C164.466 419.617 164.355 419.506 164.218 419.506H162.182C162.045 419.506 161.935 419.617 161.935 419.753V420.779C161.935 420.915 162.045 421.026 162.182 421.026Z" fill="#3F3D56"/>
<path d="M157.12 421.026H159.156C159.293 421.026 159.403 420.915 159.403 420.779V419.753C159.403 419.617 159.293 419.506 159.156 419.506H157.12C156.983 419.506 156.872 419.617 156.872 419.753V420.779C156.872 420.915 156.983 421.026 157.12 421.026Z" fill="#3F3D56"/>
<path d="M152.057 421.026H154.094C154.231 421.026 154.341 420.915 154.341 420.779V419.753C154.341 419.617 154.231 419.506 154.094 419.506H152.057C151.921 419.506 151.81 419.617 151.81 419.753V420.779C151.81 420.915 151.921 421.026 152.057 421.026Z" fill="#3F3D56"/>
<path d="M146.995 421.026H149.032C149.169 421.026 149.279 420.915 149.279 420.779V419.753C149.279 419.617 149.169 419.506 149.032 419.506H146.995C146.859 419.506 146.748 419.617 146.748 419.753V420.779C146.748 420.915 146.859 421.026 146.995 421.026Z" fill="#3F3D56"/>
<path d="M141.933 421.026H143.97C144.106 421.026 144.217 420.915 144.217 420.779V419.753C144.217 419.617 144.106 419.506 143.97 419.506H141.933C141.797 419.506 141.686 419.617 141.686 419.753V420.779C141.686 420.915 141.797 421.026 141.933 421.026Z" fill="#3F3D56"/>
<path d="M136.871 421.026H138.908C139.044 421.026 139.155 420.915 139.155 420.779V419.753C139.155 419.617 139.044 419.506 138.908 419.506H136.871C136.734 419.506 136.624 419.617 136.624 419.753V420.779C136.624 420.915 136.734 421.026 136.871 421.026Z" fill="#3F3D56"/>
<path d="M131.809 421.026H133.846C133.982 421.026 134.093 420.915 134.093 420.779V419.753C134.093 419.617 133.982 419.506 133.846 419.506H131.809C131.672 419.506 131.562 419.617 131.562 419.753V420.779C131.562 420.915 131.672 421.026 131.809 421.026Z" fill="#3F3D56"/>
<path d="M126.747 421.026H128.784C128.92 421.026 129.031 420.915 129.031 420.779V419.753C129.031 419.617 128.92 419.506 128.784 419.506H126.747C126.61 419.506 126.5 419.617 126.5 419.753V420.779C126.5 420.915 126.61 421.026 126.747 421.026Z" fill="#3F3D56"/>
<path d="M121.685 421.026H123.721C123.858 421.026 123.969 420.915 123.969 420.779V419.753C123.969 419.617 123.858 419.506 123.721 419.506H121.685C121.548 419.506 121.437 419.617 121.437 419.753V420.779C121.437 420.915 121.548 421.026 121.685 421.026Z" fill="#3F3D56"/>
<path d="M116.622 421.026H118.659C118.796 421.026 118.906 420.915 118.906 420.779V419.753C118.906 419.617 118.796 419.506 118.659 419.506H116.622C116.486 419.506 116.375 419.617 116.375 419.753V420.779C116.375 420.915 116.486 421.026 116.622 421.026Z" fill="#3F3D56"/>
<path d="M111.56 421.026H113.597C113.734 421.026 113.844 420.915 113.844 420.779V419.753C113.844 419.617 113.734 419.506 113.597 419.506H111.56C111.424 419.506 111.313 419.617 111.313 419.753V420.779C111.313 420.915 111.424 421.026 111.56 421.026Z" fill="#3F3D56"/>
<path d="M106.498 421.026H108.535C108.672 421.026 108.782 420.915 108.782 420.779V419.753C108.782 419.617 108.672 419.506 108.535 419.506H106.498C106.362 419.506 106.251 419.617 106.251 419.753V420.779C106.251 420.915 106.362 421.026 106.498 421.026Z" fill="#3F3D56"/>
<path d="M101.436 421.026H103.473C103.609 421.026 103.72 420.915 103.72 420.779V419.753C103.72 419.617 103.609 419.506 103.473 419.506H101.436C101.3 419.506 101.189 419.617 101.189 419.753V420.779C101.189 420.915 101.3 421.026 101.436 421.026Z" fill="#3F3D56"/>
<path d="M96.374 421.026H98.4108C98.5473 421.026 98.658 420.915 98.658 420.779V419.753C98.658 419.617 98.5473 419.506 98.4108 419.506H96.374C96.2375 419.506 96.1269 419.617 96.1269 419.753V420.779C96.1269 420.915 96.2375 421.026 96.374 421.026Z" fill="#3F3D56"/>
<path d="M91.3119 421.026H93.3487C93.4852 421.026 93.5958 420.915 93.5958 420.779V419.753C93.5958 419.617 93.4852 419.506 93.3487 419.506H91.3119C91.1754 419.506 91.0648 419.617 91.0648 419.753V420.779C91.0648 420.915 91.1754 421.026 91.3119 421.026Z" fill="#3F3D56"/>
<path d="M125.228 424.066H144.982C145.119 424.066 145.229 423.956 145.229 423.819V422.794C145.229 422.657 145.119 422.546 144.982 422.546H125.228C125.092 422.546 124.981 422.657 124.981 422.794V423.819C124.981 423.956 125.092 424.066 125.228 424.066Z" fill="#3F3D56"/>
<path d="M69.1846 300.116H198.433C198.567 300.113 198.695 300.058 198.789 299.962C198.883 299.865 198.935 299.736 198.935 299.602C198.935 299.467 198.883 299.338 198.789 299.242C198.695 299.146 198.567 299.09 198.433 299.087H69.1846C69.0502 299.09 68.9223 299.146 68.8284 299.242C68.7344 299.338 68.6818 299.467 68.6818 299.602C68.6818 299.736 68.7344 299.865 68.8284 299.962C68.9223 300.058 69.0502 300.113 69.1846 300.116Z" fill="#3F3D56"/>
<path d="M189.634 296.46C191.298 296.46 192.647 295.08 192.647 293.378C192.647 291.676 191.298 290.296 189.634 290.296C187.971 290.296 186.622 291.676 186.622 293.378C186.622 295.08 187.971 296.46 189.634 296.46Z" fill="#3F3D56"/>
<path d="M179.229 296.46C180.892 296.46 182.241 295.08 182.241 293.378C182.241 291.676 180.892 290.296 179.229 290.296C177.565 290.296 176.217 291.676 176.217 293.378C176.217 295.08 177.565 296.46 179.229 296.46Z" fill="#3F3D56"/>
<path d="M168.823 296.46C170.487 296.46 171.835 295.08 171.835 293.378C171.835 291.676 170.487 290.296 168.823 290.296C167.159 290.296 165.811 291.676 165.811 293.378C165.811 295.08 167.159 296.46 168.823 296.46Z" fill="#3F3D56"/>
<path d="M74.8987 291.62C74.8983 291.693 74.9123 291.765 74.9399 291.833C74.9674 291.9 75.008 291.962 75.0592 292.013C75.1105 292.065 75.1714 292.106 75.2385 292.135C75.3056 292.163 75.3777 292.177 75.4505 292.178H82.8412C82.9873 292.174 83.1262 292.114 83.2284 292.009C83.3305 291.905 83.3876 291.764 83.3876 291.618C83.3876 291.471 83.3305 291.331 83.2284 291.226C83.1262 291.122 82.9873 291.061 82.8412 291.058H75.4505C75.3029 291.06 75.1621 291.12 75.0587 291.225C74.9553 291.331 74.8978 291.473 74.8987 291.62Z" fill="#3F3D56"/>
<path d="M74.8987 293.723C74.8983 293.796 74.9123 293.868 74.9399 293.936C74.9674 294.003 75.008 294.065 75.0592 294.116C75.1105 294.168 75.1714 294.209 75.2385 294.238C75.3056 294.266 75.3777 294.28 75.4505 294.281H82.8412C82.9874 294.277 83.1265 294.217 83.2288 294.112C83.331 294.008 83.3883 293.867 83.3883 293.721C83.3883 293.574 83.331 293.434 83.2288 293.329C83.1265 293.225 82.9874 293.164 82.8412 293.161H75.4505C75.3029 293.163 75.1621 293.223 75.0587 293.328C74.9553 293.434 74.8978 293.576 74.8987 293.723Z" fill="#3F3D56"/>
<path d="M74.8987 295.821C74.8978 295.969 74.9553 296.111 75.0587 296.216C75.1621 296.322 75.3029 296.382 75.4505 296.384H82.8412C82.9873 296.38 83.1262 296.32 83.2284 296.215C83.3305 296.11 83.3876 295.97 83.3876 295.824C83.3876 295.677 83.3305 295.537 83.2284 295.432C83.1262 295.328 82.9873 295.267 82.8412 295.264H75.4505C75.3777 295.264 75.3056 295.279 75.2385 295.307C75.1714 295.335 75.1105 295.376 75.0592 295.428C75.008 295.48 74.9674 295.541 74.9399 295.609C74.9123 295.676 74.8983 295.748 74.8987 295.821Z" fill="#3F3D56"/>
<path d="M77.1829 312.073H74.5272C73.722 312.073 73.0693 312.726 73.0693 313.532C73.0693 314.338 73.722 314.991 74.5272 314.991H77.1829C77.988 314.991 78.6408 314.338 78.6408 313.532C78.6408 312.726 77.988 312.073 77.1829 312.073Z" fill="#E6E6E6"/>
<path d="M107.556 312.073H104.9C104.095 312.073 103.442 312.726 103.442 313.532C103.442 314.338 104.095 314.991 104.9 314.991H107.556C108.361 314.991 109.013 314.338 109.013 313.532C109.013 312.726 108.361 312.073 107.556 312.073Z" fill="#E6E6E6"/>
<path d="M116.161 312.073H113.505C112.7 312.073 112.048 312.726 112.048 313.532C112.048 314.338 112.7 314.991 113.505 314.991H116.161C116.966 314.991 117.619 314.338 117.619 313.532C117.619 312.726 116.966 312.073 116.161 312.073Z" fill="#E6E6E6"/>
<path d="M99.2941 311.829H82.7887C81.9835 311.829 81.3308 312.483 81.3308 313.289C81.3308 314.095 81.9835 314.748 82.7887 314.748H99.2941C100.099 314.748 100.752 314.095 100.752 313.289C100.752 312.483 100.099 311.829 99.2941 311.829Z" fill="#E6E6E6"/>
<path d="M139.791 311.829H123.286C122.48 311.829 121.828 312.483 121.828 313.289C121.828 314.095 122.48 314.748 123.286 314.748H139.791C140.596 314.748 141.249 314.095 141.249 313.289C141.249 312.483 140.596 311.829 139.791 311.829Z" fill="#E6E6E6"/>
<path d="M85.2823 318.66H82.6266C81.8214 318.66 81.1687 319.313 81.1687 320.119C81.1687 320.925 81.8214 321.579 82.6266 321.579H85.2823C86.0874 321.579 86.7401 320.925 86.7401 320.119C86.7401 319.313 86.0874 318.66 85.2823 318.66Z" fill="#E6E6E6"/>
<path d="M115.655 318.66H112.999C112.194 318.66 111.542 319.313 111.542 320.119C111.542 320.925 112.194 321.579 112.999 321.579H115.655C116.46 321.579 117.113 320.925 117.113 320.119C117.113 319.313 116.46 318.66 115.655 318.66Z" fill="#E6E6E6"/>
<path d="M124.261 318.66H121.605C120.8 318.66 120.147 319.313 120.147 320.119C120.147 320.925 120.8 321.579 121.605 321.579H124.261C125.066 321.579 125.719 320.925 125.719 320.119C125.719 319.313 125.066 318.66 124.261 318.66Z" fill="#E6E6E6"/>
<path d="M107.394 318.417H90.8881C90.0829 318.417 89.4302 319.07 89.4302 319.876C89.4302 320.682 90.0829 321.335 90.8881 321.335H107.394C108.199 321.335 108.851 320.682 108.851 319.876C108.851 319.07 108.199 318.417 107.394 318.417Z" fill="#E6E6E6"/>
<path d="M147.891 318.417H131.385C130.58 318.417 129.927 319.07 129.927 319.876C129.927 320.682 130.58 321.335 131.385 321.335H147.891C148.696 321.335 149.348 320.682 149.348 319.876C149.348 319.07 148.696 318.417 147.891 318.417Z" fill="#E6E6E6"/>
<path d="M93.3816 325.247H90.7259C89.9208 325.247 89.2681 325.9 89.2681 326.706C89.2681 327.512 89.9208 328.166 90.7259 328.166H93.3816C94.1868 328.166 94.8395 327.512 94.8395 326.706C94.8395 325.9 94.1868 325.247 93.3816 325.247Z" fill="#E6E6E6"/>
<path d="M123.754 325.247H121.099C120.294 325.247 119.641 325.9 119.641 326.706C119.641 327.512 120.294 328.166 121.099 328.166H123.754C124.56 328.166 125.212 327.512 125.212 326.706C125.212 325.9 124.56 325.247 123.754 325.247Z" fill="#E6E6E6"/>
<path d="M132.36 325.247H129.704C128.899 325.247 128.246 325.9 128.246 326.706C128.246 327.512 128.899 328.166 129.704 328.166H132.36C133.165 328.166 133.818 327.512 133.818 326.706C133.818 325.9 133.165 325.247 132.36 325.247Z" fill="#E6E6E6"/>
<path d="M115.493 325.004H98.9874C98.1823 325.004 97.5295 325.657 97.5295 326.463C97.5295 327.269 98.1823 327.922 98.9874 327.922H115.493C116.298 327.922 116.951 327.269 116.951 326.463C116.951 325.657 116.298 325.004 115.493 325.004Z" fill="#E6E6E6"/>
<path d="M155.99 325.004H139.484C138.679 325.004 138.027 325.657 138.027 326.463C138.027 327.269 138.679 327.922 139.484 327.922H155.99C156.795 327.922 157.448 327.269 157.448 326.463C157.448 325.657 156.795 325.004 155.99 325.004Z" fill="#E6E6E6"/>
<path d="M101.481 331.834H98.8253C98.0202 331.834 97.3674 332.488 97.3674 333.294C97.3674 334.099 98.0202 334.753 98.8253 334.753H101.481C102.286 334.753 102.939 334.099 102.939 333.294C102.939 332.488 102.286 331.834 101.481 331.834Z" fill="#E6E6E6"/>
<path d="M131.854 331.834H129.198C128.393 331.834 127.74 332.488 127.74 333.294C127.74 334.099 128.393 334.753 129.198 334.753H131.854C132.659 334.753 133.312 334.099 133.312 333.294C133.312 332.488 132.659 331.834 131.854 331.834Z" fill="#E6E6E6"/>
<path d="M140.459 331.834H137.804C136.999 331.834 136.346 332.488 136.346 333.294C136.346 334.099 136.999 334.753 137.804 334.753H140.459C141.265 334.753 141.917 334.099 141.917 333.294C141.917 332.488 141.265 331.834 140.459 331.834Z" fill="#E6E6E6"/>
<path d="M123.592 331.591H107.087C106.282 331.591 105.629 332.244 105.629 333.05C105.629 333.856 106.282 334.51 107.087 334.51H123.592C124.398 334.51 125.05 333.856 125.05 333.05C125.05 332.244 124.398 331.591 123.592 331.591Z" fill="#E6E6E6"/>
<path d="M107.556 358.028H104.9C104.095 358.028 103.442 358.681 103.442 359.487C103.442 360.293 104.095 360.946 104.9 360.946H107.556C108.361 360.946 109.013 360.293 109.013 359.487C109.013 358.681 108.361 358.028 107.556 358.028Z" fill="#E6E6E6"/>
<path d="M116.161 358.028H113.505C112.7 358.028 112.048 358.681 112.048 359.487C112.048 360.293 112.7 360.946 113.505 360.946H116.161C116.966 360.946 117.619 360.293 117.619 359.487C117.619 358.681 116.966 358.028 116.161 358.028Z" fill="#E6E6E6"/>
<path d="M139.791 358.271H123.286C122.48 358.271 121.828 358.924 121.828 359.73C121.828 360.536 122.48 361.19 123.286 361.19H139.791C140.596 361.19 141.249 360.536 141.249 359.73C141.249 358.924 140.596 358.271 139.791 358.271Z" fill="#E6E6E6"/>
<path d="M77.1829 358.028H74.5272C73.722 358.028 73.0693 358.681 73.0693 359.487C73.0693 360.293 73.722 360.946 74.5272 360.946H77.1829C77.988 360.946 78.6408 360.293 78.6408 359.487C78.6408 358.681 77.988 358.028 77.1829 358.028Z" fill="#E6E6E6"/>
<path d="M99.2941 358.271H82.7887C81.9835 358.271 81.3308 358.924 81.3308 359.73C81.3308 360.536 81.9835 361.19 82.7887 361.19H99.2941C100.099 361.19 100.752 360.536 100.752 359.73C100.752 358.924 100.099 358.271 99.2941 358.271Z" fill="#E6E6E6"/>
<path d="M85.2823 351.441H82.6266C81.8214 351.441 81.1687 352.094 81.1687 352.9C81.1687 353.706 81.8214 354.359 82.6266 354.359H85.2823C86.0874 354.359 86.7401 353.706 86.7401 352.9C86.7401 352.094 86.0874 351.441 85.2823 351.441Z" fill="#E6E6E6"/>
<path d="M115.655 351.441H112.999C112.194 351.441 111.542 352.094 111.542 352.9C111.542 353.706 112.194 354.359 112.999 354.359H115.655C116.46 354.359 117.113 353.706 117.113 352.9C117.113 352.094 116.46 351.441 115.655 351.441Z" fill="#E6E6E6"/>
<path d="M124.261 351.441H121.605C120.8 351.441 120.147 352.094 120.147 352.9C120.147 353.706 120.8 354.359 121.605 354.359H124.261C125.066 354.359 125.719 353.706 125.719 352.9C125.719 352.094 125.066 351.441 124.261 351.441Z" fill="#E6E6E6"/>
<path d="M107.394 351.684H90.8881C90.0829 351.684 89.4302 352.337 89.4302 353.143C89.4302 353.949 90.0829 354.602 90.8881 354.602H107.394C108.199 354.602 108.851 353.949 108.851 353.143C108.851 352.337 108.199 351.684 107.394 351.684Z" fill="#E6E6E6"/>
<path d="M93.3816 344.854H90.7259C89.9208 344.854 89.2681 345.507 89.2681 346.313C89.2681 347.119 89.9208 347.772 90.7259 347.772H93.3816C94.1868 347.772 94.8395 347.119 94.8395 346.313C94.8395 345.507 94.1868 344.854 93.3816 344.854Z" fill="#E6E6E6"/>
<path d="M123.754 344.854H121.099C120.294 344.854 119.641 345.507 119.641 346.313C119.641 347.119 120.294 347.772 121.099 347.772H123.754C124.56 347.772 125.212 347.119 125.212 346.313C125.212 345.507 124.56 344.854 123.754 344.854Z" fill="#E6E6E6"/>
<path d="M132.36 344.854H129.704C128.899 344.854 128.246 345.507 128.246 346.313C128.246 347.119 128.899 347.772 129.704 347.772H132.36C133.165 347.772 133.818 347.119 133.818 346.313C133.818 345.507 133.165 344.854 132.36 344.854Z" fill="#E6E6E6"/>
<path d="M115.493 345.097H98.9874C98.1823 345.097 97.5295 345.75 97.5295 346.556C97.5295 347.362 98.1823 348.015 98.9874 348.015H115.493C116.298 348.015 116.951 347.362 116.951 346.556C116.951 345.75 116.298 345.097 115.493 345.097Z" fill="#E6E6E6"/>
<path d="M101.481 338.266H98.8253C98.0202 338.266 97.3674 338.919 97.3674 339.725C97.3674 340.531 98.0202 341.185 98.8253 341.185H101.481C102.286 341.185 102.939 340.531 102.939 339.725C102.939 338.919 102.286 338.266 101.481 338.266Z" fill="#E6E6E6"/>
<path d="M131.854 338.266H129.198C128.393 338.266 127.74 338.919 127.74 339.725C127.74 340.531 128.393 341.185 129.198 341.185H131.854C132.659 341.185 133.312 340.531 133.312 339.725C133.312 338.919 132.659 338.266 131.854 338.266Z" fill="#E6E6E6"/>
<path d="M140.459 338.266H137.804C136.999 338.266 136.346 338.919 136.346 339.725C136.346 340.531 136.999 341.185 137.804 341.185H140.459C141.265 341.185 141.917 340.531 141.917 339.725C141.917 338.919 141.265 338.266 140.459 338.266Z" fill="#E6E6E6"/>
<path d="M123.592 338.51H107.087C106.282 338.51 105.629 339.163 105.629 339.969C105.629 340.775 106.282 341.428 107.087 341.428H123.592C124.398 341.428 125.05 340.775 125.05 339.969C125.05 339.163 124.398 338.51 123.592 338.51Z" fill="#E6E6E6"/>
<path d="M67.6346 453.189C67.9434 453.346 68.2573 453.503 68.5661 453.655C76.5642 457.658 82.9627 459.933 91.7152 462.426C92.4543 454.167 93.168 439.65 93.8615 430.651C94.0438 428.315 94.226 426.354 94.4032 424.97C94.4479 424.235 94.5979 423.51 94.8486 422.817L94.8183 424.97L94.7423 430.651L94.3019 463.136C105.189 466.019 116.373 467.633 127.631 467.944C128.218 467.959 128.795 467.97 129.352 467.98C129.55 467.985 129.742 467.99 129.934 467.99C130.567 467.995 131.195 468 131.827 468C143.691 468.009 155.512 466.574 167.029 463.728C166.781 455.555 166.533 441.2 166.296 430.651C166.245 428.588 166.199 426.668 166.149 424.97C166.052 421.342 165.951 418.728 165.855 417.851C165.94 418.006 166.007 418.171 166.052 418.343C166.521 420.528 166.841 422.742 167.009 424.97C167.186 426.668 167.364 428.588 167.541 430.651C168.482 441.611 169.464 456.513 170.477 462.831C176.503 461.185 182.416 459.149 188.179 456.736C191.216 455.469 194.2 454.103 197.129 452.637C196.572 448.988 195.99 444.899 195.393 440.658C194.927 437.369 194.446 433.99 193.955 430.651C193.196 425.492 181.912 389.445 181.198 388.077C180.586 386.907 180.004 385.802 179.452 384.783C178.116 382.311 176.982 380.34 176.141 379.093C172.628 373.759 167.398 369.788 161.319 367.839L161.168 367.799L161.061 367.844L150.709 364.662L149.196 364.196L148.178 363.882L144.594 361.151L142.645 359.666L140.818 358.273L137.244 355.552L115.117 356.915L110.81 367.297L101.161 370.829L100.994 370.753L100.847 370.692L100.695 370.732C94.6177 372.683 89.3882 376.654 85.8735 381.986C85.3977 382.701 84.8206 383.643 84.1676 384.783C83.6108 385.751 83.0033 386.856 82.3452 388.077C81.4087 389.815 80.3862 391.776 79.3029 393.899C79.065 394.365 78.822 394.842 78.579 395.323C78.1285 396.215 77.6712 397.125 77.2072 398.054C76.1289 400.208 75.0153 402.457 73.9016 404.743C72.9347 406.724 71.9578 410.798 70.9959 415.981C70.2012 420.288 69.4115 425.366 68.6471 430.651C67.6448 437.501 68.7129 445.705 67.8068 452.008C67.7511 452.409 67.6903 452.799 67.6346 453.189Z" fill="#3F3D56"/>
<path opacity="0.2" d="M173.681 415.959L169.38 399.343L165.582 413.681L173.681 415.959Z" fill="black"/>
<path d="M59.2213 405.133C60.7602 426.354 59.1656 435.698 67.6599 453.194C75.3884 456.981 83.4387 460.07 91.7151 462.426C92.5757 462.67 93.4379 462.906 94.3018 463.136C105.189 466.019 116.373 467.633 127.631 467.944C128.218 467.96 128.795 467.97 129.352 467.98C129.549 467.985 129.742 467.99 129.934 467.99C130.567 467.995 131.195 468 131.827 468C143.691 468.009 155.512 466.575 167.029 463.729C168.184 463.445 169.333 463.146 170.477 462.832C176.503 461.185 182.416 459.149 188.179 456.736C191.216 455.469 194.2 454.103 197.129 452.637C197.792 452.302 198.455 451.968 199.108 451.623C202.464 445.715 204.373 438.53 204.413 429.896C202.09 415.019 64.3543 392.303 59.2213 405.133Z" fill="#2F2E41"/>
<path opacity="0.2" d="M59.2254 408.767C59.1468 407.453 59.0589 406.096 58.9564 404.683C64.0894 391.853 201.825 414.569 204.148 429.446C204.142 430.81 204.084 432.133 203.986 433.426C198.359 418.742 67.5084 397.152 59.2254 408.767Z" fill="black"/>
<path d="M28.013 415.767C28.2361 416.417 28.6591 416.979 29.2215 417.373C29.7838 417.768 30.4565 417.973 31.143 417.961L44.5535 417.616C45.245 417.602 45.9136 417.365 46.4593 416.94C47.005 416.514 47.3985 415.924 47.5811 415.256L49.4788 394.943C50.1521 395.249 50.8851 395.4 51.6241 395.385C52.9202 395.351 54.15 394.804 55.0432 393.863C55.9364 392.923 56.4198 391.665 56.3873 390.368C56.3547 389.071 55.8089 387.839 54.8697 386.945C53.9305 386.05 52.6748 385.565 51.3786 385.597C51.0833 385.596 50.7886 385.627 50.4998 385.688C50.1856 385.348 49.8038 385.078 49.3788 384.894C48.9539 384.71 48.4952 384.618 48.0325 384.623L27.404 385.156C27.2329 385.162 27.0627 385.183 26.8952 385.219C26.4428 385.304 26.0137 385.484 25.6369 385.748C25.26 386.013 24.9441 386.355 24.7103 386.751C24.4766 387.148 24.3305 387.591 24.2818 388.049C24.2332 388.507 24.2831 388.97 24.4283 389.407L28.013 415.767ZM49.868 393.564L51.2184 388.724C51.372 388.165 51.3756 387.575 51.2287 387.014C51.2942 387.014 51.352 386.983 51.4175 386.982C52.3435 386.963 53.2392 387.312 53.9083 387.953C54.5775 388.594 54.9654 389.475 54.9871 390.401C55.0088 391.328 54.6624 392.226 54.024 392.897C53.3856 393.569 52.5071 393.959 51.5813 393.984C50.9827 394.002 50.3904 393.857 49.868 393.564Z" fill="#2F2E41"/>
<path d="M26.8951 385.219C27.3346 387.734 32.2757 389.503 38.217 389.195C43.6804 388.943 48.1476 387.023 48.966 384.747C48.6632 384.658 48.3482 384.615 48.0324 384.623L27.404 385.156C27.2329 385.162 27.0626 385.183 26.8951 385.219Z" fill="#3F3D56"/>
<path d="M39.306 404.605C39.3331 404.598 39.359 404.586 39.3824 404.571L42.2947 402.663C42.3299 402.64 42.3588 402.608 42.3788 402.571C42.3989 402.534 42.4094 402.493 42.4094 402.451C42.4094 402.409 42.3989 402.367 42.3789 402.33C42.3589 402.293 42.33 402.262 42.2948 402.239L39.2678 400.254C39.24 400.236 39.2089 400.223 39.1762 400.217C39.1435 400.211 39.1098 400.211 39.0772 400.218C39.0446 400.224 39.0136 400.237 38.9861 400.256C38.9585 400.275 38.9349 400.299 38.9166 400.327C38.8984 400.355 38.8858 400.386 38.8796 400.419C38.8735 400.451 38.8738 400.485 38.8807 400.518C38.8875 400.55 38.9007 400.581 38.9196 400.609C38.9384 400.636 38.9625 400.66 38.9904 400.678L41.6941 402.451L39.1053 404.147C39.0552 404.18 39.0183 404.229 39.0012 404.287C38.9842 404.344 38.988 404.406 39.0121 404.461C39.0362 404.516 39.0789 404.56 39.1327 404.587C39.1865 404.613 39.2479 404.619 39.306 404.605Z" fill="#6C63FF"/>
<path d="M34.7061 404.817C34.7549 404.805 34.799 404.778 34.8326 404.74C34.8662 404.703 34.8878 404.656 34.8947 404.606C34.9016 404.556 34.8933 404.505 34.8711 404.46C34.8489 404.414 34.8136 404.377 34.7699 404.352L32.0854 402.811L34.6801 400.882C34.7067 400.862 34.7292 400.837 34.7463 400.809C34.7633 400.78 34.7746 400.749 34.7794 400.716C34.7843 400.683 34.7826 400.649 34.7745 400.617C34.7664 400.585 34.752 400.554 34.7322 400.528C34.7124 400.501 34.6875 400.478 34.659 400.461C34.6305 400.444 34.5989 400.433 34.5661 400.428C34.5332 400.423 34.4997 400.425 34.4675 400.433C34.4353 400.441 34.405 400.456 34.3784 400.475L31.4734 402.635C31.4396 402.66 31.4126 402.694 31.3949 402.732C31.3771 402.77 31.3691 402.812 31.3715 402.854C31.374 402.896 31.3869 402.936 31.409 402.972C31.4311 403.008 31.4618 403.037 31.4983 403.058L34.518 404.791C34.5749 404.824 34.6424 404.833 34.7061 404.817Z" fill="#6C63FF"/>
<path d="M39.0163 406.277C39.0408 406.271 39.0642 406.261 39.0856 406.248C39.1141 406.23 39.1388 406.208 39.1585 406.181C39.1781 406.154 39.1923 406.123 39.2002 406.091C39.208 406.059 39.2095 406.025 39.2044 405.992C39.1993 405.959 39.1877 405.928 39.1704 405.899L35.042 399.105C35.0069 399.048 34.9507 399.007 34.8856 398.992C34.8204 398.976 34.7518 398.987 34.6946 399.022C34.6374 399.056 34.5964 399.113 34.5804 399.178C34.5645 399.243 34.5749 399.312 34.6095 399.369L38.7379 406.163C38.7661 406.209 38.8083 406.245 38.8584 406.266C38.9085 406.286 38.9638 406.29 39.0163 406.277Z" fill="#6C63FF"/>
<path d="M359.673 377.763H314.62V417.287H359.673V377.763Z" fill="#3F3D56"/>
<path d="M366.351 322.558C365.515 327.513 366.249 332.605 368.449 337.122C369.263 338.783 370.271 340.784 369.28 342.346C369.002 342.737 368.64 343.06 368.221 343.292C367.802 343.525 367.336 343.66 366.858 343.69C365.901 343.74 364.944 343.616 364.031 343.323" fill="#CCCCCC"/>
<path d="M326.769 307.331C327.608 307.331 328.288 306.764 328.288 306.064C328.288 305.365 327.608 304.798 326.769 304.798C325.93 304.798 325.25 305.365 325.25 306.064C325.25 306.764 325.93 307.331 326.769 307.331Z" fill="#3F3D56"/>
<path d="M332.337 307.838C333.176 307.838 333.856 307.271 333.856 306.571C333.856 305.871 333.176 305.304 332.337 305.304C331.499 305.304 330.819 305.871 330.819 306.571C330.819 307.271 331.499 307.838 332.337 307.838Z" fill="#3F3D56"/>
<path d="M337.906 310.371C338.745 310.371 339.424 309.804 339.424 309.105C339.424 308.405 338.745 307.838 337.906 307.838C337.067 307.838 336.387 308.405 336.387 309.105C336.387 309.804 337.067 310.371 337.906 310.371Z" fill="#3F3D56"/>
<path d="M344.487 308.851C345.325 308.851 346.005 308.284 346.005 307.584C346.005 306.885 345.325 306.318 344.487 306.318C343.648 306.318 342.968 306.885 342.968 307.584C342.968 308.284 343.648 308.851 344.487 308.851Z" fill="#3F3D56"/>
<path d="M206.253 332.861C213.629 330.811 221.844 333.008 227.543 338.039C230.619 340.773 232.875 344.307 234.063 348.248C235.518 352.94 235.759 357.889 235.911 362.765C236.079 368.157 236.226 373.55 236.383 378.943C236.532 384.085 236.55 389.25 236.893 394.383C237.18 398.691 237.869 403.162 240.172 406.898C242.307 410.362 245.68 412.7 249.492 413.989C253.356 415.296 257.521 415.6 261.574 415.573C266.291 415.558 271 415.185 275.661 414.457C284.513 413.037 293.257 409.417 298.663 401.947C301.153 398.555 302.551 394.485 302.674 390.278C302.788 385.376 301.223 380.628 299.509 376.1C297.841 371.693 296.037 367.352 294.981 362.745C294.001 358.434 293.534 354.021 293.59 349.6C293.68 340.754 295.798 332.048 299.78 324.151C301.796 320.095 304.353 316.332 307.38 312.965C310.503 309.564 314.369 306.756 318.968 305.836C321.211 305.371 323.535 305.464 325.734 306.108C326.673 306.39 327.074 304.923 326.138 304.643C321.583 303.277 316.635 304.315 312.596 306.685C308.625 309.015 305.487 312.51 302.824 316.216C297.707 323.481 294.301 331.813 292.861 340.585C291.42 349.357 291.983 358.341 294.508 366.864C297.21 375.726 303.088 384.95 300.563 394.541C298.353 402.935 290.696 408.64 282.787 411.217C277.988 412.78 272.957 413.442 267.939 413.784C263.698 414.073 259.399 414.257 255.171 413.711C251.287 413.21 247.292 412.022 244.28 409.412C240.979 406.551 239.471 402.441 238.814 398.222C238.071 393.449 238.18 388.528 238.04 383.712L237.562 367.272C237.291 357.988 237.524 347.698 231.49 340.004C229.077 337.007 226.013 334.599 222.531 332.965C219.049 331.331 215.24 330.514 211.395 330.575C209.519 330.618 207.657 330.893 205.849 331.395C205.661 331.454 205.503 331.583 205.409 331.757C205.315 331.93 205.291 332.133 205.344 332.323C205.396 332.513 205.52 332.675 205.69 332.776C205.859 332.876 206.061 332.906 206.253 332.861Z" fill="#3F3D56"/>
<path d="M98.446 323.244C99.521 330.9 103.589 337.816 109.755 342.473C115.921 347.129 123.682 349.144 131.332 348.076C138.982 347.007 145.896 342.943 150.554 336.775C155.211 330.607 157.233 322.841 156.173 315.182L156.115 314.768C154.883 307.213 150.732 300.446 144.56 295.926C138.387 291.406 130.687 289.496 123.12 290.608C115.553 291.72 108.726 295.765 104.112 301.87C99.4977 307.976 97.4659 315.652 98.4549 323.243L98.446 323.244Z" fill="#FFB6B6"/>
<path d="M124.137 347.365C122.63 344.327 121.082 341.065 121.491 337.698C121.901 334.331 125.187 331.103 128.428 332.093C130.367 332.684 131.836 334.593 133.861 334.684C136.646 334.81 138.232 331.614 139.09 328.959L142.584 318.145C149.323 323.444 140.788 317.888 149.136 315.948C152.411 315.187 155.718 313.713 157.631 310.946C159.544 308.179 159.519 303.896 156.874 301.817C155.578 300.798 153.856 300.415 152.616 299.326C151.847 298.651 151.316 297.746 151.101 296.746C150.886 295.745 150.998 294.701 151.422 293.769C151.845 292.838 152.557 292.067 153.452 291.572C154.347 291.076 155.378 290.882 156.391 291.019L147.499 289.936L150.131 285.133C148.228 286.645 145.573 286.857 143.18 286.434C140.787 286.011 138.532 285.033 136.19 284.383C124.948 281.265 111.914 286.796 106.335 297.05C104.145 296.326 101.787 296.285 99.5738 296.933C97.3604 297.581 95.3959 298.887 93.9406 300.677C91.5713 303.708 90.9377 307.744 90.8583 311.592C90.7107 319.179 92.3883 326.69 95.7496 333.491C96.7972 335.605 98.0355 337.679 99.8162 339.225C101.597 340.771 121.721 349.336 124.043 348.932" fill="#2F2E41"/>
<path d="M334.362 327.346C334.366 328.661 334.198 329.971 333.861 331.243V331.248C333.856 331.273 333.846 331.298 333.841 331.324C332.818 335.088 330.378 337.733 327.528 337.733C324.694 337.733 322.264 335.109 321.226 331.374C321.155 331.116 321.094 330.857 321.039 330.589C320.968 330.29 320.912 329.981 320.867 329.662C320.826 329.408 320.796 329.15 320.771 328.886C320.735 328.522 320.71 328.157 320.705 327.777V327.772C320.695 327.63 320.695 327.488 320.695 327.346V327.219L320.7 327.214C320.7 326.572 320.743 325.931 320.826 325.294C320.862 325.025 320.902 324.767 320.953 324.508C321.013 324.194 321.079 323.885 321.16 323.581C321.226 323.313 321.302 323.054 321.383 322.796C321.494 322.451 321.616 322.117 321.753 321.798C321.839 321.59 321.93 321.387 322.021 321.19C323.266 318.626 325.271 316.958 327.528 316.958C330.652 316.958 333.284 320.146 334.099 324.493C334.109 324.559 334.124 324.625 334.129 324.691V324.696C334.285 325.571 334.363 326.457 334.362 327.346Z" fill="#E6E6E6"/>
<path d="M322.087 321.412C322.084 321.505 322.049 321.594 321.988 321.665C321.927 321.735 321.844 321.782 321.753 321.798C321.839 321.59 321.93 321.387 322.021 321.189C322.063 321.256 322.086 321.333 322.087 321.412Z" fill="#6C63FF"/>
<path d="M328.072 320.951H323.617C323.4 320.951 323.224 321.127 323.224 321.345C323.224 321.562 323.4 321.739 323.617 321.739H328.072C328.289 321.739 328.465 321.562 328.465 321.345C328.465 321.127 328.289 320.951 328.072 320.951Z" fill="#6C63FF"/>
<path d="M321.95 323.186C321.95 323.291 321.908 323.391 321.834 323.465C321.76 323.539 321.66 323.581 321.555 323.581H321.16C321.226 323.313 321.302 323.054 321.383 322.796H321.555C321.659 322.796 321.759 322.836 321.833 322.909C321.907 322.983 321.949 323.082 321.95 323.186Z" fill="#6C63FF"/>
<path d="M323.88 322.794H323.163C322.946 322.794 322.77 322.971 322.77 323.188C322.77 323.406 322.946 323.582 323.163 323.582H323.88C324.097 323.582 324.274 323.406 324.274 323.188C324.274 322.971 324.097 322.794 323.88 322.794Z" fill="#6C63FF"/>
<path d="M330.258 322.729H325.803C325.586 322.729 325.409 322.905 325.409 323.123C325.409 323.34 325.586 323.516 325.803 323.516H330.258C330.475 323.516 330.651 323.34 330.651 323.123C330.651 322.905 330.475 322.729 330.258 322.729Z" fill="#6C63FF"/>
<path d="M323.744 324.572H323.027C322.809 324.572 322.633 324.749 322.633 324.966C322.633 325.184 322.809 325.36 323.027 325.36H323.744C323.961 325.36 324.137 325.184 324.137 324.966C324.137 324.749 323.961 324.572 323.744 324.572Z" fill="#6C63FF"/>
<path d="M326.066 324.572H325.349C325.132 324.572 324.956 324.749 324.956 324.966C324.956 325.184 325.132 325.36 325.349 325.36H326.066C326.283 325.36 326.46 325.184 326.46 324.966C326.46 324.749 326.283 324.572 326.066 324.572Z" fill="#6C63FF"/>
<path d="M321.91 324.899C321.909 325.004 321.868 325.104 321.794 325.178C321.72 325.252 321.619 325.294 321.515 325.294H320.826C320.862 325.025 320.902 324.767 320.953 324.509H321.515C321.566 324.508 321.617 324.518 321.665 324.537C321.713 324.557 321.757 324.585 321.793 324.621C321.83 324.658 321.859 324.701 321.879 324.748C321.899 324.796 321.909 324.847 321.91 324.899Z" fill="#6C63FF"/>
<path d="M332.444 324.507H327.989C327.772 324.507 327.595 324.683 327.595 324.9C327.595 325.118 327.772 325.294 327.989 325.294H332.444C332.661 325.294 332.837 325.118 332.837 324.9C332.837 324.683 332.661 324.507 332.444 324.507Z" fill="#6C63FF"/>
<path d="M322.087 327.493C322.086 327.545 322.076 327.596 322.056 327.643C322.036 327.691 322.007 327.734 321.97 327.77C321.934 327.806 321.89 327.835 321.842 327.854C321.795 327.874 321.743 327.884 321.692 327.883H320.978C320.877 327.883 320.779 327.845 320.705 327.777V327.772C320.695 327.63 320.695 327.488 320.695 327.346V327.219L320.7 327.214C320.736 327.177 320.779 327.148 320.827 327.128C320.875 327.108 320.926 327.098 320.978 327.098H321.692C321.797 327.098 321.897 327.139 321.971 327.214C322.045 327.288 322.087 327.388 322.087 327.493Z" fill="#CCCCCC"/>
<path d="M328.072 327.031H323.617C323.4 327.031 323.224 327.208 323.224 327.425C323.224 327.643 323.4 327.819 323.617 327.819H328.072C328.289 327.819 328.465 327.643 328.465 327.425C328.465 327.208 328.289 327.031 328.072 327.031Z" fill="#CCCCCC"/>
<path d="M321.95 329.267C321.95 329.371 321.908 329.472 321.834 329.546C321.76 329.62 321.66 329.662 321.555 329.662H320.867C320.826 329.408 320.796 329.15 320.771 328.887C320.793 328.878 320.817 328.875 320.841 328.876H321.555C321.659 328.876 321.759 328.917 321.833 328.99C321.907 329.063 321.949 329.163 321.95 329.267Z" fill="#CCCCCC"/>
<path d="M323.88 328.875H323.163C322.946 328.875 322.77 329.051 322.77 329.269C322.77 329.486 322.946 329.663 323.163 329.663H323.88C324.097 329.663 324.274 329.486 324.274 329.269C324.274 329.051 324.097 328.875 323.88 328.875Z" fill="#CCCCCC"/>
<path d="M330.258 328.809H325.803C325.586 328.809 325.409 328.986 325.409 329.203C325.409 329.421 325.586 329.597 325.803 329.597H330.258C330.475 329.597 330.651 329.421 330.651 329.203C330.651 328.986 330.475 328.809 330.258 328.809Z" fill="#CCCCCC"/>
<path d="M323.744 330.653H323.027C322.809 330.653 322.633 330.829 322.633 331.047C322.633 331.264 322.809 331.441 323.027 331.441H323.744C323.961 331.441 324.137 331.264 324.137 331.047C324.137 330.829 323.961 330.653 323.744 330.653Z" fill="#CCCCCC"/>
<path d="M326.066 330.653H325.349C325.132 330.653 324.956 330.829 324.956 331.047C324.956 331.264 325.132 331.441 325.349 331.441H326.066C326.283 331.441 326.46 331.264 326.46 331.047C326.46 330.829 326.283 330.653 326.066 330.653Z" fill="#CCCCCC"/>
<path d="M321.909 330.979C321.909 331.084 321.868 331.184 321.794 331.258C321.72 331.332 321.619 331.374 321.515 331.374H321.226C321.155 331.116 321.095 330.857 321.039 330.589H321.515C321.566 330.588 321.617 330.598 321.665 330.617C321.713 330.637 321.756 330.665 321.793 330.702C321.83 330.738 321.859 330.781 321.879 330.829C321.899 330.876 321.909 330.927 321.909 330.979Z" fill="#CCCCCC"/>
<path d="M332.444 330.587H327.989C327.772 330.587 327.595 330.763 327.595 330.981C327.595 331.199 327.772 331.375 327.989 331.375H332.444C332.661 331.375 332.837 331.199 332.837 330.981C332.837 330.763 332.661 330.587 332.444 330.587Z" fill="#CCCCCC"/>
</g>
<defs>
<clipPath id="clip0_72_122">
<rect width="374" height="292" fill="white" transform="translate(20 176)"/>
</clipPath>
</defs>
</svg>
